<svg width="20" height="20" viewBox="0 0 20 20" fill="none" xmlns="http://www.w3.org/2000/svg">
<path d="M17.5 1.38621C13.7701 -0.0117447 10.2542 0.950075 9.01789 2.63557C8.16392 3.8002 8.29068 5.21182 8.46683 6.01822C7.75937 5.88369 7.28279 6.00416 7.04574 6.37604C6.76753 6.81177 6.98566 7.43023 7.47211 8.05672C6.27368 8.66776 5.27488 9.59454 4.58919 10.7318C3.6514 12.1918 2.99049 13.8046 2.63803 15.4931C2.30179 17.2669 2.58451 18.5283 3.43519 19.0444C3.71062 19.208 4.02812 19.2915 4.35048 19.2853C6.20905 19.2853 8.90967 16.9661 10.5691 14.365C11.3035 13.2625 11.7141 11.9846 11.756 10.6703C11.984 10.7169 12.2161 10.7416 12.449 10.7442C12.6506 10.7668 12.8547 10.7384 13.0417 10.6616C13.2287 10.5847 13.3923 10.4622 13.5166 10.3057C13.6115 10.1264 13.6513 9.9242 13.6313 9.72338C13.6113 9.52255 13.5323 9.33163 13.4038 9.17356C17.5728 8.0013 16.0196 4.8058 15.7661 3.3472C15.5011 1.82395 17.5 1.38621 17.5 1.38621ZM9.73688 13.8586C7.81822 16.8669 4.90649 18.8091 3.95252 18.2328C3.48911 17.9517 3.35453 16.9685 3.60105 15.6674C3.93459 14.0974 4.55061 12.5976 5.42053 11.2374C6.16132 10.0727 7.24206 9.12095 8.1236 8.83019C8.44461 9.0828 8.76191 9.30488 9.08333 9.51572L9.17471 9.57596C9.6843 9.9044 10.2172 10.197 10.7695 10.4514C10.8822 11.3398 10.4777 12.6968 9.73688 13.8586ZM9.91879 8.90771C8.62734 8.12339 8.01453 7.25192 7.91411 6.9182C8.26187 6.89531 9.24097 7.13987 10.5423 7.93021C11.8436 8.72056 12.5021 9.47155 12.633 9.78479C12.2844 9.84302 11.2111 9.69243 9.91879 8.90771ZM12.9943 7.37481C12.9943 7.37481 15.1669 6.28327 14.4759 3.35885C14.4771 3.36005 16.6971 7.04028 12.9943 7.37481Z" fill="white"/>
</svg>
