<svg width="60" height="35" viewBox="0 0 60 35" fill="none" xmlns="http://www.w3.org/2000/svg">
<path fill-rule="evenodd" clip-rule="evenodd" d="M17.7361 13.1516C17.7361 6.44932 23.1694 1.01604 29.8717 1.01604C36.574 1.01604 42.0073 6.44932 42.0073 13.1516C42.0073 19.8539 36.574 25.2872 29.8717 25.2872C23.1694 25.2872 17.7361 19.8539 17.7361 13.1516ZM29.8717 0.81604C23.059 0.81604 17.5361 6.33886 17.5361 13.1516C17.5361 15.9092 18.441 18.4554 19.9699 20.5096L15.2233 28.7451C15.2062 28.7749 15.2055 28.8113 15.2215 28.8417C15.2375 28.8721 15.268 28.8921 15.3023 28.8947L20.5363 29.2989L23.5069 33.6235C23.5264 33.6518 23.559 33.6682 23.5933 33.6668C23.6276 33.6655 23.6588 33.6466 23.676 33.6168L28.4109 25.4016C28.89 25.4581 29.3774 25.4872 29.8717 25.4872C30.3657 25.4872 30.8528 25.4581 31.3316 25.4017L36.0665 33.6168C36.0836 33.6466 36.1148 33.6655 36.1492 33.6668C36.1835 33.6682 36.2161 33.6518 36.2355 33.6235L39.2062 29.2989L44.4402 28.8947C44.4745 28.8921 44.5049 28.8721 44.521 28.8417C44.537 28.8113 44.5363 28.7749 44.5192 28.7451L39.773 20.5103C41.3022 18.4559 42.2073 15.9095 42.2073 13.1516C42.2073 6.33886 36.6844 0.81604 29.8717 0.81604ZM28.1958 25.3743C24.9094 24.9279 22.0344 23.1872 20.101 20.6826L15.4758 28.7076L20.5993 29.1032C20.6295 29.1055 20.657 29.1214 20.6741 29.1463L23.5819 33.3795L28.1958 25.3743ZM36.1605 33.3795L31.5467 25.3744C34.8332 24.9282 37.7083 23.1878 39.6418 20.6832L44.2667 28.7076L39.1431 29.1032C39.113 29.1055 39.0855 29.1214 39.0684 29.1463L36.1605 33.3795ZM23.8533 13.153C23.8533 9.82943 26.5476 7.13518 29.8711 7.13518C33.1946 7.13518 35.8889 9.82943 35.8889 13.153C35.8889 16.4765 33.1946 19.1707 29.8711 19.1707C26.5476 19.1707 23.8533 16.4765 23.8533 13.153ZM29.8711 6.93518C26.4371 6.93518 23.6533 9.71898 23.6533 13.153C23.6533 16.5869 26.4371 19.3707 29.8711 19.3707C33.3051 19.3707 36.0889 16.5869 36.0889 13.153C36.0889 9.71898 33.3051 6.93518 29.8711 6.93518Z" fill="black"/>
<path d="M19.9699 20.5096L20.4898 20.8092C20.6093 20.6018 20.5941 20.3433 20.4512 20.1513L19.9699 20.5096ZM15.2233 28.7451L14.7035 28.4455L14.7035 28.4455L15.2233 28.7451ZM15.2215 28.8417L14.6908 29.1217H14.6908L15.2215 28.8417ZM15.3023 28.8947L15.3485 28.2965H15.3485L15.3023 28.8947ZM20.5363 29.2989L21.0308 28.9592C20.9281 28.8097 20.7633 28.7147 20.5825 28.7007L20.5363 29.2989ZM23.5069 33.6235L23.0124 33.9633L23.0124 33.9633L23.5069 33.6235ZM23.5933 33.6668L23.617 34.2664L23.617 34.2664L23.5933 33.6668ZM23.676 33.6168L23.1562 33.3172L23.1561 33.3173L23.676 33.6168ZM28.4109 25.4016L28.4812 24.8057C28.243 24.7776 28.0109 24.8941 27.8911 25.102L28.4109 25.4016ZM31.3316 25.4017L31.8515 25.1021C31.7317 24.8942 31.4996 24.7777 31.2614 24.8058L31.3316 25.4017ZM36.0665 33.6168L36.5863 33.3172L36.5863 33.3172L36.0665 33.6168ZM36.1492 33.6668L36.1254 34.2664L36.1255 34.2664L36.1492 33.6668ZM36.2355 33.6235L36.7301 33.9633L36.7301 33.9633L36.2355 33.6235ZM39.2062 29.2989L39.16 28.7007C38.9792 28.7147 38.8143 28.8097 38.7116 28.9592L39.2062 29.2989ZM44.4402 28.8947L44.394 28.2965H44.394L44.4402 28.8947ZM44.521 28.8417L45.0516 29.1217L45.0517 29.1216L44.521 28.8417ZM44.5192 28.7451L45.039 28.4455L45.039 28.4455L44.5192 28.7451ZM39.773 20.5103L39.2917 20.152C39.1488 20.344 39.1336 20.6025 39.2531 20.8099L39.773 20.5103ZM28.1958 25.3743L28.7156 25.6739C28.8154 25.5007 28.8225 25.2892 28.7344 25.1098C28.6463 24.9304 28.4746 24.8066 28.2766 24.7797L28.1958 25.3743ZM20.101 20.6826L20.576 20.3159C20.4537 20.1575 20.2604 20.0705 20.0607 20.0839C19.861 20.0974 19.6812 20.2095 19.5812 20.3829L20.101 20.6826ZM15.4758 28.7076L14.956 28.4079C14.8531 28.5865 14.849 28.8053 14.9451 28.9875C15.0413 29.1697 15.2242 29.2899 15.4296 29.3058L15.4758 28.7076ZM20.5993 29.1032L20.6456 28.505L20.6455 28.505L20.5993 29.1032ZM20.6741 29.1463L20.1795 29.486L20.1795 29.486L20.6741 29.1463ZM23.5819 33.3795L23.0874 33.7192C23.2041 33.8891 23.3997 33.9872 23.6057 33.979C23.8116 33.9709 23.9989 33.8577 24.1018 33.6791L23.5819 33.3795ZM31.5467 25.3744L31.466 24.7798C31.268 24.8067 31.0963 24.9305 31.0082 25.1099C30.9201 25.2893 30.9271 25.5008 31.0269 25.674L31.5467 25.3744ZM36.1605 33.3795L35.6407 33.6791C35.7436 33.8577 35.9309 33.9709 36.1368 33.979C36.3427 33.9872 36.5384 33.8891 36.6551 33.7192L36.1605 33.3795ZM39.6418 20.6832L40.1617 20.3836C40.0617 20.2102 39.8819 20.0981 39.6822 20.0846C39.4825 20.0711 39.2892 20.1581 39.1669 20.3166L39.6418 20.6832ZM44.2667 28.7076L44.3129 29.3058C44.5183 29.2899 44.7012 29.1697 44.7973 28.9875C44.8935 28.8053 44.8894 28.5865 44.7865 28.4079L44.2667 28.7076ZM39.1431 29.1032L39.0969 28.505L39.0969 28.505L39.1431 29.1032ZM39.0684 29.1463L38.5739 28.8065L38.5738 28.8066L39.0684 29.1463ZM29.8717 0.41604C22.838 0.41604 17.1361 6.11794 17.1361 13.1516H18.3361C18.3361 6.78069 23.5008 1.61604 29.8717 1.61604V0.41604ZM42.6073 13.1516C42.6073 6.11794 36.9053 0.41604 29.8717 0.41604V1.61604C36.2426 1.61604 41.4073 6.78069 41.4073 13.1516H42.6073ZM29.8717 25.8872C36.9053 25.8872 42.6073 20.1853 42.6073 13.1516H41.4073C41.4073 19.5225 36.2426 24.6872 29.8717 24.6872V25.8872ZM17.1361 13.1516C17.1361 20.1853 22.838 25.8872 29.8717 25.8872V24.6872C23.5008 24.6872 18.3361 19.5225 18.3361 13.1516H17.1361ZM18.1361 13.1516C18.1361 6.67023 23.3903 1.41604 29.8717 1.41604V0.21604C22.7276 0.21604 16.9361 6.00749 16.9361 13.1516H18.1361ZM20.4512 20.1513C18.9967 18.1971 18.1361 15.7757 18.1361 13.1516H16.9361C16.9361 16.0426 17.8852 18.7136 19.4886 20.8678L20.4512 20.1513ZM19.4501 20.21L14.7035 28.4455L15.7432 29.0447L20.4898 20.8092L19.4501 20.21ZM14.7035 28.4455C14.5834 28.6538 14.5787 28.9091 14.6908 29.1217L15.7522 28.5617C15.8323 28.7136 15.8289 28.896 15.7432 29.0447L14.7035 28.4455ZM14.6908 29.1217C14.803 29.3343 15.0164 29.4745 15.2561 29.493L15.3485 28.2965C15.5196 28.3097 15.6721 28.4099 15.7522 28.5617L14.6908 29.1217ZM15.2561 29.493L20.4901 29.8971L20.5825 28.7007L15.3485 28.2965L15.2561 29.493ZM20.0417 29.6386L23.0124 33.9633L24.0015 33.2838L21.0308 28.9592L20.0417 29.6386ZM23.0124 33.9633C23.1485 34.1614 23.3768 34.2758 23.617 34.2664L23.5696 33.0673C23.7412 33.0605 23.9042 33.1423 24.0015 33.2838L23.0124 33.9633ZM23.617 34.2664C23.8572 34.2569 24.0758 34.1248 24.1958 33.9164L23.1561 33.3173C23.2419 33.1684 23.398 33.0741 23.5696 33.0673L23.617 34.2664ZM24.1958 33.9165L28.9307 25.7012L27.8911 25.102L23.1562 33.3172L24.1958 33.9165ZM29.8717 24.8872C29.401 24.8872 28.937 24.8595 28.4812 24.8057L28.3406 25.9974C28.8429 26.0567 29.3539 26.0872 29.8717 26.0872V24.8872ZM31.2614 24.8058C30.8058 24.8595 30.3421 24.8872 29.8717 24.8872V26.0872C30.3892 26.0872 30.8998 26.0567 31.4019 25.9975L31.2614 24.8058ZM36.5863 33.3172L31.8515 25.1021L30.8118 25.7013L35.5466 33.9165L36.5863 33.3172ZM36.1729 33.0673C36.3445 33.0741 36.5006 33.1684 36.5863 33.3172L35.5466 33.9165C35.6667 34.1248 35.8852 34.2569 36.1254 34.2664L36.1729 33.0673ZM35.741 33.2838C35.8382 33.1423 36.0013 33.0605 36.1728 33.0673L36.1255 34.2664C36.3657 34.2758 36.594 34.1614 36.7301 33.9633L35.741 33.2838ZM38.7116 28.9592L35.741 33.2838L36.7301 33.9633L39.7008 29.6386L38.7116 28.9592ZM44.394 28.2965L39.16 28.7007L39.2524 29.8971L44.4864 29.493L44.394 28.2965ZM43.9903 28.5617C44.0704 28.4099 44.2228 28.3097 44.394 28.2965L44.4864 29.493C44.7261 29.4745 44.9395 29.3343 45.0516 29.1217L43.9903 28.5617ZM43.9993 29.0447C43.9136 28.896 43.9102 28.7136 43.9903 28.5618L45.0517 29.1216C45.1638 28.909 45.159 28.6538 45.039 28.4455L43.9993 29.0447ZM39.2531 20.8099L43.9993 29.0447L45.039 28.4455L40.2928 20.2106L39.2531 20.8099ZM41.6073 13.1516C41.6073 15.776 40.7465 18.1977 39.2917 20.152L40.2542 20.8685C41.858 18.7142 42.8073 16.0429 42.8073 13.1516H41.6073ZM29.8717 1.41604C36.3531 1.41604 41.6073 6.67023 41.6073 13.1516H42.8073C42.8073 6.00749 37.0158 0.21604 29.8717 0.21604V1.41604ZM28.2766 24.7797C25.1516 24.3553 22.4163 22.7 20.576 20.3159L19.6261 21.0492C21.6526 23.6744 24.6672 25.5005 28.115 25.9688L28.2766 24.7797ZM15.9956 29.0072L20.6209 20.9822L19.5812 20.3829L14.956 28.4079L15.9956 29.0072ZM20.6455 28.505L15.522 28.1093L15.4296 29.3058L20.5531 29.7014L20.6455 28.505ZM21.1686 28.8066C21.0488 28.6321 20.8565 28.5213 20.6456 28.505L20.5531 29.7014C20.4025 29.6898 20.2651 29.6106 20.1795 29.486L21.1686 28.8066ZM24.0765 33.0398L21.1686 28.8066L20.1795 29.486L23.0874 33.7192L24.0765 33.0398ZM27.676 25.0747L23.0621 33.0799L24.1018 33.6791L28.7156 25.6739L27.676 25.0747ZM31.0269 25.674L35.6407 33.6791L36.6804 33.0799L32.0666 25.0748L31.0269 25.674ZM39.1669 20.3166C37.3264 22.7005 34.591 24.3556 31.466 24.7798L31.6275 25.9689C35.0753 25.5009 38.0901 23.675 40.1167 21.0499L39.1669 20.3166ZM44.7865 28.4079L40.1617 20.3836L39.122 20.9829L43.7468 29.0072L44.7865 28.4079ZM39.1893 29.7014L44.3129 29.3058L44.2205 28.1093L39.0969 28.505L39.1893 29.7014ZM39.563 29.486C39.4774 29.6106 39.34 29.6898 39.1894 29.7014L39.0969 28.505C38.886 28.5213 38.6937 28.6321 38.5739 28.8065L39.563 29.486ZM36.6551 33.7192L39.563 29.486L38.5738 28.8066L35.666 33.0398L36.6551 33.7192ZM29.8711 6.53518C26.2162 6.53518 23.2533 9.49806 23.2533 13.153H24.4533C24.4533 10.1608 26.8789 7.73518 29.8711 7.73518V6.53518ZM36.4889 13.153C36.4889 9.49806 33.526 6.53518 29.8711 6.53518V7.73518C32.8633 7.73518 35.2889 10.1608 35.2889 13.153H36.4889ZM29.8711 19.7707C33.526 19.7707 36.4889 16.8079 36.4889 13.153H35.2889C35.2889 16.1451 32.8633 18.5707 29.8711 18.5707V19.7707ZM23.2533 13.153C23.2533 16.8079 26.2162 19.7707 29.8711 19.7707V18.5707C26.8789 18.5707 24.4533 16.1451 24.4533 13.153H23.2533ZM24.2533 13.153C24.2533 10.0503 26.7685 7.53518 29.8711 7.53518V6.33518C26.1057 6.33518 23.0533 9.3876 23.0533 13.153H24.2533ZM29.8711 18.7707C26.7685 18.7707 24.2533 16.2556 24.2533 13.153H23.0533C23.0533 16.9183 26.1057 19.9707 29.8711 19.9707V18.7707ZM35.4889 13.153C35.4889 16.2556 32.9737 18.7707 29.8711 18.7707V19.9707C33.6365 19.9707 36.6889 16.9183 36.6889 13.153H35.4889ZM29.8711 7.53518C32.9737 7.53518 35.4889 10.0503 35.4889 13.153H36.6889C36.6889 9.3876 33.6365 6.33518 29.8711 6.33518V7.53518Z" fill="black"/>
</svg>
