<svg width="20" height="20" viewBox="0 0 20 20" fill="none" xmlns="http://www.w3.org/2000/svg">
<path d="M17.3134 7.02912C17.4223 6.85893 17.4855 6.66266 17.4968 6.45985C17.508 6.25704 17.4669 6.05477 17.3776 5.87317C17.307 5.72851 17.2016 5.60444 17.0712 5.51254C16.9408 5.42063 16.7896 5.36389 16.6318 5.34763C16.7697 5.14456 16.8403 4.902 16.8334 4.65524C16.8264 4.40848 16.7424 4.1704 16.5934 3.97567C16.4108 3.76846 16.1681 3.62604 15.9005 3.56917C15.6329 3.5123 15.3544 3.54394 15.1057 3.65949C14.9469 3.36747 14.6826 3.15002 14.3688 3.05334C14.0748 2.97815 13.7654 2.99437 13.4805 3.0999C13.487 2.89634 13.4467 2.69406 13.3627 2.50919C13.2788 2.32432 13.1536 2.16198 12.9972 2.03513C12.8091 1.8784 12.5836 1.77529 12.3437 1.73631C12.1037 1.69733 11.8579 1.72388 11.6313 1.81325C11.4982 1.54327 11.2909 1.31857 11.0346 1.16654C10.7783 1.01451 10.4841 0.94172 10.1878 0.957053C9.93893 0.939038 9.68906 0.973376 9.45375 1.05793C9.21844 1.14248 9.00273 1.27545 8.82003 1.44855C8.54737 1.72305 8.35616 2.07024 8.2683 2.45032C8.07065 2.35937 7.8489 2.33804 7.63803 2.38969C7.42716 2.44135 7.23918 2.56305 7.10375 2.73559C6.95719 2.92024 6.87935 3.15168 6.88398 3.38909C6.38873 3.24704 5.61608 3.13356 5.11661 3.59414C4.90534 3.77803 4.75095 4.02035 4.67212 4.29176C4.5933 4.56318 4.59341 4.85205 4.67246 5.1234C4.3795 5.11858 4.09178 5.20277 3.84602 5.36524C3.70482 5.46804 3.59538 5.60978 3.53058 5.77377C3.31034 5.73656 3.08426 5.77904 2.89156 5.89383C2.69885 6.00862 2.55166 6.18848 2.47553 6.40223C2.40726 6.55551 2.37517 6.72295 2.38184 6.89113C2.38852 7.05931 2.43376 7.22356 2.51395 7.37074C2.62185 7.54664 2.78401 7.68111 2.97501 7.75305C2.94571 7.92416 2.97386 8.10034 3.05492 8.25315C3.22859 8.57364 3.61664 8.75952 4.231 8.82017L5.53194 19.0476H14.9044L16.2023 8.83426C16.7333 8.80843 17.5109 8.61786 17.6089 7.97767C17.6314 7.8073 17.6166 7.63399 17.5655 7.47014C17.5145 7.30628 17.4286 7.15595 17.3138 7.0299M6.13515 18.3476L4.95101 9.017H8.27906L8.7551 18.3476H6.13515ZM14.3008 18.3476H11.4665L11.9425 9.017H15.4869L14.3008 18.3476ZM16.0617 8.31655H15.6006C15.6016 8.31084 15.603 8.30521 15.6048 8.29972C15.611 8.26059 15.6137 8.22146 15.616 8.18233C15.6204 8.14337 15.6215 8.10408 15.6191 8.06493C15.6152 8.0258 15.6102 7.98315 15.6041 7.94167C15.5955 7.89959 15.5826 7.85854 15.5656 7.81918C15.5511 7.77658 15.5294 7.73686 15.5015 7.70179C15.4773 7.66207 15.446 7.6273 15.4093 7.59926C15.375 7.56735 15.3361 7.54095 15.294 7.521C15.2548 7.49779 15.2129 7.4799 15.1691 7.46778C15.0865 7.44139 15.0003 7.42819 14.9136 7.42865C14.8365 7.42668 14.7593 7.43205 14.6831 7.44469C14.68 7.41808 14.6758 7.39187 14.6712 7.36643C14.6572 7.30704 14.6374 7.24923 14.612 7.19386C14.5829 7.14031 14.5489 7.08962 14.5106 7.04242C14.4706 6.99438 14.4234 6.95304 14.3707 6.91994L14.2939 6.86828C14.273 6.85826 14.2516 6.8495 14.2297 6.84207L14.1014 6.79433C14.0452 6.77444 13.9869 6.7613 13.9278 6.75519C13.8163 6.74735 13.7044 6.76486 13.6004 6.80646C13.5503 6.82632 13.5029 6.85262 13.4594 6.88472C13.4179 6.91576 13.3793 6.9506 13.3441 6.98881C13.3095 7.02553 13.2785 7.06564 13.2515 7.10855C13.2249 7.1497 13.2009 7.19257 13.1797 7.2369C13.1394 7.32386 13.1109 7.41602 13.0952 7.51083C13.194 7.36249 13.3197 7.23472 13.4655 7.13438C13.5265 7.09153 13.5956 7.06204 13.6683 7.04776C13.7411 7.03348 13.8159 7.03473 13.8882 7.05142C13.9166 7.06433 13.9719 7.07373 13.9785 7.08155L14.1006 7.14221C14.1209 7.1512 14.1405 7.16153 14.1594 7.17312L14.1894 7.2056C14.2067 7.22947 14.2374 7.23417 14.2505 7.26586C14.2687 7.29077 14.2853 7.31692 14.3001 7.34413C14.3246 7.4034 14.3368 7.46724 14.3358 7.53157C14.3367 7.56185 14.3345 7.59214 14.3293 7.62196L14.325 7.6517C14.3208 7.68205 14.3247 7.71299 14.3362 7.74131C14.3445 7.76272 14.3569 7.78225 14.3727 7.79877C14.3884 7.81529 14.4072 7.8285 14.428 7.83762C14.4488 7.84674 14.4711 7.8516 14.4937 7.85193C14.5163 7.85226 14.5388 7.84805 14.5598 7.83953C14.6181 7.81661 14.6781 7.79855 14.7392 7.78553C14.8 7.76915 14.8621 7.75828 14.9248 7.75305C14.9834 7.74613 15.0426 7.74772 15.1008 7.75775C15.1284 7.75936 15.1556 7.7653 15.1814 7.77536C15.2075 7.78152 15.2323 7.79253 15.2544 7.80784C15.2789 7.81933 15.3007 7.83585 15.3186 7.85636C15.3423 7.87371 15.362 7.89599 15.3766 7.92171C15.3954 7.946 15.4116 7.97223 15.425 7.99997C15.4362 8.0305 15.4492 8.06024 15.4634 8.09154C15.4757 8.12413 15.4849 8.15779 15.4911 8.19211L15.5165 8.29659C15.5165 8.30207 15.5184 8.30794 15.5188 8.31342H4.48381C3.74343 8.28094 3.55363 8.08489 3.50484 8.00036C3.48541 7.95212 3.47695 7.90003 3.48008 7.84799C3.4832 7.79595 3.49784 7.7453 3.52289 7.69983C3.54024 7.67062 3.55176 7.63822 3.5568 7.60447C3.56184 7.57072 3.5603 7.53629 3.55227 7.50315C3.54425 7.47001 3.52989 7.4388 3.51001 7.41131C3.49014 7.38383 3.46514 7.3606 3.43645 7.34295C3.40577 7.32427 3.37163 7.31228 3.33617 7.30773C3.26089 7.30252 3.18761 7.28085 3.1213 7.24418C3.055 7.20751 2.99724 7.15671 2.95196 7.09525C2.91684 7.01374 2.89919 6.92555 2.90018 6.83654C2.90118 6.74754 2.92079 6.65977 2.95772 6.5791C3.1041 6.16939 3.58936 6.30244 3.64392 6.3177C3.70914 6.33751 3.77941 6.33013 3.83928 6.29718C3.89916 6.26424 3.94373 6.20842 3.9632 6.142C3.96684 6.12915 3.96966 6.11608 3.97165 6.10287C3.97656 6.03999 3.99475 5.97893 4.02499 5.92388C4.05523 5.86883 4.0968 5.8211 4.14686 5.78395C4.41809 5.64499 4.72752 5.60362 5.02478 5.66655C5.07307 5.67582 5.12296 5.67068 5.16845 5.65176C5.21394 5.63285 5.2531 5.60095 5.28122 5.55991C5.30934 5.51887 5.32523 5.47043 5.32697 5.42042C5.32871 5.3704 5.31624 5.32094 5.29104 5.27797C5.1592 5.077 5.10398 4.8339 5.13575 4.59437C5.16752 4.35485 5.28409 4.13538 5.46355 3.97724C5.89041 3.58083 6.82174 3.87941 7.14487 4.02967C7.19443 4.05234 7.24981 4.0583 7.30294 4.04668C7.35606 4.03507 7.40416 4.00647 7.44022 3.96508C7.47628 3.92368 7.49842 3.87163 7.50341 3.81653C7.50841 3.76142 7.496 3.70613 7.46799 3.6587C7.41662 3.56459 7.39324 3.45729 7.40067 3.34988C7.40811 3.24247 7.44604 3.13957 7.50987 3.05373C7.79149 2.68628 8.31172 3.04199 8.33285 3.05686C8.37105 3.08407 8.41584 3.10008 8.46236 3.10316C8.50887 3.10623 8.55532 3.09625 8.59665 3.07429C8.63798 3.05234 8.6726 3.01925 8.69675 2.97864C8.72089 2.93804 8.73363 2.89146 8.73358 2.84398C8.75 2.45889 8.90847 2.09429 9.17735 1.82304C9.31118 1.69634 9.46971 1.59978 9.64262 1.53963C9.81554 1.47949 9.99895 1.45712 10.1809 1.47398H10.2063C10.4381 1.45874 10.6678 1.52624 10.856 1.66486C11.0442 1.80348 11.1791 2.00457 11.2375 2.23353C11.2451 2.26682 11.2592 2.29826 11.2788 2.32601C11.2984 2.35377 11.3232 2.37731 11.3517 2.39527C11.3803 2.41324 11.4121 2.42528 11.4452 2.43069C11.4783 2.43611 11.5122 2.4348 11.5449 2.42684C11.5746 2.4197 11.6028 2.40725 11.6282 2.39005C11.7868 2.28687 11.9726 2.23581 12.1605 2.24379C12.3485 2.25177 12.5295 2.3184 12.6791 2.43467C12.8179 2.55602 12.9147 2.7197 12.9552 2.90147C12.9956 3.08323 12.9774 3.27342 12.9034 3.44387C12.8804 3.49537 12.8745 3.55311 12.8867 3.60832C12.8988 3.66353 12.9283 3.7132 12.9707 3.74977C13.0131 3.78634 13.0661 3.80783 13.1215 3.81095C13.177 3.81408 13.232 3.79868 13.278 3.7671C13.5589 3.57722 13.8989 3.49999 14.2324 3.55031C14.3555 3.59486 14.4669 3.66733 14.5584 3.76225C14.6499 3.85716 14.7189 3.97203 14.7603 4.09815C14.7881 4.16138 14.8394 4.21079 14.903 4.23552C14.9665 4.26024 15.0371 4.25827 15.0992 4.23003C15.1061 4.2269 15.1123 4.22377 15.1188 4.22024C15.1472 4.20381 15.8246 3.82893 16.2023 4.29851C16.5996 4.79587 15.9333 5.42941 15.9064 5.45563C15.8637 5.49564 15.8355 5.54933 15.8268 5.60782C15.818 5.66631 15.8291 5.72609 15.8582 5.77729C15.8873 5.82849 15.9327 5.86803 15.9869 5.88937C16.0411 5.91072 16.1008 5.91259 16.1562 5.89469C16.1796 5.88725 16.7356 5.71194 16.9246 6.1013C16.9836 6.2262 17.003 6.36671 16.98 6.50332C16.957 6.63992 16.8928 6.76584 16.7963 6.86359C16.7701 6.88991 16.7498 6.92164 16.7367 6.95665C16.7235 6.99166 16.718 7.02913 16.7203 7.06652C16.7226 7.10391 16.7328 7.14036 16.7502 7.1734C16.7675 7.20644 16.7916 7.2353 16.8209 7.25804C16.9162 7.33172 16.992 7.42837 17.0416 7.53929C17.0911 7.65022 17.1129 7.77194 17.1048 7.89354C17.0537 8.22537 16.3829 8.32398 16.0617 8.31381M8.57913 7.75892C8.62177 7.83953 8.65788 7.92355 8.68709 8.01015L8.59872 7.90919C8.57215 7.87495 8.54243 7.84337 8.50997 7.81488L8.41392 7.73231C8.38145 7.70783 8.34715 7.68598 8.31133 7.66696C8.27864 7.64384 8.24242 7.62639 8.20414 7.61531C8.16859 7.60033 8.13182 7.58855 8.09425 7.58009L7.98168 7.56052H7.86642C7.78971 7.56592 7.7136 7.57809 7.63896 7.59692C7.56275 7.61647 7.48832 7.64266 7.4165 7.67518C7.3428 7.70562 7.27118 7.74105 7.20211 7.78123C7.13417 7.81974 7.06918 7.86343 7.0077 7.91193C6.97941 7.93468 6.94534 7.94876 6.90947 7.95251C6.87361 7.95627 6.83744 7.94954 6.80519 7.93312C6.77295 7.9167 6.74596 7.89126 6.72739 7.85979C6.70882 7.82832 6.69943 7.79211 6.70033 7.7554V7.72566C6.70267 7.66705 6.701 7.60834 6.69534 7.54996C6.68888 7.489 6.67705 7.42875 6.65999 7.36995C6.62707 7.25741 6.57262 7.15261 6.49977 7.0616C6.46449 7.01548 6.42326 6.97441 6.37721 6.9395C6.33278 6.90515 6.28502 6.87551 6.23467 6.85107C6.17666 6.8227 6.117 6.798 6.05601 6.77711C5.93939 6.74228 5.81759 6.72902 5.69638 6.73798C5.63309 6.74223 5.57026 6.75179 5.5085 6.76654C5.37979 6.80201 5.25492 6.85065 5.13582 6.91172C4.88509 7.04965 4.65192 7.2184 4.44155 7.41417C4.57923 7.14175 4.77244 6.9024 5.00826 6.71215C5.25786 6.49917 5.57211 6.38069 5.89771 6.37679C5.98246 6.37764 6.0669 6.38721 6.14975 6.40536C6.22832 6.42337 6.3054 6.44758 6.38028 6.47775C6.46249 6.51303 6.54058 6.55752 6.61311 6.61041C6.68523 6.66151 6.7508 6.72159 6.80829 6.78924C6.92406 6.92326 7.00654 7.08363 7.04881 7.25686C7.06376 7.31347 7.07442 7.37116 7.0807 7.42943C7.15196 7.3957 7.22538 7.36693 7.30047 7.34334C7.39312 7.31553 7.48801 7.29615 7.58402 7.28543C7.6818 7.27398 7.78055 7.27398 7.87833 7.28543L8.02471 7.31595C8.07235 7.33082 8.11846 7.35117 8.16418 7.36917C8.20971 7.38865 8.2528 7.41361 8.29251 7.44352C8.33419 7.46863 8.37188 7.50003 8.40431 7.53665C8.43917 7.56879 8.47131 7.60388 8.50037 7.64153L8.57913 7.75892ZM12.1469 4.84322C12.1608 4.90159 12.1688 4.96125 12.1707 5.02127C12.1749 5.13625 12.1575 5.25098 12.1196 5.35937C12.0943 5.1556 12.0132 4.96319 11.8857 4.80409C11.8271 4.74105 11.7553 4.69246 11.6755 4.66204C11.6386 4.64686 11.5998 4.63672 11.5602 4.63191C11.5113 4.62286 11.4619 4.61672 11.4123 4.61352L11.2894 4.6186C11.2491 4.62517 11.2093 4.63379 11.1699 4.64443C11.1332 4.65377 11.0981 4.66825 11.0654 4.68748C11.0331 4.70481 11.0035 4.72682 10.9774 4.75283C10.9209 4.80667 10.8759 4.87164 10.8448 4.94379C10.8271 4.98288 10.8123 5.02331 10.8006 5.06471C10.7884 5.10384 10.7791 5.15627 10.773 5.18484L10.7661 5.21967C10.7611 5.24413 10.7514 5.26736 10.7376 5.28801C10.7238 5.30867 10.7061 5.32636 10.6856 5.34006C10.6651 5.35376 10.6421 5.3632 10.618 5.36786C10.5939 5.37252 10.5692 5.37229 10.5451 5.36719L10.3811 5.33158L10.2209 5.31515C10.1188 5.30822 10.0164 5.32151 9.91926 5.35428C9.8213 5.39488 9.73651 5.46267 9.67452 5.54994C9.60376 5.65034 9.55226 5.76346 9.52276 5.88334C9.48995 5.75051 9.4938 5.61103 9.5339 5.48028C9.55568 5.41035 9.58809 5.34433 9.62995 5.28463C9.67555 5.22283 9.72949 5.16789 9.79017 5.12145C9.85203 5.07808 9.91988 5.04431 9.99149 5.02127C10.061 4.99739 10.1325 4.9801 10.2051 4.96962C10.2762 4.96236 10.3478 4.96066 10.4191 4.96453C10.4329 4.90075 10.4521 4.8383 10.4764 4.77787C10.5279 4.64876 10.608 4.53348 10.7104 4.44095C10.7627 4.39286 10.8214 4.35255 10.8848 4.3212C10.9468 4.29003 11.0125 4.26727 11.0804 4.25351C11.145 4.24022 11.2107 4.23327 11.2767 4.23277C11.3447 4.23864 11.3919 4.23785 11.473 4.25116C11.5294 4.2611 11.5849 4.27549 11.639 4.2942C11.7033 4.31585 11.7646 4.3457 11.8215 4.38303C11.9336 4.45116 12.0244 4.5502 12.0835 4.66869C12.1117 4.72351 12.1325 4.78195 12.1454 4.84244M11.6459 6.50436C11.7655 6.62148 11.8561 6.76583 11.9103 6.92556C11.9645 7.08529 11.9807 7.25583 11.9575 7.42317C11.8828 7.29605 11.7997 7.17421 11.7089 7.05846C11.6688 7.00841 11.626 6.96072 11.5806 6.91563C11.5325 6.87122 11.4811 6.83066 11.4269 6.79433C11.3739 6.76336 11.317 6.7398 11.2579 6.72428C11.2266 6.71446 11.1944 6.70829 11.1618 6.70589L11.0976 6.69767C11.1107 6.7008 11.0727 6.7008 11.0631 6.7008C10.9959 6.70016 10.9291 6.70979 10.8648 6.72937C10.7976 6.74706 10.7324 6.77198 10.6704 6.80372C10.5487 6.86706 10.433 6.94159 10.3246 7.02638C10.1256 7.1829 9.98419 7.31047 9.98419 7.31047C10.0087 7.15327 10.0646 7.00289 10.1486 6.86868C10.2329 6.72261 10.3448 6.59505 10.4779 6.4934C10.5577 6.43193 10.6456 6.38238 10.7392 6.34627C10.8394 6.30608 10.9461 6.28499 11.0538 6.28405C11.0858 6.2821 11.1179 6.2821 11.1499 6.28405L11.2141 6.29383C11.2674 6.30066 11.3197 6.31379 11.37 6.33296C11.4721 6.36991 11.5661 6.4268 11.6467 6.50045L11.6459 6.50436ZM6.62925 5.20323C6.52391 5.29801 6.42338 5.39819 6.32803 5.50337C6.33005 5.34945 6.36742 5.19815 6.43715 5.06157C6.50619 4.91215 6.60713 4.78033 6.7326 4.67574C6.88674 4.54509 7.07736 4.46718 7.27742 4.45308H7.29701H7.36041L7.42419 4.45542C7.47828 4.46036 7.53195 4.46926 7.58479 4.48203C7.68017 4.50869 7.7709 4.55027 7.85374 4.6053C7.99144 4.69839 8.1042 4.82494 8.18185 4.97353C8.25848 5.10707 8.30114 5.25799 8.30595 5.41259C8.20961 5.31015 8.10694 5.21409 7.99858 5.12497C7.95248 5.08584 7.90061 5.05218 7.84874 5.01696C7.79409 4.984 7.73765 4.95422 7.67969 4.92774C7.62138 4.90518 7.56102 4.88853 7.49949 4.87805C7.46952 4.87805 7.45492 4.86905 7.41304 4.86905H7.31891L7.307 4.871C7.17747 4.8803 7.05135 4.91751 6.93701 4.98018C6.82545 5.04328 6.72108 5.11874 6.62579 5.20519M14.8652 5.08779C14.9503 5.23206 14.9988 5.39555 15.0066 5.56363C15.0197 5.71772 14.9947 5.87268 14.934 6.01443C14.8903 5.87984 14.8382 5.74822 14.778 5.62038C14.7523 5.56637 14.7204 5.51159 14.6881 5.4572C14.6527 5.40364 14.6142 5.35229 14.5728 5.30341C14.5296 5.25735 14.4818 5.21591 14.4303 5.17975C14.4038 5.16684 14.3919 5.15314 14.3565 5.13397L14.3004 5.10618L14.2735 5.09327L14.262 5.08936C14.1411 5.04163 14.0116 5.02043 13.882 5.02714C13.7547 5.03568 13.6287 5.05852 13.5063 5.09523C13.3723 5.13542 13.2405 5.18257 13.1113 5.23649C13.1779 5.09821 13.2753 4.97764 13.3956 4.88431C13.5225 4.7779 13.6713 4.70205 13.8309 4.66243C13.9252 4.6383 14.0224 4.62854 14.1195 4.63347C14.2216 4.63959 14.3221 4.66163 14.4176 4.69882L14.4357 4.70548L14.4576 4.71526L14.4645 4.71878L14.4925 4.73365L14.5479 4.76261C14.5943 4.79068 14.6387 4.82206 14.6808 4.85652C14.7556 4.92196 14.8196 4.9991 14.8706 5.08505" fill="white"/>
</svg>
