<svg width="78" height="78" viewBox="0 0 78 78" fill="none" xmlns="http://www.w3.org/2000/svg">
<mask id="mask0_2250_34202" style="mask-type:alpha" maskUnits="userSpaceOnUse" x="0" y="0" width="78" height="78">
<rect width="78" height="78" fill="#D9D9D9"/>
</mask>
<g mask="url(#mask0_2250_34202)">
<path fill-rule="evenodd" clip-rule="evenodd" d="M52.044 16.2241L52.0438 16.2227C51.0059 16.4262 50.0045 16.765 49.0642 17.2247L49.0835 17.043L48.9965 17.2581C48.5979 17.4561 48.2106 17.6758 47.8362 17.9162L47.7793 17.9119L47.8185 17.9277C46.0819 19.0474 44.6274 20.6132 43.6445 22.5145V22.5146C43.392 23.0017 43.1702 23.51 42.9829 24.0384C42.8618 23.9357 42.7162 23.8655 42.5444 23.843C41.7999 23.7453 41.2633 24.1095 41.2633 24.1095C42.0292 23.1607 41.6311 21.8387 40.5348 21.4993C39.4065 21.151 38.2018 22.0359 38.2018 22.0359C36.4925 21.0515 35.8155 22.688 35.8155 22.688C35.6964 21.9506 35.1047 21.6201 34.2483 21.6912C33.5091 21.7534 33.0844 22.4979 33.0844 22.4979C32.9796 21.9186 32.626 20.6322 31.0943 20.6002C29.5627 20.5682 29.2357 21.8387 29.2357 21.8387C27.944 21.8564 28.3633 22.9457 28.3633 22.9457C28.3633 22.9457 27.4162 22.3024 26.7677 22.6774C26.1174 23.0523 26.1174 23.8821 26.1174 23.8821C26.1174 23.8821 25.1543 22.3575 23.381 22.8266C21.6077 23.2957 21.9346 24.9784 21.9346 24.9784C20.3479 25.6447 21.2452 26.5865 21.2452 26.5865C19.694 25.6483 19.344 27.7681 19.344 27.7681C18.3471 27.3718 17.0838 27.729 16.6182 28.9444C16.1545 30.1597 17.2348 30.7692 17.2348 30.7692C16.5543 30.7728 15.6285 31.1423 15.872 32.0308C16.1154 32.9174 16.8563 32.9405 16.8563 32.9405C16.6716 33.4363 16.8528 34.147 17.5582 34.4615C17.9709 34.6455 18.5411 34.4573 18.9433 34.2694L22.0058 47.0003C19.621 46.5886 16.9848 44.8709 15.3521 42.6176C15.3805 42.5824 15.4121 42.5474 15.4437 42.5133C15.529 42.4244 15.6285 42.3392 15.7511 42.2521L15.8364 42.1935L15.9305 42.1366C15.9634 42.1147 15.9976 42.0969 16.0332 42.0785L16.0478 42.0709C16.0554 42.0668 16.063 42.0629 16.0705 42.059L16.0706 42.059L16.0706 42.059C16.0858 42.0512 16.1005 42.0436 16.1136 42.0353L16.1438 42.0211C16.2006 41.9944 16.2593 41.966 16.3126 41.9305C16.3783 41.8932 16.4476 41.8487 16.5116 41.7812L16.5311 41.7599C16.5826 41.7066 16.6128 41.6355 16.6164 41.5591C16.62 41.4756 16.5898 41.3956 16.5382 41.337C16.4831 41.2748 16.405 41.2339 16.3179 41.2304C16.2166 41.2251 16.1224 41.2428 16.0318 41.2642C15.9376 41.2944 15.8541 41.3281 15.7759 41.369C15.6231 41.4507 15.4597 41.5431 15.3104 41.6675C15.1771 41.7741 15.0723 41.8861 14.9781 42.0016L14.9545 41.9422C14.9268 41.8726 14.8988 41.8024 14.8697 41.7332C14.7702 41.4987 14.6565 41.2535 14.5339 41.0065C14.4309 40.7933 14.3118 40.5676 14.1608 40.2958C14.0435 40.079 13.9262 39.9049 13.7983 39.7592C13.7592 39.7147 13.7183 39.6721 13.6757 39.6312C13.5957 39.5548 13.482 39.5282 13.3772 39.5601C13.2173 39.6081 13.1266 39.7787 13.1764 39.9439C13.2564 40.2069 13.3861 40.4415 13.5122 40.66C13.6348 40.8786 13.7574 41.0989 13.8765 41.3192C13.8738 41.3166 13.8712 41.3144 13.8685 41.3121C13.8658 41.3099 13.8632 41.3077 13.8605 41.305C13.6881 41.1327 13.5193 40.9425 13.3559 40.7453L13.2883 40.6636L13.2817 40.6554C13.1487 40.4927 13.0119 40.3253 12.8441 40.1767L12.8335 40.1661C12.7517 40.0932 12.638 40.0719 12.5332 40.1074C12.375 40.1625 12.2915 40.3349 12.3466 40.493L12.3484 40.4948C12.4337 40.7435 12.5811 40.9887 12.7855 41.2233C12.9863 41.4596 13.1728 41.6568 13.3541 41.8256C13.4279 41.8959 13.5041 41.9589 13.58 42.0218L13.5801 42.0219L13.5802 42.022L13.5803 42.022L13.5804 42.0221C13.6176 42.0529 13.6549 42.0837 13.6917 42.1153C13.6732 42.1079 13.6544 42.1014 13.6357 42.095L13.6356 42.0949L13.6356 42.0949C13.6094 42.0859 13.5833 42.0769 13.5584 42.0655C13.4909 42.0389 13.4269 42.0033 13.3612 41.966C13.3474 41.9587 13.334 41.9511 13.3212 41.9437L13.321 41.9436L13.3209 41.9436C13.3057 41.9349 13.2911 41.9266 13.2777 41.9198C13.2528 41.9021 13.2262 41.8843 13.1995 41.8683C13.1338 41.8256 13.0716 41.7848 13.0147 41.7315C12.9721 41.6991 12.9319 41.6631 12.8921 41.6275L12.8672 41.6053C12.8464 41.5856 12.8248 41.5667 12.8029 41.5475L12.8029 41.5475L12.8029 41.5475C12.7912 41.5373 12.7795 41.527 12.7677 41.5165C12.7464 41.4999 12.7267 41.4817 12.7069 41.4636C12.697 41.4545 12.6872 41.4454 12.6771 41.4365C12.6238 41.3868 12.5687 41.337 12.5012 41.2926L12.4603 41.2659C12.3786 41.2144 12.2755 41.2055 12.1849 41.2428C12.0321 41.3068 11.9592 41.4827 12.0232 41.6355C12.1352 41.9038 12.3164 42.1366 12.5438 42.309C12.6291 42.3836 12.7251 42.4458 12.8175 42.5044L12.8992 42.5577L12.933 42.5755C13.0449 42.6359 13.1622 42.6963 13.283 42.7407C13.546 42.8438 13.8196 42.9095 14.1021 42.9344L14.1608 42.938L14.1609 42.938C14.2106 42.9415 14.2603 42.9451 14.3118 42.9468H14.3793H14.3877C14.4026 43.0048 14.4282 43.0612 14.465 43.1129C16.3285 45.7446 19.4816 47.7289 22.2598 48.0562L24.1006 55.7083C25.5055 55.8811 26.9117 55.9939 28.315 56.0469L28.3155 56.0493C28.8285 56.0801 29.3955 56.092 30.0155 56.0877C29.5971 57.5379 28.9638 59.3393 28.2857 61.2282C26.3605 60.7453 23.5313 62.5987 26.1081 62.9508C27.6542 63.0644 29.2312 62.3713 29.1518 61.8045C29.9126 59.6879 30.6262 57.6629 31.0676 56.0741C32.8295 56.0422 34.5822 55.9156 36.3172 55.6947C36.8033 55.6474 37.2984 55.5812 37.8013 55.4991C37.6962 56.0164 37.6249 56.5679 37.5505 57.1439L37.5504 57.144L37.5494 57.1518L37.547 57.1705C37.3877 58.4008 37.2072 59.7948 36.6432 61.3594C36.6205 61.4225 36.6111 61.4872 36.6137 61.5505C36.3762 62.1385 38.2191 62.5453 39.1919 62.5196C40.8622 62.4841 40.8711 61.633 40.1212 61.2545C39.5619 60.9738 38.6135 60.8709 37.836 60.971C38.2532 59.5971 38.4108 58.3758 38.5516 57.2797C38.6404 56.5814 38.7257 55.9204 38.8697 55.3465C38.8733 55.3317 38.8763 55.317 38.8787 55.3022C38.9613 55.2856 39.044 55.2687 39.127 55.2514C40.8 54.9358 42.4517 54.5306 44.0743 54.0362L44.4517 48.3335C44.475 48.3498 44.4997 48.3644 44.5257 48.377C44.5808 48.4037 44.6412 48.4215 44.7069 48.4268C46.6043 48.6061 48.2184 48.4844 49.6941 48.0234C51.748 48.5441 53.6261 48.9687 53.7757 48.9142C53.9532 48.8496 54.4197 47.596 54.7563 46.4212C55.0479 46.452 55.4884 45.7712 54.979 45.6113L54.969 45.6122C54.9798 45.5665 54.9901 45.5215 55 45.4773C55.0275 45.5039 55.062 45.5222 55.1037 45.5292C55.3632 45.5719 55.7536 45.026 55.4726 44.7915C55.8334 44.6667 56.174 43.9241 55.4517 43.8555C55.4333 43.8589 55.4156 43.8634 55.3985 43.8686C55.4602 43.5057 55.4688 43.2496 55.3944 43.1904C55.349 43.1542 55.1356 43.0763 54.8003 42.9692C54.7933 42.5399 54.5486 41.8939 54.2556 41.587H54.2574C53.9695 41.2849 53.5466 41.9015 53.2783 42.5163L53.2959 42.5223C53.0174 42.4432 52.7206 42.3602 52.4116 42.275C52.0626 42.0663 51.7191 41.9631 51.5181 41.9159C51.6252 41.383 51.7472 40.8417 51.8635 40.352C54.6146 40.9068 57.3604 40.4698 59.7098 39.2731C59.3276 39.8859 58.8975 40.573 58.4768 41.2402C58.1599 41.4 57.8629 41.3857 57.6333 41.3746C57.4496 41.3658 57.309 41.359 57.2358 41.4452C57.1025 41.6033 57.1594 41.8485 57.5378 41.8912C57.9163 41.9338 58.174 41.7188 58.174 41.7188C57.9152 41.9583 57.6679 42.0528 57.4715 42.1278C57.2876 42.1981 57.1484 42.2512 57.0865 42.3905C57.0261 42.5255 57.2322 42.7885 57.6498 42.6019C58.1757 42.3656 58.4245 41.9409 58.4245 41.9409C58.3204 42.2234 58.0972 42.4292 57.9179 42.5945C57.7544 42.7452 57.6274 42.8623 57.6604 42.9733C57.7262 43.1936 58.0922 43.2025 58.4707 42.6783C58.7974 42.2262 58.845 41.7516 58.8499 41.5615C59.4671 40.5825 60.1091 39.5541 60.5935 38.7756C60.8971 38.5876 61.1925 38.3862 61.4787 38.1721L61.4785 38.1717C63.5795 36.5987 65.1873 34.3355 65.9106 31.5993C65.925 31.5448 65.939 31.4903 65.9525 31.4358C65.9793 31.3433 66.005 31.2502 66.0297 31.1566C66.2678 30.2557 66.3922 29.3513 66.4224 28.4576L66.4206 28.4558V28.4507L66.4222 28.3999L66.4242 28.3723C66.4735 26.4617 66.0645 24.6031 65.276 22.9308C64.5437 21.3761 63.4836 19.9826 62.159 18.8593L62.1591 18.8592C60.8318 17.7326 59.238 16.8762 57.4416 16.4018C55.617 15.92 53.7783 15.8852 52.044 16.2241ZM44.5097 47.4576C44.5929 47.4167 44.6886 47.3976 44.7886 47.4069C45.7378 47.4967 46.6087 47.505 47.4229 47.426C46.1887 47.0884 45.1105 46.7686 44.5691 46.5606L44.5097 47.4576ZM44.8868 41.7609C45.0822 41.1628 45.2889 40.7109 45.4262 40.6477C45.5803 40.5768 46.8915 40.8575 48.5157 41.2565C48.8521 41.2785 49.1359 41.3512 49.31 41.4062C49.5056 40.8511 49.6918 40.2799 49.8535 39.7633C48.0349 39.0565 46.4675 37.9404 45.2316 36.5517L44.8868 41.7609ZM55.207 44.7527L55.2029 44.7497L55.2015 44.7552L55.207 44.7527ZM50.2387 39.9055C50.5318 40.0081 50.831 40.1003 51.136 40.1814L51.1551 40.187C51.2652 40.2161 51.3752 40.2436 51.4853 40.2694C51.3623 40.7873 51.233 41.3625 51.1214 41.9255C50.6483 41.7995 50.1666 41.6736 49.6935 41.5524C49.8896 40.9965 50.0763 40.4242 50.2387 39.9055Z" fill="#D9D9D9"/>
</g>
</svg>
