<svg width="20" height="20" viewBox="0 0 20 20" fill="none" xmlns="http://www.w3.org/2000/svg">
<path d="M10.0001 0.714233C8.16354 0.714233 6.36824 1.25884 4.84122 2.27916C3.31419 3.29949 2.12401 4.74972 1.4212 6.44646C0.718384 8.1432 0.534489 10.0102 0.89278 11.8115C1.25107 13.6128 2.13547 15.2673 3.4341 16.5659C4.73273 17.8646 6.38728 18.7489 8.18853 19.1072C9.98978 19.4655 11.8568 19.2816 13.5536 18.5788C15.2503 17.876 16.7006 16.6858 17.7209 15.1588C18.7412 13.6318 19.2858 11.8365 19.2858 9.99995C19.2829 7.5381 18.3037 5.17791 16.5629 3.43713C14.8221 1.69634 12.4619 0.717103 10.0001 0.714233ZM9.76675 2.50705C9.07999 2.36005 8.04784 2.25563 7.62494 1.88896C8.38007 1.66734 9.16252 1.55257 9.94949 1.54799C9.79085 1.96366 10.2844 2.61829 9.76594 2.50705H9.76675ZM1.54731 9.99995C1.54718 8.79906 1.80351 7.61198 2.29914 6.51815C2.79477 5.42431 3.51828 4.44893 4.42127 3.65726C4.62207 3.7163 5.09155 3.66048 5.76867 3.72875C6.87914 3.8396 5.40402 5.76171 5.40402 5.76171C5.43487 6.39394 5.50743 7.02344 5.62128 7.64609C5.91646 7.77501 6.26388 8.16418 6.26388 7.88706C6.26388 7.60995 6.16707 6.43603 6.61085 7.71316C7.05463 8.99029 7.59722 8.22762 7.54581 9.22563C7.47954 10.5108 8.37877 10.4469 9.15589 10.6694C9.93302 10.8919 10.3206 11.2799 10.2664 11.5024C10.2121 11.7249 10.433 12.5016 10.766 12.2799C11.0989 12.0582 11.8764 12.3349 12.0431 12.4462C12.3391 12.6438 10.5439 14.3338 11.2105 14.945C11.7037 15.3968 12.5431 15.8892 12.6539 16.0559C12.7447 16.192 12.3142 17.5198 11.8804 18.2403C10.6424 18.5241 9.35633 18.5251 8.11788 18.2431C6.87944 17.9612 5.72055 17.4035 4.72748 16.6116C3.7344 15.8198 2.93272 14.8141 2.38211 13.6695C1.83151 12.5249 1.54617 11.2709 1.54731 10.0008V9.99995ZM12.5186 18.0696C13.3237 17.4803 14.026 16.762 14.5969 15.9438C15.7078 14.2225 17.0958 14.445 16.3183 12.8916C15.5407 11.3381 14.5974 11.7269 13.9861 11.8919C13.3748 12.057 13.4311 11.169 12.4315 12.0028C12.0648 12.3088 11.4873 10.7257 11.0435 10.7257C10.5997 10.7257 10.8214 9.39311 10.5993 9.22685C10.3772 9.06058 10.0001 10.0011 10.0001 10.0011C10.0001 10.0011 8.93379 9.06017 9.26713 8.06055C9.60047 7.06093 10.4603 6.33924 10.9603 7.75533C11.1174 8.20072 11.8487 8.19951 11.9877 6.56173C13.6532 4.25727 12.6672 3.64722 11.9322 3.17452C11.0194 2.58736 11.4463 2.05844 11.5836 1.6986C13.4348 2.05136 15.115 3.01261 16.3572 4.42965C17.5995 5.84669 18.3326 7.63823 18.44 9.51962C18.5474 11.401 18.0231 13.2644 16.9502 14.8136C15.8774 16.3629 14.3176 17.5092 12.5186 18.0704V18.0696Z" fill="white"/>
</svg>
