    <svg width="78" height="78" viewBox="0 0 78 78" fill="none" xmlns="http://www.w3.org/2000/svg">
    <mask id="mask0_2250_3076" style="mask-type:alpha" maskUnits="userSpaceOnUse" x="0" y="0" width="78" height="78">
    <rect width="78" height="78" fill="#D9D9D9"/>
    </mask>
    <g mask="url(#mask0_2250_3076)">
    <path fill-rule="evenodd" clip-rule="evenodd" d="M19.6451 12.7264L23.0732 14.2905L22.6723 19.04C22.3593 19.0911 22.1031 19.3223 22.0502 19.6356C22.0021 19.9222 22.1384 20.2007 22.3771 20.3612L21.4948 23.4091C21.4948 23.4091 22.358 23.9261 23.1249 23.6085L22.9354 20.4945C23.2638 20.4548 23.5359 20.218 23.5903 19.8945C23.6404 19.5979 23.4943 19.3111 23.2412 19.1535L23.989 14.7084L30.894 17.8591L29.6407 21.7724C26.27 26.6346 23.6233 33.5305 23.6233 40.49C23.6233 42.3077 23.8212 44.1211 24.1754 45.8952C24.1491 46.0751 24.1165 46.2784 24.0799 46.5067L24.0605 46.6274C23.7037 48.8326 23.046 52.9039 23.7308 59.5414C23.291 60.2755 23.1522 61.7196 23.4495 62.8256C23.8807 64.43 24.9598 63.9599 24.7146 63.4796C24.5427 63.143 24.4264 62.8522 24.3486 62.605C24.4567 62.6995 24.5823 62.7574 24.7277 62.7591C25.0744 63.252 25.4956 63.4285 25.7855 63.4939C26.2453 63.6002 26.5539 63.1077 26.0655 62.7746C25.4789 62.3597 25.0456 61.7118 24.8597 60.972C25.158 61.5647 25.6608 61.9959 26.2392 62.1533C27.2079 62.4087 27.494 61.4993 26.5764 61.2377C25.8552 61.032 25.2008 60.1649 24.9538 59.8031L24.9536 59.8014C24.4086 54.8169 24.6327 51.2819 24.929 48.8944C25.5279 50.8748 26.303 52.7761 27.1904 54.5444L27.1671 54.5411C27.9335 56.2762 29.1597 58.1156 30.6353 60.1123H30.6373L30.6616 60.1153C31.7244 61.4989 32.8248 62.6867 33.8992 63.6248V69.415C32.8719 69.2321 31.3061 69.1836 30.574 70.2123C28.5854 73.0061 34.7841 70.7233 34.7841 70.7233C35.0736 70.6355 35.1881 70.3184 35.0887 70.0248L35.0887 70.0181V64.5685C35.5555 64.9006 36.0123 65.1789 36.4536 65.3988C36.4889 65.422 36.5244 65.4452 36.5599 65.4683L36.599 65.4949H36.6011L36.5599 65.4683C36.5305 65.4482 36.5013 65.4281 36.4721 65.4079C37.2387 65.7874 37.9579 65.9897 38.5998 65.9897C39.6946 65.9897 40.9076 65.5422 42.1556 64.7299V69.8537C41.932 70.1825 42.0274 70.6179 42.3747 70.7233C42.3747 70.7233 48.5734 73.0061 46.5848 70.2123C45.8727 69.2118 44.372 69.2302 43.3451 69.4002V63.8545C46.0097 61.6704 48.7133 57.9764 50.6719 53.5517C50.731 53.7367 50.801 53.912 50.8808 54.0715C51.6186 55.5471 52.3421 54.7255 52.0089 54.1696C51.9319 54.0414 51.8637 53.924 51.8033 53.8166C51.9544 53.9619 52.126 54.0859 52.3091 54.1875C52.6137 54.3428 52.9304 54.4798 53.3085 54.443C53.5027 54.4103 53.6641 54.2488 53.6948 54.0628C53.7217 53.9159 53.6606 53.7763 53.5635 53.6865C53.5087 53.6144 53.4288 53.5521 53.321 53.5095C53.2149 53.4679 53.1159 53.4205 53.0236 53.369C53.1882 53.1938 53.1729 53.0257 53.0678 52.8682C53.1796 52.8939 53.2995 52.9111 53.4273 52.9168C54.4267 52.9577 54.6168 52.0809 53.6644 52.0217C53.0888 51.9883 52.5103 51.5913 52.1435 51.2834C55.6434 50.6234 57.7149 49.2705 57.709 47.6307C57.7051 46.1757 56.0623 45.0192 53.2927 44.4986C53.4784 43.1742 53.5784 41.8332 53.5784 40.49C53.5784 34.8028 51.8106 29.158 49.3244 24.6308C49.4172 24.6634 49.4654 24.681 49.4654 24.681L50.0648 20.8188L63.8218 20.2422L46.3257 8.50301C46.3257 8.50301 35.1723 7.94787 19.6451 12.7264ZM51.9902 50.1043C52.4554 48.6689 52.8343 47.1844 53.1052 45.6724C55.4459 46.1192 56.5196 46.9855 56.5216 47.6348C56.5255 48.4234 55.1028 49.507 51.9902 50.1043Z" fill="#D9D9D9"/>
    </g>
    </svg>


