<svg width="78" height="78" viewBox="0 0 78 78" fill="none" xmlns="http://www.w3.org/2000/svg">
<mask id="mask0_2250_34822" style="mask-type:alpha" maskUnits="userSpaceOnUse" x="0" y="0" width="78" height="78">
<rect width="78" height="78" fill="#D9D9D9"/>
</mask>
<g mask="url(#mask0_2250_34822)">
<path fill-rule="evenodd" clip-rule="evenodd" d="M14.2634 18.4055C14.104 19.0797 14.0138 19.7802 14.0065 20.5C14.0059 20.5498 14.0057 20.5994 14.0059 20.649C14.0033 20.7215 14.0016 20.7943 14.0007 20.8672C13.9762 22.9551 14.6209 24.8936 15.7336 26.4831C15.6036 27.0917 15.4553 27.7908 15.3143 28.4663C15.2102 28.5808 14.9799 28.8773 14.9181 29.3127C14.845 29.8241 15.0586 30.019 15.2197 29.9309C15.2999 29.8864 15.2919 29.7499 15.2817 29.5739C15.2704 29.3798 15.2563 29.1375 15.3546 28.9174C15.3546 28.9174 15.2609 29.2977 15.4333 29.7248C15.5682 30.0639 15.8323 30.0265 15.8735 29.9159C15.9151 29.8019 15.865 29.6949 15.7986 29.5533C15.7276 29.4017 15.638 29.2105 15.6225 28.9286C15.6225 28.9286 15.6506 29.1947 15.8923 29.3801C16.1339 29.5656 16.3025 29.4569 16.3138 29.2921C16.3194 29.2019 16.2351 29.128 16.1249 29.0314C15.985 28.9088 15.8035 28.7496 15.7113 28.4741C15.8218 27.9458 15.9361 27.4054 16.0421 26.9075C17.5674 28.8539 19.8287 30.1999 22.413 30.5215C22.3885 30.9522 22.3556 31.43 22.312 31.8972C22.1681 31.8886 21.937 31.8875 21.6749 31.9348C20.339 31.9424 19.2673 31.9806 19.1617 32.065C19.007 32.1888 18.9119 33.1645 18.9448 34.0847C18.8814 35.1282 18.9768 36.5928 19.3619 36.7451C19.6422 36.8569 21.4192 36.9162 23.213 36.9303C23.1836 36.9536 23.1548 36.9779 23.1266 37.0031C23.0648 37.0631 23.003 37.1249 22.9543 37.1998C22.9074 37.2729 22.8643 37.3553 22.855 37.4471C22.8437 37.5389 22.8718 37.6345 22.928 37.7019C22.9499 37.7316 22.9767 37.7558 23.0058 37.7764C23.0267 37.794 23.0503 37.8083 23.0756 37.8187C23.0952 37.8291 23.1149 37.8387 23.1341 37.848L23.1218 37.8386L23.1111 37.8304C23.1477 37.8395 23.1869 37.841 23.2263 37.8332L23.2488 37.8294C23.4236 37.7954 23.5716 37.7409 23.715 37.6881L23.715 37.6881L23.715 37.6881C23.7452 37.677 23.7752 37.666 23.8052 37.6552C23.9457 37.599 24.0798 37.5428 24.2138 37.4866L24.2942 37.4529C24.6164 37.3199 24.9573 37.2356 25.3133 37.2112C25.5226 37.1946 25.7371 37.1963 25.9542 37.2136C25.8894 37.2294 25.8253 37.2482 25.762 37.2701C25.4754 37.3694 25.2094 37.5324 24.9977 37.7535C24.7897 37.9727 24.6211 38.2462 24.5855 38.559C24.578 38.6377 24.5818 38.7183 24.6043 38.7951C24.6249 38.8738 24.6717 38.9468 24.7373 38.9956C24.7819 39.0274 24.8334 39.048 24.8854 39.0579C24.9385 39.0745 24.9963 39.0756 25.0513 39.0591C25.0945 39.053 25.137 39.0424 25.1775 39.0293L25.1813 39.0255C25.159 39.0284 25.1363 39.0307 25.1135 39.0321L25.1362 39.02C25.213 38.9788 25.2711 38.9319 25.3236 38.8851C25.3798 38.842 25.4266 38.7971 25.4697 38.7502C25.5118 38.7131 25.5479 38.6715 25.582 38.6322L25.582 38.6321L25.582 38.6321L25.5933 38.6191C25.6163 38.5972 25.6357 38.5724 25.6549 38.548C25.6702 38.5285 25.6854 38.5092 25.702 38.4917C25.8425 38.325 26.0111 38.1938 26.2247 38.0833C26.4382 37.9728 26.6893 37.8885 26.9553 37.8117C27.0641 37.7795 27.175 37.7492 27.2875 37.7187C29.751 40.5189 32.2998 43.9962 33.9814 46.5538C33.4246 49.9772 33.0158 53.9225 32.9287 58.3317C33.2933 59.4532 36.0029 60.3631 39.3977 60.8976C38.9023 62.5659 38.3487 64.5322 37.8915 66.2566C37.2237 66.1504 36.3141 66.1529 35.5805 66.6044C33.0308 68.4048 38.6154 68.2718 38.8159 66.5482C38.8161 66.5422 38.81 66.5344 38.7981 66.5251C39.2666 64.7572 39.8379 62.7291 40.3424 61.0343C42.5757 61.3303 45.0257 61.4679 47.2633 61.4047C47.4494 62.051 47.6132 62.8284 47.7852 63.6446L47.7852 63.6447L47.7853 63.6449L47.7853 63.645L47.7853 63.645L47.7853 63.6451L47.7913 63.6733L47.7952 63.6918L47.7952 63.6919C48.0279 64.7963 48.2678 65.935 48.5868 66.8323C48.6674 68.5092 54.3405 68.302 51.9131 66.6911C51.3307 66.2222 50.1974 66.1819 49.4166 66.3376C49.1467 65.5225 48.9297 64.4907 48.7187 63.4881L48.7187 63.4879L48.7167 63.4785L48.7111 63.4518L48.7111 63.4517L48.7111 63.4517C48.5544 62.707 48.4041 61.9928 48.2334 61.3638C51.9113 61.155 54.7954 60.3495 54.7856 58.7401H54.7838C54.7974 58.0541 54.8215 57.3831 54.8548 56.7277C56.2087 57.9532 57.8789 59.3269 59.1882 60.1182C59.2459 60.3005 59.3012 60.48 59.3508 60.6596C59.4201 60.9087 59.4781 61.1598 59.5269 61.4108C59.5737 61.6618 59.6112 61.9148 59.6393 62.1695C59.6459 62.2144 59.6494 62.2594 59.653 62.3046V62.3046C59.6596 62.3877 59.6662 62.4711 59.6917 62.5536C59.6947 62.5632 59.6977 62.5729 59.7009 62.5825C59.7047 62.6462 59.7146 62.7096 59.7348 62.7717C59.7573 62.8466 59.7966 62.9197 59.8585 62.9778C59.9203 63.034 60.0121 63.064 60.0983 63.0527C60.1863 63.0434 60.265 63.0003 60.3287 62.9478C60.4598 62.841 60.5329 62.6837 60.5704 62.5263C60.593 62.4193 60.6013 62.3114 60.5992 62.2044C60.6175 62.2578 60.6382 62.3102 60.6652 62.3604C60.6971 62.4172 60.7316 62.4723 60.7749 62.5265C60.8067 62.5739 60.842 62.6199 60.881 62.6615C60.9372 62.7195 61.0027 62.7795 61.0927 62.8038C61.1358 62.8151 61.1882 62.8132 61.2332 62.7963C61.2781 62.7795 61.3156 62.7476 61.3456 62.712C61.4037 62.6409 61.4355 62.5565 61.4561 62.4741C61.4973 62.3074 61.4917 62.1332 61.4655 61.9664C61.4374 61.8016 61.3868 61.6405 61.3287 61.485C61.2069 61.174 61.044 60.8836 60.8473 60.6176C60.8088 60.565 60.7685 60.5136 60.7265 60.4636C60.8201 60.5286 60.9079 60.5976 60.9899 60.6718C61.1848 60.8497 61.3515 61.0558 61.4957 61.2919C61.5272 61.3368 61.5539 61.3865 61.5805 61.4363L61.5806 61.4364L61.6007 61.4736L61.6007 61.4737C61.6175 61.5036 61.6344 61.5336 61.655 61.5635C61.6718 61.5935 61.6924 61.6235 61.7149 61.6534C61.7579 61.7132 61.8138 61.7673 61.8717 61.8233L61.8723 61.8239C61.9322 61.8801 62.0034 61.9326 62.0971 61.9794L62.114 61.9869C62.1188 61.9893 62.1245 61.9918 62.1304 61.9942L62.1402 61.9981C62.262 62.0394 62.395 61.9757 62.4362 61.8539C62.5036 61.6553 62.4961 61.4773 62.4512 61.3087C62.4324 61.2244 62.3987 61.1457 62.3556 61.0689C62.3144 60.9921 62.2732 60.9153 62.2245 60.8404C62.2118 60.8199 62.1989 60.7996 62.1857 60.7793C62.2011 60.7582 62.217 60.737 62.2305 60.7145L62.2396 60.6956C62.2518 60.6705 62.2638 60.6459 62.2698 60.6189L62.2731 60.6036C62.2797 60.5735 62.2861 60.5445 62.2829 60.514C62.2848 60.4784 62.2792 60.4447 62.2698 60.4129C62.253 60.3473 62.2211 60.2911 62.1874 60.2405C62.1162 60.1394 62.03 60.0644 61.9401 59.9988C61.8502 59.9333 61.7565 59.8752 61.661 59.8246C61.4699 59.7216 61.2676 59.6448 61.0634 59.5773C60.8573 59.5155 60.6493 59.4612 60.4358 59.435C60.3309 59.42 60.2222 59.4125 60.1154 59.4143C60.0351 59.4158 59.9527 59.4225 59.8753 59.4448L59.8551 59.4423C59.8302 59.4393 59.8053 59.4365 59.7803 59.4339L59.7793 59.4333C58.3746 58.614 56.3746 56.9342 54.9232 55.5816C55.2338 51.0538 55.9666 47.3396 56.6238 44.6751C57.7929 45.6285 61.3722 43.7198 60.2818 40.346C62.6592 40.0687 63.6802 36.4456 61.6138 34.574C64.0305 33.5755 63.5453 27.101 59.2552 28.4986C59.9577 27.6443 61.138 24.0249 59.2084 21.1212C56.1602 18.1779 50.4953 19.222 48.5749 26.3934C45.6004 26.2143 42.6601 27.1183 40.4786 28.949C39.5143 28.5545 38.5359 28.2337 37.5555 28.0117C37.5555 28.0117 34.5113 31.3014 32.6191 36.65C32.6191 36.65 33.8608 37.2171 35.8358 38.1775C35.2683 39.9853 34.7952 41.9677 34.4275 44.0671C34.3497 44.463 34.2735 44.8673 34.1994 45.28C32.4442 42.6884 29.9962 39.4132 27.6594 36.7985L27.5512 36.6243C27.5042 36.5459 27.457 36.4678 27.4098 36.3898L27.4096 36.3895L27.4096 36.3894L27.4096 36.3894L27.4095 36.3894L27.4095 36.3894L27.4095 36.3893L27.4095 36.3893L27.4095 36.3893L27.4095 36.3893L27.3619 36.3105C27.4549 35.6894 27.5175 34.6444 27.4958 33.9088C27.5333 33.025 27.5056 32.1592 27.356 32.0913C27.2456 32.0408 26.1944 31.9932 24.8792 31.9638C24.5691 31.8706 24.2832 31.8572 24.1176 31.8596C24.0966 31.4281 24.0855 30.9873 24.0801 30.5874C26.7271 30.4609 29.0984 29.2601 30.7634 27.4083C30.8528 27.883 30.948 28.3921 31.0398 28.8904C30.9406 29.1588 30.7571 29.3119 30.6156 29.43C30.503 29.5239 30.417 29.5956 30.421 29.6857C30.4285 29.8505 30.5934 29.9629 30.8388 29.7831C31.0842 29.6032 31.1179 29.3391 31.1179 29.3391C31.0957 29.6184 31.0022 29.8069 30.9279 29.9567C30.8582 30.0973 30.8054 30.2037 30.8444 30.3189C30.8819 30.4313 31.1442 30.4744 31.2884 30.139C31.4701 29.7156 31.3858 29.3335 31.3858 29.3335C31.478 29.5561 31.4583 29.7977 31.4425 29.9914C31.4281 30.1677 31.4169 30.3043 31.4964 30.3507C31.6537 30.4444 31.8729 30.2514 31.8111 29.74C31.7589 29.298 31.5319 28.995 31.4317 28.8804C31.3162 28.2522 31.1948 27.6039 31.0857 27.0264C32.3999 25.4046 33.1997 23.3445 33.2257 21.0947C33.2262 21.0544 33.2264 21.0142 33.2264 20.974C33.2295 20.8913 33.2315 20.8084 33.2325 20.7252C33.2418 19.9833 33.1613 19.2602 33.0095 18.5651H33.0076C33.0076 18.5651 33.0076 18.5577 33.0058 18.5539C33.002 18.537 32.9983 18.5183 32.9945 18.4996C32.5374 16.4651 31.4359 14.6722 29.9128 13.3496L29.9137 13.3521C29.2918 12.8119 28.5997 12.3501 27.8526 11.9823L27.809 11.9609L27.8089 11.961C26.5742 11.3615 25.1938 11.0191 23.7311 11.0006C22.2174 10.9837 20.7824 11.3172 19.501 11.9242L19.501 11.9244C18.7491 12.2815 18.0506 12.7335 17.4213 13.2649L17.401 13.1211L17.3754 13.3039C17.1055 13.5347 16.8485 13.7801 16.6057 14.0391L16.5617 14.0466L16.5945 14.0512C15.4708 15.2537 14.652 16.7457 14.2627 18.4053L14.2634 18.4055ZM23.4092 30.5936C23.1827 30.5889 22.9581 30.5763 22.7358 30.5562C22.7111 30.9884 22.6779 31.4667 22.634 31.9343C23.0238 31.9358 23.4213 31.9394 23.812 31.9447C23.7888 31.4892 23.7768 31.0206 23.7711 30.5972C23.6813 30.5987 23.5913 30.5989 23.501 30.5978C23.471 30.5959 23.4392 30.5941 23.4092 30.5941L23.4092 30.5936ZM23.0348 37.2598C23.0627 37.2231 23.0951 37.1896 23.1298 37.158C23.0551 37.2495 22.9904 37.3504 22.9378 37.4604C22.9304 37.4758 22.9245 37.4918 22.9203 37.5081C22.9214 37.4921 22.924 37.4761 22.928 37.4602C22.943 37.3872 22.9861 37.3197 23.0348 37.2598ZM59.9283 62.9475L59.9259 62.9451C59.8344 62.8549 59.7782 62.7681 59.7392 62.6818C59.7723 62.782 59.8212 62.8739 59.9015 62.931C59.9102 62.937 59.9191 62.9425 59.9283 62.9475Z" fill="#D9D9D9"/>
</g>
</svg>
