<svg width="20" height="20" viewBox="0 0 20 20" fill="none" xmlns="http://www.w3.org/2000/svg">
<path d="M15.1629 10.6707C15.0866 9.81723 14.7901 8.998 14.3022 8.29266C13.8143 7.58733 13.1516 7.01991 12.3787 6.6456C12.8029 6.35197 13.1371 5.94677 13.3442 5.47506C13.5044 5.07255 13.4978 4.62304 13.3257 4.22541C13.1536 3.82778 12.8302 3.51458 12.4265 3.3547C12.3873 3.33944 12.3481 3.32574 12.3088 3.31322C12.1923 2.57629 11.829 1.90039 11.2782 1.39558C11.0536 1.21965 10.7951 1.09172 10.5188 1.01974C10.2425 0.947767 9.9543 0.933293 9.67214 0.977223C9.34629 1.00064 9.02953 1.09494 8.74414 1.25348C8.45875 1.41203 8.21164 1.63098 8.0202 1.89495C7.64776 2.50933 7.49749 3.23232 7.59436 3.94369C7.31245 3.92688 7.03083 3.98105 6.77542 4.10121C6.52001 4.22137 6.29901 4.40366 6.13277 4.6313C6.00636 4.83997 5.92397 5.07215 5.89063 5.31366C5.85729 5.55516 5.87371 5.80091 5.93888 6.03587C5.74379 6.12182 5.56873 6.24726 5.42482 6.40423C5.28092 6.5612 5.17129 6.74628 5.10291 6.94773C5.00482 7.21829 4.99731 7.51326 5.08151 7.78843C5.16572 8.0636 5.33709 8.30415 5.56996 8.47401C5.13989 9.14306 4.88361 9.90834 4.82425 10.7008L4.28577 10.8452L4.3988 15.2441L4.63743 15.3196C4.69394 15.3376 4.74928 15.3521 4.8058 15.3689V19.0476H15.1845V15.3936C15.3022 15.3544 15.3772 15.3282 15.398 15.3196L15.6201 15.2362L15.7143 10.8217L15.1629 10.6707ZM5.50794 11.2381L10.0607 10.0019L14.4808 11.2104V14.8687C11.5384 15.6379 8.4459 15.63 5.50755 14.8457L5.50794 11.2381ZM5.77718 7.14106C5.89728 6.73131 6.45813 6.5779 6.46206 6.57712L6.86827 6.47145L6.69401 6.09066C6.61779 5.91966 6.58082 5.73384 6.58577 5.54678C6.59073 5.35971 6.6375 5.1761 6.72266 5.00935C7.05235 4.50059 7.92993 4.67083 7.93935 4.67161L8.479 4.78197L8.35184 4.24738C8.3487 4.23525 8.07514 3.04631 8.60185 2.29061C8.73725 2.10945 8.91093 1.96019 9.1106 1.85341C9.31028 1.74662 9.53106 1.68491 9.7573 1.67266C9.94637 1.64036 10.1401 1.64766 10.3262 1.69408C10.5123 1.7405 10.6866 1.82504 10.8382 1.9423C11.5191 2.48237 11.6459 3.61104 11.6475 3.62161L11.6722 3.86933L11.9148 3.92765C12.0665 3.95361 12.2107 4.01258 12.337 4.10038C12.4633 4.18818 12.5686 4.30263 12.6456 4.43562C12.7063 4.55739 12.7412 4.69037 12.7479 4.82621C12.7547 4.96206 12.7332 5.09783 12.6848 5.22499C12.4451 5.69064 12.0662 6.07044 11.6004 6.31178L11.6145 6.33917C11.0896 6.1725 10.5421 6.08749 9.99122 6.08714C9.23054 6.08377 8.47815 6.24472 7.7858 6.55893C7.09344 6.87315 6.47756 7.33316 5.98049 7.90733C5.86781 7.81899 5.78702 7.69647 5.75035 7.5583C5.71367 7.42013 5.72309 7.27381 5.77718 7.14145V7.14106ZM9.99554 6.78571C11.0557 6.76738 12.0872 7.12936 12.9021 7.80572C13.7171 8.48208 14.2613 9.42782 14.4356 10.4707L10.0611 9.27512L5.54837 10.5016C5.71617 9.45235 6.2583 8.49878 7.07503 7.81633C7.89176 7.13388 8.92816 6.76845 9.99358 6.78727L9.99554 6.78571ZM14.4816 18.3487H5.50677V15.5669C6.99059 15.9537 8.51799 16.1492 10.0517 16.1489C11.5452 16.1527 13.0331 15.9678 14.48 15.5986L14.4816 18.3487ZM6.32665 11.6401C6.21541 11.6405 6.10885 11.6848 6.0303 11.7634C5.95175 11.8419 5.90759 11.9483 5.90749 12.0592V14.0399C5.90749 14.1512 5.95183 14.2579 6.03077 14.3366C6.10971 14.4154 6.21678 14.4596 6.32842 14.4596C6.44006 14.4596 6.54712 14.4154 6.62606 14.3366C6.705 14.2579 6.74935 14.1512 6.74935 14.0399V12.0604C6.7494 12.0053 6.73856 11.9507 6.71744 11.8997C6.69632 11.8488 6.66533 11.8025 6.62626 11.7635C6.58719 11.7245 6.54079 11.6935 6.48972 11.6724C6.43864 11.6513 6.3839 11.6405 6.32862 11.6405L6.32665 11.6401ZM13.666 14.4754C13.7213 14.4755 13.776 14.4647 13.8271 14.4436C13.8782 14.4226 13.9246 14.3917 13.9638 14.3527C14.0029 14.3137 14.0339 14.2675 14.0551 14.2165C14.0762 14.1656 14.0871 14.111 14.0871 14.0559V12.076C14.0871 11.9647 14.0428 11.858 13.9638 11.7792C13.8849 11.7005 13.7778 11.6563 13.6662 11.6563C13.5546 11.6563 13.4475 11.7005 13.3685 11.7792C13.2896 11.858 13.2453 11.9647 13.2453 12.076V14.0559C13.2453 14.111 13.2561 14.1656 13.2773 14.2164C13.2984 14.2674 13.3294 14.3136 13.3685 14.3526C13.4076 14.3915 13.4539 14.4224 13.505 14.4435C13.556 14.4646 13.6107 14.4754 13.666 14.4754ZM8.1242 11.3473C8.01262 11.3473 7.9056 11.3915 7.8267 11.4702C7.74779 11.5489 7.70347 11.6556 7.70347 11.7669V14.2551C7.70347 14.3664 7.74781 14.4732 7.82675 14.5519C7.9057 14.6306 8.01276 14.6748 8.1244 14.6748C8.23604 14.6748 8.3431 14.6306 8.42204 14.5519C8.50098 14.4732 8.54533 14.3664 8.54533 14.2551V11.7669C8.54533 11.7117 8.53444 11.6572 8.51327 11.6062C8.4921 11.5553 8.46107 11.509 8.42196 11.4701C8.38285 11.4311 8.33642 11.4002 8.28533 11.3792C8.23424 11.3581 8.17949 11.3473 8.1242 11.3473ZM11.9995 14.6739C12.1111 14.6737 12.218 14.6295 12.2969 14.5509C12.3758 14.4722 12.4202 14.3656 12.4203 14.2543V11.7669C12.4203 11.6556 12.3759 11.5488 12.297 11.4701C12.218 11.3914 12.111 11.3471 11.9993 11.3471C11.8877 11.3471 11.7806 11.3914 11.7017 11.4701C11.6228 11.5488 11.5784 11.6556 11.5784 11.7669V14.2551C11.5784 14.3102 11.5893 14.3648 11.6104 14.4157C11.6316 14.4666 11.6626 14.5128 11.7016 14.5518C11.7407 14.5907 11.7871 14.6216 11.8381 14.6427C11.8892 14.6638 11.9439 14.6746 11.9991 14.6746L11.9995 14.6739ZM10.483 14.4715V11.4017C10.483 11.2904 10.4386 11.1837 10.3597 11.1049C10.2808 11.0262 10.1737 10.982 10.0621 10.982C9.95043 10.982 9.84336 11.0262 9.76442 11.1049C9.68548 11.1837 9.64113 11.2904 9.64113 11.4017V14.4719C9.64113 14.5832 9.68548 14.69 9.76442 14.7687C9.84336 14.8474 9.95043 14.8916 10.0621 14.8916C10.1737 14.8916 10.2808 14.8474 10.3597 14.7687C10.4386 14.69 10.483 14.5832 10.483 14.4719" fill="black"/>
</svg>
