<svg width="124" height="124" viewBox="0 0 124 124" fill="none" xmlns="http://www.w3.org/2000/svg">
<mask id="mask0_2437_8559" style="mask-type:alpha" maskUnits="userSpaceOnUse" x="2" y="1" width="120" height="123">
<path d="M122 88.4999C122 98.6304 110.468 122.628 94 120.5C92.2146 120.269 89.5 119.5 89.5 119.5L83 119C81 120.5 80.3808 120.155 78.1892 121C73.1656 122.938 67.7068 124 62 124C45.1381 124 30.4423 114.726 22.7352 101C19.0828 94.4953 20.5 95.4999 19.5 93.9999C7.5 92.4999 2 66.6232 2 54.4999C2 52.9933 2 39.4893 2 38C2 23.2752 2 1.5 2 1.5H122V42.5V77.9999C122 77.9999 122 82.2365 122 88.4999Z" fill="#E6E7E8"/>
</mask>
<g mask="url(#mask0_2437_8559)">
<circle cx="62" cy="79" r="45" fill="#9B9B9C"/>
<path d="M92.4636 109.726C91.8772 109.735 91.331 109.35 91.1654 108.759C90.964 108.052 91.3758 107.318 92.0786 107.116C95.0376 106.274 102.791 103.213 103.176 99.215C103.436 96.4933 100.159 93.3194 93.6902 90.0471C93.0366 89.7158 92.7725 88.9145 93.1038 88.2609C93.435 87.6074 94.2363 87.3477 94.8899 87.6745C102.63 91.5959 106.207 95.4547 105.817 99.4702C105.19 105.97 94.0662 109.31 92.7993 109.668C92.6874 109.699 92.571 109.717 92.4591 109.717L92.4636 109.726Z" fill="#F887CA"/>
<path d="M91.7832 108.745C91.4385 109.533 91.2146 110.388 91.134 111.293C91.0579 112.197 91.152 113.159 91.4743 114.077C91.7921 114.995 92.3472 115.841 93.0187 116.512L93.2738 116.763C93.3634 116.844 93.4529 116.915 93.5424 116.991C93.7215 117.143 93.914 117.282 94.1288 117.372C94.5541 117.573 95.0286 117.663 95.5792 117.546C95.9329 117.47 96.1567 117.126 96.0806 116.772C96.0806 116.758 96.0761 116.745 96.0717 116.736L96.0538 116.669C95.9777 116.4 95.8837 116.194 95.7762 116.02C95.6643 115.85 95.5658 115.68 95.445 115.55C95.3196 115.42 95.2032 115.29 95.0734 115.183C95.0062 115.129 94.9391 115.075 94.8764 115.017L94.6974 114.838C94.2229 114.368 93.8424 113.84 93.5648 113.249C93.2873 112.658 93.1082 111.991 93.0142 111.275C92.9157 110.554 92.9157 109.793 92.9112 108.996V108.983C92.9112 108.656 92.6471 108.392 92.3203 108.392C92.0786 108.392 91.8727 108.54 91.7787 108.745H91.7832Z" fill="#F887CA"/>
<path d="M92.0875 107.094C91.6846 107.21 91.237 107.707 91.0534 108.047C90.8117 108.499 90.6058 108.974 90.4312 109.453C90.0954 110.375 89.885 111.4 89.9432 112.479C89.9925 113.553 90.3461 114.659 90.946 115.563C91.1027 115.778 91.2504 116.006 91.4205 116.212C91.5951 116.409 91.7741 116.606 91.989 116.759C92.2039 116.906 92.4322 117.041 92.6829 117.13C92.938 117.215 93.2066 117.269 93.511 117.264C93.8602 117.26 94.1378 116.973 94.1333 116.624C94.1333 116.593 94.1333 116.562 94.1243 116.535L94.1154 116.472C94.0661 116.181 93.99 115.953 93.8915 115.747C93.802 115.541 93.7125 115.348 93.6006 115.187C93.4931 115.022 93.3946 114.86 93.2648 114.722C93.144 114.578 93.05 114.422 92.938 114.274C92.5351 113.665 92.2979 113.007 92.1905 112.282C92.083 111.557 92.1278 110.764 92.2576 109.945C92.3427 109.422 92.4591 108.902 92.5844 108.383C92.6739 108.025 92.9246 108.213 92.938 107.841C92.9515 107.425 92.5441 106.955 92.9246 107.013C92.9738 107.022 93.032 106.83 92.0965 107.103L92.0875 107.094Z" fill="#F887CA"/>
<path d="M91.8994 107.416C91.604 108.28 91.6308 109.198 91.7964 110.057C91.971 110.917 92.3023 111.731 92.7544 112.483C93.2066 113.231 94.4824 114.583 96.2909 115.071C97.8039 115.416 97.6115 114.52 97.4503 114.211C97.4503 114.211 97.2981 113.576 96.3491 112.904L95.9731 112.631C95.4806 112.246 95.0285 111.758 94.6256 111.23C94.2272 110.697 93.878 110.12 93.6005 109.506C93.3229 108.893 93.126 108.258 93.0454 107.591V107.537C93.0006 107.215 92.7097 106.986 92.3873 107.022C92.1546 107.049 91.971 107.21 91.9039 107.416H91.8994Z" fill="#F887CA"/>
<path d="M97.455 114.202C97.455 114.202 97.5042 114.31 97.549 114.52C97.5624 114.623 97.5893 114.771 97.5087 114.919C97.4326 115.075 97.2401 115.174 97.0432 115.192C96.6403 115.236 96.1747 115.125 95.6957 114.95C95.2122 114.78 94.7019 114.516 94.2319 114.144C93.2784 113.397 92.7994 112.371 92.5666 111.651C92.4458 111.288 92.3696 110.988 92.3115 110.782C92.2533 110.576 92.2219 110.464 92.2219 110.464C92.2219 110.464 92.401 110.899 92.6964 111.602C92.9964 112.291 93.5067 113.226 94.4065 113.929C95.2973 114.61 96.3135 115.031 97.0342 115.053C97.2133 115.048 97.3655 114.986 97.4371 114.874C97.5177 114.762 97.5132 114.623 97.5087 114.525C97.4908 114.314 97.4595 114.198 97.4595 114.198L97.455 114.202Z" fill="#E4439F"/>
<path d="M95.8791 116.271C95.8791 116.271 95.897 116.302 95.9284 116.365C95.9642 116.423 96.0045 116.517 96.0448 116.642C96.0806 116.767 96.1164 116.933 96.0716 117.13C96.0269 117.327 95.8523 117.519 95.6016 117.591C95.136 117.716 94.5138 117.658 93.9632 117.323C93.4126 117 92.9112 116.49 92.5128 115.89C91.7025 114.686 91.3041 113.419 91.1609 112.492C91.0848 112.027 91.0937 111.646 91.1071 111.382C91.1564 111.127 91.1832 110.984 91.1832 110.984C91.1832 110.984 91.1698 111.127 91.1519 111.387C91.1609 111.646 91.1877 112.018 91.2952 112.465C91.5011 113.361 91.9577 114.574 92.7411 115.729C93.1261 116.306 93.5872 116.799 94.084 117.117C94.5809 117.443 95.1226 117.528 95.5658 117.448C95.7717 117.403 95.9284 117.26 95.9821 117.099C96.0403 116.933 96.0179 116.772 95.9955 116.651C95.9642 116.526 95.9373 116.432 95.9105 116.365C95.8881 116.302 95.8747 116.266 95.8747 116.266L95.8791 116.271Z" fill="#E4439F"/>
<path d="M100.669 55.6135C100.669 55.6135 104.72 57.628 106.574 56.4506C108.431 55.2778 108.579 53.2678 107.957 51.7547C107.957 51.7547 110.28 51.9293 110.741 49.0688C111.207 46.2039 107.787 44.6684 105.916 44.8251C105.916 44.8251 108.87 40.935 107.303 37.1747C105.723 33.392 101.949 33.1816 99.2813 34.7081C99.2813 34.7081 97.8175 29.0005 93.7215 32.4117C93.7215 32.4117 96.2059 26.5519 91.5727 24.7523C91.5727 24.7523 92.4815 20.0475 87.3335 18.9104C82.1586 17.7689 79.213 24.7568 79.213 24.7568C79.213 24.7568 79.6293 20.898 77.6686 19.8102C75.7034 18.718 72.5206 22.2007 72.5206 22.2007C72.5206 22.2007 74.0516 17.6302 69.4855 17.5541C69.4855 17.5541 68.5947 15.1546 64.1719 15.6068C59.7357 16.0634 58.8851 19.8684 58.7732 21.8202C58.7732 21.8202 57.1706 18.5523 55.0308 18.0241C52.6941 17.4511 51.1049 19.564 51.0199 22.0619C51.0199 22.0619 47.3357 16.2872 42.5234 21.4039C42.5234 21.4039 39.5599 18.3106 36.6189 20.24C33.6778 22.1694 33.154 25.5626 35.4818 29.1527C35.4818 29.1527 33.7628 28.065 31.6051 28.5753C29.443 29.0856 29.0938 32.4609 29.6892 34.6007C29.6892 34.6007 25.1231 30.2898 22.4954 35.2453C22.4954 35.2453 18.7396 34.5022 17.795 39.113C16.8505 43.7059 20.002 46.0069 20.002 46.0069C20.002 46.0069 16.8102 45.0444 15.888 47.7483C14.8674 50.7251 18.3278 52.659 18.3278 52.659C18.3278 52.659 18.9366 57.8831 24.3263 55.6225C29.7071 53.3663 52.7075 68.0583 100.669 55.6135Z" fill="#FFB3DE"/>
<path d="M89.348 40.2188C87.6469 37.712 84.4596 36.1407 81.5723 37.6314C85.8071 37.0674 88.3587 40.3845 89.6255 44.0015C90.4358 40.8635 91.4967 36.5167 95.736 37.7299C93.171 35.8363 90.5029 37.7478 89.348 40.2233V40.2188Z" fill="#FFC9E9"/>
<path d="M44.4215 31.8656C41.2745 30.8226 39.1974 33.5801 38.7721 36.4093C36.3592 34.4127 32.7109 33.8666 30.3159 36.2302C34.3269 34.3545 37.7693 36.6779 40.0792 39.9592C39.9942 36.5838 39.9046 31.9685 44.4215 31.8656Z" fill="#FFC9E9"/>
<path d="M49.8245 39.1578C48.4547 38.3476 46.7581 38.1685 45.2227 38.6117C47.3624 38.7147 49.3634 39.7532 50.6169 41.4946C50.5497 39.0817 52.4523 35.9974 54.6995 38.6565C55.8589 40.1785 55.7917 42.1795 55.1024 43.9791C59.6774 38.6654 51.6465 32.5012 49.8201 39.1578H49.8245Z" fill="#FFC9E9"/>
<path d="M82.2257 25.1328C80.2381 22.9483 76.7195 22.6349 74.6111 25.0209C78.4206 22.4559 81.4467 24.8911 82.8882 28.6156C82.9016 20.6026 89.6791 24.4793 87.217 30.3793C91.7249 25.2761 84.3162 19.094 82.2301 25.1373L82.2257 25.1328Z" fill="#FFC9E9"/>
<path d="M44.4706 28.7052C39.1659 22.8096 47.4027 17.8854 49.7171 23.7452L48.6875 23.5348C50.0529 21.9993 52.7119 21.5383 54.0817 23.2841C52.1076 22.0396 49.9902 23.3781 48.9606 25.1598C48.5711 22.7514 46.0374 21.5741 44.2737 23.4721C43.1724 25.0076 43.9379 27.0175 44.4706 28.7052Z" fill="#FFC9E9"/>
<path d="M67.7174 18.1629C63.7601 17.8988 62.3948 20.6205 63.8139 24.0496C59.7447 21.2562 63.3752 15.186 67.7174 18.1629Z" fill="#FFC9E9"/>
<path d="M36.395 44.9997C34.7789 41.9691 32.3348 39.8248 29.707 43.5851C30.3382 37.8104 37.0262 40.2322 36.395 44.9997Z" fill="#FFC9E9"/>
<path d="M103.574 47.811C103.633 46.9291 103.382 44.1313 102.473 43.3344C101.627 42.2064 99.8812 42.5779 98.8247 42.9898C102.249 38.6207 106.354 44.467 103.579 47.8065" fill="#FFC9E9"/>
<path d="M100.114 37.3001C99.814 36.4899 98.7262 34.0099 97.4503 33.6204C97.5623 33.6607 97.4772 33.6339 97.5041 33.6383C96.2193 32.9848 94.7958 34.265 93.99 35.0529C95.2971 29.5154 101.43 32.7833 100.114 37.3001Z" fill="#FFC9E9"/>
<path d="M68.9931 44.0776C67.395 42.6272 65.3627 41.4633 63.3169 42.287C67.0638 42.3273 69.123 46.5845 71.0613 49.2211C70.927 47.7349 70.1526 44.9908 70.918 43.5762C72.1267 40.8724 75.4528 42.005 77.127 43.7061C75.2513 39.0236 69.6467 40.0398 68.9976 44.0776H68.9931Z" fill="#FFC9E9"/>
<path d="M68.9798 31.4582C66.8086 23.2169 57.7347 26.261 60.1207 33.5846C58.536 32.7698 56.6201 32.8638 55.8232 34.8559C57.2557 32.7475 59.3821 33.5308 60.8011 35.2051L61.4681 34.5918C60.3445 32.2148 60.7206 28.0158 64.0332 27.8949C67.4712 28.253 67.9323 32.8549 68.5545 35.5587C69.0783 33.7368 69.7855 30.6614 72.3327 31.1628C74.2531 31.4851 74.9246 33.6607 75.135 35.3797C75.8378 31.0419 71.4419 28.5709 68.9798 31.4582Z" fill="#FFC9E9"/>
<path d="M45.7734 133.975C45.6167 133.975 45.46 133.948 45.3033 133.895C44.5826 133.635 44.211 132.843 44.4707 132.126C46.8611 125.492 49.0949 119.162 50.2275 114.632C50.411 113.894 51.1631 113.446 51.9062 113.625C52.6493 113.809 53.097 114.561 52.9134 115.304C51.7495 119.959 49.4889 126.361 47.076 133.062C46.8746 133.626 46.3419 133.975 45.7734 133.975Z" fill="#F887CA"/>
<path d="M68.5812 134.624C68.4245 134.624 68.2679 134.598 68.1112 134.544C67.3905 134.284 67.0189 133.492 67.2785 132.776C68.8319 128.46 69.3243 124.624 69.763 121.235C70.0227 119.234 70.2644 117.345 70.6986 115.617C70.8821 114.878 71.6342 114.426 72.3773 114.61C73.1204 114.793 73.5681 115.545 73.3845 116.289C72.9906 117.86 72.7578 119.673 72.5116 121.589C72.055 125.116 71.5402 129.114 69.8884 133.711C69.6869 134.275 69.1542 134.624 68.5857 134.624H68.5812Z" fill="#F887CA"/>
<path d="M102.321 54.1946L90.6953 117.023C86.2411 118.16 67.2203 123.621 33.803 116.105L25.0828 53.4425C25.0828 53.4425 26.9674 48.4959 32.3034 47.4574C35.0968 46.9157 39.2689 48.2676 41.1177 51.0297C43.1277 47.4171 52.8731 43.8941 57.4033 50.6268C61.7724 46.392 69.2348 43.8448 75.2691 51.4504C77.5029 48.0483 86.8634 45.725 90.7579 52.9904C93.3722 48.3079 100.342 48.6929 102.325 54.1901" fill="#E4439F"/>
<path d="M90.7357 52.9545L79.1549 119.27C76.4198 119.655 71.8403 120.116 68.1785 119.834L75.238 51.4236C75.238 51.4236 75.2559 51.4415 75.2648 51.4504C77.4986 48.0527 86.8366 45.7384 90.7312 52.9545" fill="#F85DB5"/>
<path d="M44.6183 118.227C44.0901 108.334 41.5832 61.4107 41.1311 51.0072C43.1769 47.4036 52.882 43.9119 57.3988 50.6312C57.4078 50.6267 56.3603 119.556 56.3603 119.556C52.7835 119.23 48.7591 118.912 44.6138 118.227" fill="#F85DB5"/>
<path d="M81.0528 76.707C73.6441 87.8759 49.7976 91.1483 45.3838 68.1255C50.7332 83.668 68.0306 88.3415 81.0528 76.707Z" fill="#28292B"/>
<path d="M69.029 52.8247C68.559 53.532 69.6691 55.0496 71.5045 56.2045C73.3444 57.3639 75.2156 57.7265 75.6856 57.0148C76.1512 56.303 75.041 54.7899 73.2056 53.6305C71.3702 52.4711 69.499 52.1085 69.0335 52.8247" fill="#28292B"/>
<path d="M63.0529 59.5529C63.4781 60.287 62.2874 61.7374 60.3848 62.7984C58.4868 63.8548 56.6022 64.1145 56.1724 63.3803C55.7427 62.6462 56.9334 61.1913 58.836 60.1348C60.734 59.0739 62.6186 58.8143 63.0529 59.5529Z" fill="#28292B"/>
<path d="M57.4839 67.8435V76.4429C57.4839 77.6427 58.4598 78.6141 59.655 78.6141C60.8502 78.6141 61.8261 77.6427 61.8261 76.4429V67.3556C60.3936 67.5749 58.997 67.9465 57.4839 67.8435Z" fill="#28292B"/>
<path d="M70.1704 67.7673L69.7854 76.3399C69.7317 77.5396 70.6628 78.5513 71.858 78.605C73.0578 78.6587 74.0739 77.7321 74.1277 76.5369L74.5216 67.7718H70.1749L70.1704 67.7673Z" fill="#28292B"/>
<path d="M61.9514 66.8318H57.2779C56.7612 66.8318 56.3423 67.2507 56.3423 67.7674C56.3423 68.2841 56.7612 68.703 57.2779 68.703H61.9514C62.4681 68.703 62.887 68.2841 62.887 67.7674C62.887 67.2507 62.4681 66.8318 61.9514 66.8318Z" fill="#28292B"/>
<path d="M74.5754 66.8318H69.9019C69.3852 66.8318 68.9663 67.2507 68.9663 67.7674C68.9663 68.2841 69.3852 68.703 69.9019 68.703H74.5754C75.0921 68.703 75.511 68.2841 75.511 67.7674C75.511 67.2507 75.0921 66.8318 74.5754 66.8318Z" fill="#28292B"/>
<path d="M62.059 87.3835C62.059 87.3835 57.0856 87.4328 55.4606 86.3987C55.2189 86.9582 57.2825 90.5439 62.059 87.3835Z" fill="#28292B"/>
<path d="M31.2157 110.966C31.8021 111.024 32.3751 110.684 32.5855 110.106C32.8407 109.417 32.4915 108.651 31.8021 108.396C28.9192 107.326 21.4255 103.665 21.3584 99.6492C21.3136 96.914 24.8277 94.0087 31.5335 91.2512C32.2139 90.9737 32.5363 90.1947 32.2587 89.5143C31.9812 88.8339 31.2022 88.5116 30.5263 88.7891C22.5043 92.0928 18.6366 95.6561 18.7083 99.6939C18.8246 106.221 29.6489 110.424 30.8844 110.881C30.9963 110.921 31.1082 110.948 31.2202 110.957L31.2157 110.966Z" fill="#F887CA"/>
<path d="M31.9767 110.039C32.2588 110.854 32.411 111.722 32.4244 112.631C32.4289 113.535 32.2588 114.489 31.8648 115.38C31.4754 116.271 30.8576 117.067 30.1324 117.685L29.8593 117.918C29.7653 117.99 29.6669 118.057 29.5728 118.124C29.3804 118.258 29.1789 118.383 28.9596 118.455C28.5209 118.621 28.0374 118.674 27.5002 118.513C27.1555 118.41 26.9586 118.048 27.0615 117.703C27.0615 117.69 27.0705 117.681 27.0749 117.667L27.0973 117.6C27.1913 117.34 27.3032 117.143 27.4241 116.973C27.5495 116.812 27.6614 116.651 27.7912 116.53C27.9255 116.409 28.0508 116.293 28.1896 116.194C28.2567 116.145 28.3328 116.096 28.4 116.047L28.5925 115.881C29.1028 115.447 29.5191 114.954 29.8459 114.386C30.1727 113.817 30.401 113.168 30.5487 112.461C30.7009 111.749 30.7636 110.988 30.8263 110.196V110.182C30.8531 109.856 31.1396 109.614 31.4619 109.641C31.7037 109.659 31.8962 109.82 31.9723 110.035L31.9767 110.039Z" fill="#F887CA"/>
<path d="M31.8021 108.37C32.1961 108.517 32.6034 109.046 32.7556 109.399C32.9616 109.869 33.1272 110.357 33.266 110.85C33.5301 111.799 33.6554 112.837 33.5167 113.907C33.3824 114.972 32.9437 116.051 32.2767 116.902C32.1021 117.103 31.9364 117.318 31.7529 117.511C31.5649 117.694 31.3679 117.873 31.1441 118.008C30.9158 118.137 30.683 118.254 30.4234 118.325C30.1637 118.388 29.8907 118.424 29.5907 118.397C29.2416 118.366 28.9864 118.057 29.0177 117.708C29.0177 117.676 29.0267 117.645 29.0312 117.618L29.0446 117.555C29.1162 117.269 29.2102 117.045 29.3221 116.853C29.4296 116.651 29.5325 116.472 29.6579 116.315C29.7787 116.159 29.8907 116.007 30.0294 115.877C30.1593 115.742 30.2667 115.595 30.392 115.456C30.8397 114.883 31.1307 114.243 31.2963 113.527C31.4574 112.81 31.4798 112.018 31.4127 111.19C31.3679 110.662 31.2963 110.133 31.2112 109.61C31.153 109.242 30.8845 109.413 30.9024 109.041C30.9203 108.625 31.3634 108.19 30.9829 108.217C30.9337 108.217 30.8934 108.029 31.8021 108.37Z" fill="#F887CA"/>
<path d="M31.9588 108.701C32.1871 109.583 32.0841 110.5 31.8558 111.342C31.6141 112.188 31.2201 112.971 30.7098 113.683C30.1995 114.395 28.8252 115.639 26.9809 115.984C25.4454 116.208 25.7095 115.335 25.8931 115.035C25.8931 115.035 26.0945 114.413 27.0972 113.817L27.4957 113.576C28.0194 113.226 28.5073 112.783 28.9505 112.286C29.3892 111.79 29.7832 111.239 30.1099 110.648C30.4367 110.062 30.6785 109.439 30.8128 108.781L30.8217 108.728C30.8844 108.41 31.1933 108.204 31.5111 108.266C31.7394 108.311 31.9095 108.486 31.9632 108.696L31.9588 108.701Z" fill="#F887CA"/>
<path d="M25.893 115.035C25.893 115.035 25.8348 115.138 25.7766 115.348C25.7543 115.451 25.7184 115.595 25.7856 115.751C25.8483 115.912 26.0318 116.024 26.2288 116.06C26.6272 116.136 27.0972 116.06 27.5896 115.926C28.082 115.792 28.6148 115.568 29.1117 115.236C30.1233 114.565 30.6784 113.58 30.9694 112.882C31.1216 112.528 31.2201 112.233 31.2917 112.036C31.3633 111.834 31.4036 111.722 31.4036 111.722C31.4036 111.722 31.1888 112.143 30.8441 112.819C30.4904 113.482 29.9085 114.377 28.9595 115.004C28.0194 115.608 26.9719 115.953 26.2511 115.917C26.0721 115.899 25.9244 115.823 25.8617 115.707C25.7901 115.59 25.8035 115.451 25.8169 115.348C25.8483 115.142 25.893 115.031 25.893 115.031V115.035Z" fill="#E4439F"/>
<path d="M27.2987 117.215C27.2987 117.215 27.2808 117.246 27.245 117.305C27.2047 117.363 27.16 117.452 27.1062 117.573C27.0615 117.694 27.0122 117.86 27.0436 118.057C27.0704 118.254 27.2316 118.46 27.4733 118.554C27.9299 118.715 28.5522 118.706 29.1252 118.415C29.6982 118.137 30.2353 117.667 30.683 117.099C31.5873 115.962 32.0797 114.731 32.299 113.817C32.4109 113.361 32.4333 112.976 32.4378 112.716C32.4109 112.457 32.393 112.313 32.393 112.313C32.393 112.313 32.393 112.457 32.393 112.716C32.3662 112.976 32.308 113.343 32.1647 113.782C31.8872 114.659 31.3366 115.827 30.4681 116.924C30.0384 117.47 29.537 117.922 29.0177 118.204C28.4985 118.491 27.9478 118.536 27.5136 118.419C27.3122 118.361 27.1644 118.204 27.1286 118.034C27.0839 117.869 27.1152 117.708 27.1465 117.587C27.1868 117.466 27.2226 117.372 27.254 117.309C27.2808 117.246 27.2987 117.215 27.2987 117.215Z" fill="#E4439F"/>
</g>
</svg>
