<svg width="124" height="124" viewBox="0 0 124 124" fill="none" xmlns="http://www.w3.org/2000/svg">
<mask id="mask0_2437_9391" style="mask-type:alpha" maskUnits="userSpaceOnUse" x="2" y="1" width="120" height="123">
<path d="M107 80C107 80 106.721 88.0781 104.5 94C101.5 102 97.3395 106.862 97.3395 106.862C89.0985 117.3 76.3317 124 62 124C48.4328 124 36.268 117.996 28.0175 108.5C25.7543 105.895 29.8613 111.976 27 114C21.1846 118.113 8.5 121.564 8.5 114C8.5 107.914 17 60.6233 17 48.5C17 46.9933 2 39.4893 2 38C2 23.2752 2 1.5 2 1.5H122V42.5V58.9999C122 58.9999 107 73.7366 107 80Z" fill="#E6E7E8"/>
</mask>
<g mask="url(#mask0_2437_9391)">
<circle cx="62" cy="79" r="45" fill="#9B9B9C"/>
<path d="M99.4097 101.737C99.4097 101.737 100.97 106.588 103.393 105.069C105 103.845 101.724 102.078 101.43 101.261" fill="#8A5B24"/>
<path d="M101.182 98.4606C101.182 98.4606 103.176 101.437 105.532 101.938C107.888 102.444 107.082 104.563 104.597 104.082C102.112 103.591 101.115 101.514 101.115 101.514C101.115 101.514 101.637 104.092 104.106 105.524C105.341 106.242 104.732 107.885 103.548 107.694C102.36 107.503 98.8465 104.991 99.4562 102.811C99.4562 102.811 99.2495 103.447 100.577 106.676C101.197 108.19 99.0842 109.967 97.7976 106.004C96.6299 102.408 97.6116 96.2905 100.939 96.7917L101.177 98.4606H101.182Z" fill="#B8712A"/>
<path d="M99.3837 102.372C99.1615 103.178 99.2804 104.098 99.6782 104.868C100.066 105.643 100.65 106.309 101.332 106.831C102.029 107.332 102.768 107.797 103.729 107.849C104.225 107.844 104.69 107.503 104.84 107.048C104.995 106.588 104.783 106.097 104.447 105.86C104.695 106.196 104.783 106.624 104.587 106.94C104.416 107.26 104.065 107.436 103.729 107.41C103.409 107.374 103.006 107.213 102.67 107.027C102.324 106.847 101.983 106.635 101.673 106.387C101.037 105.911 100.489 105.322 100.061 104.656C99.6369 103.989 99.3785 103.214 99.3837 102.372Z" fill="#8A5B24"/>
<path d="M100.045 100.052C108.441 100.052 112.032 96.1821 112.601 92.5601C113.277 88.2303 109.909 82.5623 100.861 79.6689C100.071 79.4157 99.2288 79.8497 98.9756 80.6402C98.7224 81.4256 99.1564 82.2729 99.947 82.5261C107.268 84.8667 110.1 89.1294 109.64 92.1003C109.165 95.1591 105.486 97.0553 100.05 97.0553C99.2236 97.0553 98.5519 97.727 98.5519 98.5537C98.5519 99.3804 99.2236 100.052 100.05 100.052H100.045Z" fill="#B8712A"/>
<path d="M102.871 70.384C107.744 102.475 87.8152 137.78 75.1461 139.703C60.6273 141.904 32.9743 113.822 28.1019 81.7304C23.2348 49.6391 40.9984 14.6647 55.8324 12.4171C70.0413 10.2574 97.9991 38.2927 102.871 70.384Z" fill="#F38F22"/>
<path d="M74.8515 139.744C69.7518 136.696 65.422 132.541 61.7122 127.953C57.9818 123.37 54.8713 118.302 52.2001 113.042C46.8782 102.496 43.2201 91.1187 41.3135 79.4623C39.3501 67.8317 39.0917 55.855 41.1792 44.2295C42.2229 38.422 43.9021 32.7178 46.3305 27.3339C48.7279 21.9346 51.9004 16.8607 55.8323 12.4172C51.7815 16.7522 48.4489 21.7589 45.8862 27.1324C43.3441 32.5163 41.5667 38.2515 40.4248 44.09C39.2674 49.9337 38.8076 55.9015 38.8179 61.8537C38.8386 67.8059 39.3656 73.7581 40.3318 79.6328C42.3365 91.3616 46.0102 102.842 51.5232 113.398C54.303 118.658 57.5012 123.716 61.3402 128.268C65.1998 132.784 69.6743 136.84 74.8567 139.749L74.8515 139.744Z" fill="#B8712A"/>
<path d="M91.9538 40.566C91.9538 40.566 77.0836 39.7497 65.8044 41.4031C40.0476 45.1852 29.9464 49.5667 29.9464 49.5667C31.5637 44.0898 32.504 39.295 34.8963 34.7585C34.8963 34.7585 40.2491 31.4517 61.4229 28.2844C75.0065 26.2539 82.328 27.7574 82.328 27.7574C85.9861 31.3794 88.74 35.8229 91.959 40.566H91.9538Z" fill="#FFCF90"/>
<path d="M92.2277 122.977C92.2277 122.977 84.9063 126.041 75.1719 127.55C65.4376 129.059 53.3472 128.94 53.3472 128.94C49.689 125.364 46.6096 122.466 43.3596 117.687C43.3596 117.687 58.886 117.723 72.3612 115.553C88.0942 113.026 98.3711 109.435 98.3711 109.435C96.5627 114.984 94.713 118.477 92.2277 122.983V122.977Z" fill="#FFCF90"/>
<path d="M57.801 59.7818C57.3205 60.3243 56.4886 60.3811 55.9513 59.9058C55.4036 59.4253 55.3519 58.5986 55.8273 58.056C56.3026 57.5084 57.1345 57.4567 57.6822 57.9372C58.2247 58.4074 58.2815 59.2444 57.8062 59.7818H57.801Z" fill="#B8712A"/>
<path d="M51.4251 58.03C50.9136 58.619 50.0197 58.6759 49.4307 58.1592C48.8417 57.6476 48.7849 56.7538 49.2964 56.1648C49.8131 55.5757 50.7069 55.5137 51.2908 56.0304C51.8798 56.5523 51.9366 57.4461 51.42 58.03H51.4251Z" fill="#B8712A"/>
<path d="M54.0086 63.0884C53.4919 63.6774 52.5877 63.7394 51.9935 63.2227C51.3993 62.7009 51.3425 61.8019 51.8592 61.2025C52.381 60.6135 53.2801 60.5515 53.8743 61.0733C54.4684 61.5952 54.5253 62.4942 54.0086 63.0884Z" fill="#B8712A"/>
<path d="M91.2047 54.6716C91.7163 55.2606 92.6101 55.3175 93.1991 54.8008C93.7882 54.2892 93.845 53.3954 93.3335 52.8064C92.8168 52.2173 91.9229 52.1553 91.3391 52.672C90.7501 53.1939 90.6932 54.0877 91.2099 54.6716H91.2047Z" fill="#B8712A"/>
<path d="M88.6211 59.73C89.1378 60.319 90.042 60.381 90.6362 59.8643C91.2304 59.3425 91.2872 58.4435 90.7706 57.8441C90.2487 57.2551 89.3497 57.1931 88.7555 57.7149C88.1613 58.2368 88.1045 59.1358 88.6211 59.73Z" fill="#B8712A"/>
<path d="M84.8339 56.418C85.3144 56.9605 86.1463 57.0174 86.6836 56.542C87.2313 56.0615 87.283 55.2348 86.8076 54.6923C86.3323 54.1446 85.5004 54.0929 84.9527 54.5734C84.4102 55.0436 84.3534 55.8806 84.8287 56.418H84.8339Z" fill="#B8712A"/>
<path d="M75.0685 62.1636C75.2338 63.2848 76.2775 64.0598 77.3987 63.8945C78.5199 63.724 79.295 62.6803 79.1296 61.559C79.078 56.2269 78.3753 50.8223 76.7167 45.3093C76.5514 44.1881 75.5077 43.4131 74.3813 43.5836C73.2601 43.7489 72.4851 44.7926 72.6504 45.9138C73.9059 52.0004 74.7326 57.4462 75.0633 62.1636H75.0685Z" fill="#28292B"/>
<path d="M63.0868 64.0599C63.2521 65.1811 64.2958 65.9561 65.4222 65.7908C66.5434 65.6254 67.3184 64.5817 67.1531 63.4605C67.2306 57.9578 66.4142 52.5016 64.7401 47.2108C64.5696 46.0844 63.5259 45.3145 62.4047 45.4799C61.2835 45.6452 60.5085 46.6889 60.6738 47.8101C61.9139 53.8812 62.7354 59.3167 63.0868 64.0599Z" fill="#28292B"/>
<path d="M56.9898 37.7864C57.5375 38.6802 59.4905 38.4839 61.3558 37.3472C63.2158 36.2053 64.2854 34.5571 63.7377 33.6632C63.19 32.7642 61.2369 32.9657 59.3769 34.1024C57.5168 35.2443 56.4473 36.8925 56.995 37.7864H56.9898Z" fill="#28292B"/>
<path d="M69.4626 35.9005C69.2559 36.9287 70.8267 38.1067 72.9709 38.5356C75.11 38.9593 77.0114 38.4684 77.2181 37.4402C77.4247 36.412 75.854 35.234 73.7098 34.8051C71.5707 34.3763 69.6641 34.8671 69.4626 35.8953V35.9005Z" fill="#28292B"/>
<path d="M36.1622 90.6226C36.7409 90.5761 37.2628 90.1989 37.4643 89.6151C37.733 88.8297 37.3145 87.9772 36.5291 87.7137C29.6055 85.3421 24.7848 79.9737 23.6326 73.3395C22.2841 65.5686 26.1954 57.3739 34.3693 50.8585C35.0152 50.3418 35.1237 49.4015 34.607 48.7505C34.0903 48.1046 33.15 47.9961 32.499 48.5128C23.4466 55.7309 19.1375 64.964 20.6772 73.851C22.0154 81.5755 27.5801 87.8222 35.5577 90.5503C35.7592 90.6175 35.9607 90.6433 36.1571 90.6278L36.1622 90.6226Z" fill="#B8712A"/>
<path d="M31.5327 47.3968C31.9615 47.1229 32.4007 46.9214 32.8554 46.7613C33.2998 46.5856 33.7544 46.4564 34.1988 46.3427C35.0875 46.1102 35.9814 46.0121 36.8442 45.9914C37.5366 46.0017 39.655 47.1746 41.05 47.2004C41.5254 47.2056 41.9542 46.9163 42.1506 46.4874C42.3469 46.0586 42.5381 44.8289 39.81 43.7025C38.7508 43.4131 37.5934 43.3098 36.5084 43.5836C35.4182 43.8213 34.4003 44.3018 33.5168 44.9219C32.6487 45.5574 31.853 46.3427 31.45 47.3296C31.4397 47.3554 31.45 47.3864 31.481 47.3968C31.4965 47.4019 31.5172 47.3968 31.5275 47.3968H31.5327Z" fill="#B8712A"/>
<path d="M30.0497 48.5594C30.122 48.425 31.4241 46.5133 31.5533 45.4748C31.8426 43.2168 33.713 44.5602 32.9896 45.8106C32.9896 45.8106 34.674 44.121 36.5186 45.3094C39.5464 47.2573 40.0476 52.9253 35.9451 51.5251C36.0949 51.7266 34.6999 55.2349 32.4833 53.5144C31.5119 54.1086 27.9313 51.5303 30.0497 48.5542V48.5594Z" fill="#B8712A"/>
<path d="M31.6619 53.4834C31.8789 53.752 33.0415 53.1113 32.4628 52.2795C32.0805 51.7266 31.6774 51.3701 31.6774 51.3701L32.6643 51.9488L33.4858 51.6698L32.8555 52.2226C33.15 52.3105 33.2947 54.1964 31.6671 53.4885L31.6619 53.4834Z" fill="#8A5B24"/>
<path d="M33.5632 47.3038C33.5632 47.3038 36.6736 48.6058 35.7074 51.8609C34.8859 54.7078 32.7313 53.6331 32.5608 53.473C33.1085 54.6458 35.6919 54.7027 36.2292 51.3752C36.3894 48.0736 34.3175 47.2986 33.5632 47.2986V47.3038Z" fill="#8A5B24"/>
<path d="M36.2138 51.2201C36.3585 51.4681 36.6375 51.6025 36.8958 51.6903C37.1645 51.773 37.459 51.7988 37.7432 51.7213C38.3425 51.556 38.6887 50.9256 38.8127 50.3573C39.0711 49.1586 38.7145 47.9443 38.1359 46.9316C37.5262 45.9448 36.5445 45.1181 35.3923 44.9734C34.2401 44.8132 33.1343 45.3454 32.3232 46.0894C33.2429 45.4953 34.3176 45.1026 35.3458 45.3144C36.3688 45.5108 37.242 46.2445 37.7845 47.1745C38.3477 48.0839 38.668 49.2257 38.5027 50.2901C38.4252 50.8171 38.172 51.3441 37.6863 51.5198C37.2265 51.6955 36.6065 51.618 36.2138 51.2305V51.2201Z" fill="#8A5B24"/>
<path d="M81.7959 72.642C81.7959 72.642 69.8398 70.2756 63.4743 76.1555C67.4166 70.3945 81.6977 66.8552 81.7959 72.642Z" fill="#28292B"/>
</g>
</svg>
