<svg width="78" height="78" viewBox="0 0 78 78" fill="none" xmlns="http://www.w3.org/2000/svg">
<mask id="mask0_2250_35428" style="mask-type:alpha" maskUnits="userSpaceOnUse" x="0" y="0" width="78" height="78">
<rect width="78" height="78" fill="#D9D9D9"/>
</mask>
<g mask="url(#mask0_2250_35428)">
<path fill-rule="evenodd" clip-rule="evenodd" d="M50.1262 26.599C50.3297 27.4112 50.2511 28.0084 50.2358 28.106C50.4065 28.512 50.5471 28.937 50.6537 29.3794C52.2932 34.5165 50.756 39.573 49.2081 44.565C52.8823 45.4293 57.3033 43.9669 60.757 40.6593C60.7586 40.5961 60.7662 40.5372 60.781 40.4865C60.8118 40.3852 60.857 40.2875 60.9167 40.1988C61.0706 39.8496 61.1683 39.1004 60.8027 38.3367C60.0246 37.269 61.6334 37.3125 61.9953 38.391V38.3928C62.1619 38.9273 62.0296 39.2488 61.9156 39.5257L61.9156 39.5258C61.8922 39.5827 61.8696 39.6376 61.8505 39.6921C61.8653 39.6879 61.9007 39.6746 61.9408 39.6595C62.0038 39.6359 62.0784 39.6079 62.1039 39.6034C62.6011 39.5162 63.0623 39.7255 63.196 40.0788L63.2032 40.0909L63.2091 40.1011L63.2144 40.1108C63.2416 40.1633 63.2633 40.2212 63.2687 40.2845C63.2742 40.3479 63.2615 40.4148 63.2307 40.4727C63.2163 40.4991 63.1996 40.5231 63.1811 40.5453L63.1752 40.5589L63.1847 40.5689C63.4239 40.7312 63.5269 41.0938 63.3684 41.3698C63.3426 41.4173 63.3098 41.4605 63.2719 41.4988C63.2909 41.5969 63.2887 41.695 63.2602 41.7931C63.2547 41.8115 63.2485 41.8295 63.2414 41.8471L63.2359 41.8643C63.216 41.9276 63.1834 41.9855 63.1436 42.0398C63.102 42.0905 63.055 42.1393 62.9989 42.1755C62.8885 42.2515 62.7636 42.2877 62.637 42.304C62.5121 42.3167 62.3927 42.3149 62.2714 42.3004C62.0504 42.2755 61.8217 42.1986 61.6484 42.0461C61.4937 41.9499 61.3425 41.8318 61.2164 41.7058C59.2598 43.5032 57.0113 44.7844 54.6676 45.4294C53.5474 45.7388 52.4399 45.8927 51.3704 45.8927L51.3741 45.8945C50.5182 45.8945 49.6861 45.7965 48.8876 45.6005C48.4196 47.1205 47.971 48.6345 47.6316 50.1431C47.2326 51.9848 47.0125 53.8621 46.7928 55.7355V55.7356L46.7928 55.7356L46.7927 55.7357L46.7927 55.7357L46.7927 55.7358L46.7927 55.7358L46.7927 55.7359L46.7927 55.736L46.7927 55.736L46.7927 55.7361L46.7926 55.7361L46.7926 55.7362L46.7926 55.7362C46.7453 56.1396 46.698 56.5429 46.649 56.9455C46.6109 57.3506 46.5811 57.7886 46.55 58.2453C46.387 60.6389 46.1891 63.5463 44.5857 64.9266C44.7455 65.6755 44.8979 66.5161 45.0663 67.4451L45.0663 67.4452L45.0824 67.5337L45.0935 67.5948L45.0935 67.5949C45.3562 69.0434 45.6515 70.6712 46.0789 72.6126C47.3179 72.7035 49.6293 73.3508 49.1717 74.3304C48.916 74.8781 46.2909 74.3418 45.4403 73.553C45.3114 73.487 45.2117 73.3665 45.1765 73.2141C44.6934 71.0637 44.3594 69.2185 44.0903 67.7322L44.0871 67.7147C43.9394 66.8977 43.8041 66.15 43.6672 65.4775C43.1041 65.6963 42.4244 65.7818 41.6019 65.6951C41.5055 65.6792 41.4095 65.6583 41.3139 65.6326C41.4058 66.1736 41.5129 66.7527 41.6232 67.3487L41.6233 67.3494L41.6381 67.4296C41.9512 69.118 42.2733 70.8643 42.362 72.2613C42.3642 72.2953 42.363 72.3288 42.3586 72.3614C42.516 73.4209 38.4853 73.8262 38.272 73.1096C37.9798 72.1315 40.056 71.8282 41.3172 71.8831C41.2007 70.6393 40.9236 69.1358 40.654 67.6731L40.654 67.6729L40.6539 67.6727L40.6428 67.6124C40.4785 66.7249 40.3207 65.8716 40.205 65.1127C36.2508 62.4676 33.2307 51.9543 32.0498 45.1191C31.1589 45.511 30.0182 45.8613 28.7864 45.8613L28.7882 45.8631C28.3883 45.8631 27.9793 45.8269 27.5649 45.7419C25.7267 45.3671 24.1977 44.1409 23.0238 42.097C22.8916 42.1016 22.7602 42.1051 22.6301 42.1085C22.3301 42.1164 22.0363 42.1241 21.7524 42.146C21.4375 42.1695 21.1389 42.2111 20.8638 42.289C20.7951 42.3089 20.7263 42.3288 20.663 42.3541L20.6281 42.3656C20.5731 42.3837 20.5183 42.4019 20.4585 42.4138C20.4362 42.4165 20.4143 42.4201 20.3922 42.4236C20.357 42.4293 20.3213 42.435 20.2828 42.4377C20.25 42.4446 20.2169 42.4507 20.1834 42.4559C20.0839 42.4722 19.9807 42.4776 19.8721 42.4595C19.8179 42.4487 19.7618 42.4324 19.7075 42.3962C19.6532 42.3618 19.6061 42.2967 19.5935 42.2261C19.5718 42.0849 19.6278 41.9745 19.6839 41.8841C19.7419 41.7918 19.816 41.714 19.8939 41.6452C20.0495 41.5077 20.225 41.3973 20.4114 41.314C20.5538 41.2497 20.7021 41.1994 20.8535 41.1632C20.7305 41.1291 20.6084 41.0975 20.4872 41.0697C20.4184 41.0512 20.3496 41.0387 20.2814 41.0264L20.2813 41.0264L20.2813 41.0263L20.2812 41.0263L20.2812 41.0263L20.2812 41.0263L20.2811 41.0263L20.2811 41.0263L20.2811 41.0263L20.281 41.0263L20.281 41.0263C20.1825 41.0085 20.0854 40.9909 19.9914 40.9557C19.9234 40.9327 19.8566 40.9069 19.7882 40.8734C18.4174 40.9826 16.9903 41.0655 16.6545 40.9708C16.3342 40.8803 16.0899 40.475 15.8854 39.6932C15.5575 38.4388 15.3613 36.0283 15.7163 35.5969C15.9495 35.0111 16.3791 34.5875 16.5842 34.3853L16.6201 34.3498C16.7593 34.2117 17.9231 34.0302 19.0986 33.8786C19.478 33.7581 19.8242 33.7221 20.0362 33.7123C20.0278 33.069 20.0035 32.4125 19.9745 31.8213C16.4036 31.755 13.1249 30.2465 10.7622 27.8105C10.6892 28.5105 10.611 29.2703 10.5366 30.0124C10.7024 30.3644 10.9688 30.5519 11.1745 30.6967C11.339 30.8125 11.4647 30.901 11.4694 31.0245C11.4784 31.2507 11.2649 31.4227 10.9084 31.2055C10.5519 30.9865 10.4759 30.6282 10.4759 30.6282C10.5376 31.0098 10.6874 31.2575 10.8061 31.454C10.9171 31.6377 11.0011 31.7766 10.9609 31.9384C10.9211 32.094 10.5664 32.1827 10.333 31.7411C10.038 31.1838 10.1104 30.6517 10.1104 30.6517C10.01 30.9653 10.0637 31.2927 10.1069 31.5556C10.1463 31.795 10.1768 31.9809 10.0742 32.0542C9.86607 32.199 9.54576 31.9619 9.57291 31.2544C9.59406 30.6411 9.87443 30.1991 9.99727 30.0338C10.0916 29.0962 10.1923 28.126 10.2813 27.2803C8.53175 25.2718 7.37149 22.7175 7.10343 19.8631C7.09447 19.7667 7.08659 19.6703 7.07978 19.5741C7.072 19.5033 7.06476 19.4323 7.05807 19.3612C6.96216 18.3478 6.9875 17.3489 7.11598 16.3789H7.11779L7.11896 16.3791C7.42261 14.0904 8.31904 11.9673 9.66199 10.1868L9.61133 10.1851L9.67733 10.1665C9.96868 9.78176 10.2809 9.4131 10.6126 9.06231L10.6211 8.80078L10.6713 9.00058C11.4538 8.18352 12.3423 7.46519 13.3178 6.86869L13.3164 6.86637C14.9758 5.85298 16.8868 5.18885 18.9552 4.99341C20.9766 4.80521 22.9328 5.08208 24.7207 5.73716L24.7202 5.73861C28.4199 7.09618 31.3894 10.0744 32.6793 13.891L32.6806 13.8906L32.7093 13.9764L32.7115 13.9753C33.0191 14.9036 33.2309 15.8772 33.3268 16.8924C33.3378 17.0103 33.3472 17.1279 33.3551 17.2453C33.3603 17.295 33.3652 17.3448 33.3699 17.3948C33.6588 20.4689 32.8657 23.3954 31.3064 25.7982C31.5381 26.5693 31.7967 27.4346 32.0445 28.2737C32.1959 28.4132 32.5533 28.7948 32.69 29.3939C32.8475 30.0834 32.5778 30.3765 32.348 30.2734C32.2322 30.2207 32.2278 30.0319 32.2222 29.7887C32.2159 29.5224 32.2082 29.1911 32.0512 28.9017C32.0512 28.9017 32.2213 29.412 32.0349 30.0146C31.8883 30.4923 31.521 30.4706 31.454 30.3258C31.384 30.1744 31.441 30.0217 31.5163 29.8201C31.5966 29.6048 31.6978 29.3337 31.6875 28.9487C31.6875 28.9487 31.6784 29.3143 31.3708 29.5966C31.0632 29.8771 30.8207 29.7468 30.7863 29.5242C30.7677 29.4023 30.8747 29.292 31.0148 29.1476C31.1898 28.9673 31.4163 28.7339 31.5143 28.3582C31.3161 27.6864 31.1113 26.9998 30.9194 26.3601C28.9334 29.1034 25.907 31.0759 22.3514 31.6506C22.3201 31.6558 22.2887 31.6609 22.2573 31.6659C22.3225 32.212 22.4014 32.8134 22.4924 33.4005C22.7001 33.3752 23.0516 33.3531 23.449 33.4151C24.8456 33.2933 26.0041 33.2215 26.1696 33.2767C26.2265 33.2956 26.8633 33.8616 27.1658 34.3818C27.3129 34.441 27.4357 34.6117 27.5485 35.2017C27.762 36.3128 27.9719 39.5846 27.5919 39.9049C27.4083 40.0603 25.5801 40.2931 23.9964 40.4689C23.9084 40.6004 23.8683 40.7869 23.8733 40.993C23.8751 41.107 23.8914 41.2247 23.9131 41.3459C23.9258 41.4074 23.9384 41.4671 23.9547 41.5323L23.9644 41.5704C24.976 43.3251 26.256 44.372 27.773 44.6833C29.3061 44.9977 30.8223 44.5094 31.8695 44.0113C31.6479 42.5558 31.5244 41.3247 31.5096 40.4544C31.4137 34.707 32.7148 28.2937 37.409 24.5133C37.8222 24.1938 38.2529 23.923 38.6959 23.6988C38.6974 23.6852 38.7005 23.6707 38.7051 23.6553C38.6713 23.4316 38.9315 23.1341 39.326 22.9525C39.8483 22.5422 40.6703 22.0934 41.6983 21.8671C39.7405 18.651 37.2089 11.8688 46.2184 6.74151C46.2184 6.74151 45.1887 8.39913 45.0457 9.48852C45.0457 9.48852 47.496 6.4031 52.3567 4.46137C55.7058 3.12424 60.9636 2.33165 65.6483 3.75322L65.6524 3.7529V3.75471L65.6451 3.7542C65.5941 3.75837 65.16 3.79788 64.5353 3.98041C63.1275 4.39242 60.7544 5.53004 59.6136 8.62081C58.9187 10.5018 59.133 12.3805 59.3527 14.3056C59.6438 16.8569 59.9443 19.4898 58.1496 22.3179C56.9988 24.1317 55.4652 25.1826 54.01 25.7887C52.4236 26.45 50.9299 26.5826 50.1262 26.599ZM20.4832 33.7119C20.4749 33.0692 20.4508 32.4137 20.422 31.822C20.769 31.8168 21.1186 31.7978 21.4701 31.7648C21.5949 31.753 21.718 31.7397 21.8394 31.7247C21.9078 32.2966 21.9911 32.9284 22.0877 33.5421C21.8476 33.5658 21.6074 33.5903 21.3704 33.6151C21.1576 33.6374 20.8463 33.6708 20.4832 33.7119ZM23.2135 40.5796L23.1916 40.5559L23.2149 40.5534L23.2135 40.5796Z" fill="#D9D9D9"/>
</g>
</svg>
