<svg width="78" height="78" viewBox="0 0 78 78" fill="none" xmlns="http://www.w3.org/2000/svg">
<mask id="mask0_2250_36212" style="mask-type:alpha" maskUnits="userSpaceOnUse" x="0" y="0" width="78" height="78">
<rect width="78" height="78" fill="#D9D9D9"/>
</mask>
<g mask="url(#mask0_2250_36212)">
<path fill-rule="evenodd" clip-rule="evenodd" d="M38.0038 22.8364C38.5765 22.3896 39.4722 21.9031 40.5904 21.6568C38.4471 18.1353 35.6764 10.7094 45.5407 5.09404C45.5407 5.09404 44.4128 6.90933 44.2568 8.10239C44.2568 8.10239 46.9392 4.72467 52.2626 2.59927C55.9281 1.13661 61.6805 0.269658 66.8076 1.82169L66.8182 1.82244L66.8118 1.82295L66.8184 1.82496C66.8184 1.82496 62.0481 2.16668 60.2071 7.15426C59.6839 8.57046 59.6313 9.98528 59.7277 11.4162C59.7364 11.5463 59.7464 11.6765 59.7574 11.8068C59.8013 12.3275 59.861 12.8505 59.921 13.3766L59.9211 13.3772C59.961 13.727 60.001 14.0782 60.0367 14.431C60.0581 14.6422 60.0779 14.8539 60.0952 15.0663C60.2798 17.3339 60.1759 19.6746 58.6032 22.1525C55.9263 26.3692 51.3622 26.8195 49.7407 26.8397C49.91 27.5621 49.882 28.1374 49.8525 28.4055C49.8619 28.4302 49.8712 28.4549 49.8804 28.4796L50.392 29.8821H50.396C50.7278 30.7868 50.8621 31.5966 50.9826 32.3907C51.0137 32.5652 51.0327 32.7367 51.0515 32.9064V32.9065L51.0515 32.9066L51.0516 32.9066L51.0516 32.9067L51.0596 32.9793C51.0833 33.1749 51.1031 33.3665 51.1149 33.5561C51.1367 33.9353 51.1544 34.3087 51.1663 34.68C51.1884 35.3203 51.1475 35.9357 51.1066 36.5489C51.1001 36.6469 51.0936 36.7449 51.0873 36.843C51.0261 37.5501 50.9115 38.2395 50.7949 38.9288C50.2545 41.6367 49.535 44.306 48.6514 47.0833C49.872 49.8716 52.3578 54.8926 55.3412 57.3231C55.436 57.3525 55.5328 57.3843 55.6287 57.4158L55.6288 57.4158L55.6288 57.4158C55.9885 57.5339 56.3342 57.6473 56.5031 57.6107C59.8168 56.887 58.6157 59.0471 56.5053 58.6734C56.6486 58.771 56.7695 58.8316 56.853 58.8306C57.2214 59.0607 57.6358 59.1413 58.0471 59.2213C58.4761 59.3047 58.9018 59.3874 59.2688 59.6385C59.2831 60.3826 58.4846 60.5038 57.5316 60.1994C57.7141 60.3024 57.8971 60.3997 58.0711 60.4922L58.0713 60.4923C58.162 60.5405 58.2503 60.5874 58.3348 60.6332C58.5678 60.7142 58.6093 61.0539 58.3802 61.1685C56.9442 61.5828 55.7151 60.3897 55.0401 59.0528C55.0341 60.0196 54.8508 61.0047 54.4469 61.0379C53.9782 60.8852 54.0989 60.3347 54.2124 59.8169C54.2706 59.5513 54.3269 59.2943 54.3008 59.1041C54.3272 58.7718 54.3448 58.3143 54.3566 57.8971C51.6843 55.5557 49.4822 51.4771 48.1641 48.6331C47.4415 51.0061 46.8145 53.473 46.5046 56.0012C46.3273 57.2347 46.1913 58.4813 46.0527 59.7511V59.7512L46.0526 59.7524C46.0199 60.0519 45.9871 60.3527 45.9535 60.6549C45.9229 61.0614 45.8775 61.4736 45.8317 61.8887L45.8317 61.8888L45.8317 61.8888L45.8317 61.8889V61.889V61.889V61.889V61.8891V61.8891V61.8891V61.8892V61.8892V61.8892V61.8893V61.8893L45.8317 61.8894L45.8316 61.8895L45.8316 61.8896L45.8316 61.8897L45.8316 61.8898L45.8316 61.8899L45.8316 61.89L45.8316 61.8901L45.8316 61.8902L45.8316 61.8903L45.8315 61.8904L45.8315 61.8905L45.8315 61.8906L45.8315 61.8907L45.8315 61.8908L45.8315 61.8909L45.8315 61.8911L45.8315 61.8912L45.8315 61.8913L45.8314 61.8914L45.8314 61.8915L45.8314 61.8916L45.8314 61.8917L45.8314 61.8918L45.8314 61.8919L45.8314 61.892L45.8314 61.8921L45.8314 61.8922L45.8313 61.8923L45.8313 61.8924L45.8313 61.8925L45.8313 61.8926L45.8313 61.8927C45.7887 62.2791 45.7459 62.668 45.7145 63.0569C45.6474 63.8647 45.5763 64.6825 45.4656 65.524L45.4202 65.8677C45.284 66.8983 44.8009 67.7981 44.1038 68.465C44.5474 69.4472 45.1764 70.3592 45.9358 71.1168C46.2815 71.4605 46.6489 71.6877 47.0282 71.7943C47.4884 71.9227 48.1679 71.0595 49.0528 69.2324L49.114 69.1072L49.1141 69.107L49.1652 69.0024C49.1775 68.9773 49.1895 68.9532 49.201 68.9302C49.3442 68.6438 49.6799 68.5185 49.9726 68.6317C51.0022 68.8218 52.8084 71.499 52.3453 71.9845C51.7021 72.6599 50.5737 71.3731 49.9165 70.2672C49.3205 71.452 48.3869 73.0379 47.1259 73.0388C46.988 73.0387 46.8481 73.0189 46.7022 72.9795C46.1156 72.8175 45.5664 72.4837 45.0687 71.9879C44.2604 71.1813 43.5838 70.2249 43.0871 69.1929C42.4422 69.528 41.7089 69.7065 40.9437 69.685C41.028 70.1621 41.1202 70.6608 41.2148 71.1703L41.2158 71.1756C41.547 72.9677 41.8892 74.8188 41.9994 76.3225C42.0513 76.4639 42.0346 76.5959 41.964 76.7177C41.909 76.8439 41.8081 76.9462 41.6809 77.0025C40.6392 77.721 37.6204 77.9083 37.5686 77.2464C37.0324 76.268 39.4075 75.8954 40.8529 75.9277C40.7183 74.5748 40.4198 72.9593 40.1295 71.3884L40.1264 71.3718L40.104 71.2503C39.9923 70.6443 39.8836 70.0547 39.7878 69.497C38.7807 69.1904 37.9366 68.5343 37.3828 67.6948C36.8732 66.9146 36.4031 66.1126 35.9369 65.2988C35.7707 65.0232 35.6304 64.7392 35.4894 64.4539L35.4893 64.4536C35.4242 64.3219 35.359 64.1899 35.291 64.0583C35.0777 63.6415 34.8782 63.2208 34.6787 62.7981C34.3638 62.1742 34.1086 61.533 33.852 60.888C33.7625 60.6631 33.6729 60.4377 33.5804 60.2125C33.2952 59.545 33.0706 58.8623 32.8448 58.1761C32.7766 57.9689 32.7083 57.7613 32.6382 57.5537C31.5222 53.9647 30.4555 50.2314 29.8392 46.3717C29.7923 46.0746 29.7495 45.7769 29.7107 45.4789C27.8193 48.0365 25.2995 49.9916 23.761 49.2206C23.4528 49.0646 23.2217 48.8295 23.0677 48.5155L23.0696 48.5174C22.5981 47.5531 22.6408 45.6886 23.616 43.2478C23.5275 43.2505 23.4394 43.2528 23.3517 43.2551H23.3517H23.3516H23.3516H23.3516H23.3515H23.3515C23.0243 43.2637 22.7039 43.2721 22.3942 43.296C22.0507 43.3217 21.7249 43.3671 21.4249 43.452C21.3499 43.4737 21.2748 43.4954 21.2057 43.523L21.1678 43.5355C21.1077 43.5554 21.0479 43.5751 20.9827 43.5882C20.9584 43.5911 20.9345 43.595 20.9104 43.5989L20.9103 43.5989L20.9102 43.5989L20.9102 43.5989L20.9101 43.5989L20.91 43.5989L20.9099 43.5989L20.9099 43.5989C20.8726 43.6049 20.8347 43.611 20.7942 43.614C20.7575 43.6218 20.7204 43.6287 20.683 43.6344C20.5744 43.6522 20.4619 43.6581 20.3434 43.6384C20.2842 43.6266 20.223 43.6088 20.1638 43.5693C20.1045 43.5318 20.0532 43.4607 20.0394 43.3837C20.0249 43.2896 20.0421 43.208 20.0717 43.1363C19.8677 43.2802 19.6584 43.4243 19.4497 43.563C19.4342 43.6019 19.4063 43.6401 19.3589 43.6717C19.1839 43.7868 18.2455 43.6352 17.6887 42.9675C17.1307 42.2986 17.8388 42.043 18.4607 42.4219C18.8586 42.6646 19.1489 42.9769 19.3067 43.1708C19.8228 42.8234 20.3375 42.4485 20.7575 42.1329C18.8861 41.6757 17.5176 40.2232 17.5176 38.5016C17.5176 36.8355 18.799 35.4216 20.5776 34.9177C20.1062 34.1926 19.4271 32.8634 19.7516 31.5954C19.9967 30.6336 20.9091 30.0778 21.7656 29.556C22.5753 29.0628 23.3351 28.5999 23.4339 27.8533C23.6391 26.3169 22.5466 24.9136 21.0474 24.9802C19.5464 25.0468 18.7959 25.9157 18.7959 26.8512C18.7959 27.0094 18.8232 27.202 18.8534 27.4151C19.002 28.4624 19.2209 30.005 16.6127 30.3936C13.4757 30.8614 11.4978 28.456 12.1115 24.8471C12.7252 21.2381 15.8622 17.8972 21.4559 17.9638C27.0497 18.0304 30.9372 21.6393 31.0056 25.7826C31.074 29.9259 28.2438 31.1942 25.8906 32.1316C23.9027 32.9216 23.2152 33.5707 23.6077 34.9651C25.3039 35.5061 26.51 36.8852 26.51 38.5016C26.51 39.1258 26.3302 39.7146 26.0116 40.2334C26.075 40.3242 26.0875 40.4463 26.0345 40.5524C26.0266 40.5702 26.0167 40.586 26.0049 40.5998L25.9851 40.6254C25.9298 40.6985 25.8726 40.7498 25.8153 40.7992C25.76 40.8485 25.7068 40.8919 25.6534 40.9295C25.5707 40.9931 25.4866 41.0414 25.4096 41.0856C25.391 41.0963 25.3729 41.1067 25.3553 41.117L25.2628 41.1675L25.2625 41.1676C25.2035 41.1999 25.1477 41.2304 25.0928 41.2591L25.0837 41.264C25.0192 41.3146 24.953 41.3637 24.8851 41.4112L24.8767 41.4209L24.8717 41.427C24.7552 41.5711 24.7019 41.7922 24.7078 42.0389C24.7098 42.1633 24.7276 42.2916 24.7513 42.4239C24.7651 42.491 24.7789 42.5562 24.7967 42.6272L24.8243 42.7358L24.834 42.7746C24.8394 42.7866 24.8438 42.7987 24.8473 42.811C24.9732 42.6606 25.1269 42.5022 25.3053 42.3642C25.8478 41.9449 26.4657 42.2278 25.9789 42.9678C25.589 43.5607 24.9846 43.7859 24.6822 43.7858C23.5085 46.7626 23.9829 47.9983 24.2963 48.156C24.9698 48.4937 27.4418 47.0291 29.5233 43.6348C29.3055 40.6665 29.4885 37.6772 30.0743 34.7709C30.258 33.8188 30.5345 32.8845 30.8605 31.968C31.1725 31.0475 31.5874 30.1566 32.0436 29.2875C32.9878 27.5572 34.1651 25.9157 35.8895 24.5567C36.3405 24.2009 36.815 23.8952 37.3063 23.6388C37.3082 23.6298 37.3106 23.6205 37.3136 23.6109C37.2772 23.3634 37.5661 23.0357 38.0038 22.8364ZM21.2972 42.2347L21.254 42.2676C21.2849 42.2583 21.3158 42.2494 21.347 42.2412L21.2972 42.2347Z" fill="#D9D9D9"/>
</g>
</svg>
