<svg width="60" height="34" viewBox="0 0 60 34" fill="none" xmlns="http://www.w3.org/2000/svg">
<path fill-rule="evenodd" clip-rule="evenodd" d="M20.8335 3.50031H40.0002C41.9332 3.50031 43.5002 5.06731 43.5002 7.00031V26.167C43.5002 28.1 41.9332 29.667 40.0002 29.667H20.8335C19.4481 29.667 18.2506 28.862 17.6834 27.6943L26.306 15.4765L27.0843 21.7652C27.1212 22.0639 27.3332 22.3116 27.6227 22.3943C27.9121 22.4769 28.2229 22.3785 28.412 22.1443L37.5836 10.7893V14.8278C37.5836 15.2421 37.9194 15.5778 38.3336 15.5778C38.7478 15.5778 39.0836 15.2421 39.0836 14.8278V8.66713C39.0836 8.25292 38.7478 7.91713 38.3336 7.91713H33.0811C32.6669 7.91713 32.3311 8.25292 32.3311 8.66713C32.3311 9.08135 32.6669 9.41713 33.0811 9.41713H36.7638L28.3558 19.8267L27.5563 13.3667C27.5182 13.0592 27.295 12.8067 26.9944 12.7313C26.6938 12.6559 26.3779 12.7732 26.1992 13.0263L17.3335 25.5886V7.0003C17.3335 5.06731 18.9005 3.50031 20.8335 3.50031ZM16.007 27.4774C15.8939 27.0597 15.8335 26.6204 15.8335 26.167V7.0003C15.8335 4.23888 18.0721 2.00031 20.8335 2.00031H40.0002C42.7616 2.00031 45.0002 4.23888 45.0002 7.00031V26.167C45.0002 28.9284 42.7616 31.167 40.0002 31.167H20.8335C18.9338 31.167 17.2816 30.1076 16.4354 28.5474C16.3655 28.5246 16.2977 28.4912 16.2345 28.4466C15.9208 28.2252 15.8285 27.8069 16.007 27.4774Z" fill="black"/>
</svg>
