<svg width="20" height="20" viewBox="0 0 20 20" fill="none" xmlns="http://www.w3.org/2000/svg">
<path d="M12.045 15.6414C12.0488 15.9136 11.9992 16.1839 11.8992 16.4366C11.7992 16.6892 11.6507 16.9192 11.4625 17.1131C11.2742 17.3069 11.0499 17.4609 10.8025 17.566C10.5552 17.6711 10.2897 17.7252 10.0216 17.7252C9.75345 17.7252 9.488 17.6711 9.24064 17.566C8.99328 17.4609 8.76895 17.3069 8.58069 17.1131C8.39243 16.9192 8.24398 16.6892 8.14397 16.4366C8.04397 16.1839 7.9944 15.9136 7.99815 15.6414V13.1148H12.045V15.6414ZM10.3646 14.3011C10.3646 14.3984 10.3931 14.4936 10.4463 14.5745C10.4995 14.6554 10.5752 14.7184 10.6637 14.7557C10.7522 14.7929 10.8496 14.8027 10.9436 14.7837C11.0376 14.7647 11.1239 14.7178 11.1917 14.649C11.2594 14.5802 11.3056 14.4926 11.3242 14.3971C11.3429 14.3017 11.3333 14.2028 11.2967 14.1129C11.26 14.023 11.1979 13.9461 11.1182 13.8921C11.0386 13.838 10.9449 13.8092 10.8491 13.8092C10.7206 13.8092 10.5974 13.861 10.5065 13.9533C10.4157 14.0455 10.3646 14.1707 10.3646 14.3011ZM10.0483 15.3602C10.0483 15.4138 10.0639 15.4661 10.0932 15.5106C10.1225 15.5551 10.1641 15.5898 10.2128 15.6103C10.2615 15.6308 10.3151 15.6362 10.3668 15.6257C10.4185 15.6153 10.466 15.5895 10.5033 15.5516C10.5406 15.5138 10.566 15.4655 10.5762 15.413C10.5865 15.3605 10.5813 15.3061 10.5611 15.2566C10.5409 15.2072 10.5067 15.1649 10.4629 15.1351C10.4191 15.1054 10.3675 15.0895 10.3148 15.0895C10.2441 15.0895 10.1763 15.118 10.1263 15.1688C10.0764 15.2196 10.0483 15.2884 10.0483 15.3602ZM13.742 0.714303H6.24937C6.03747 0.713519 5.82753 0.755475 5.63173 0.837738C5.43592 0.92 5.25815 1.04093 5.10873 1.19351C4.9593 1.3461 4.8412 1.5273 4.76128 1.7266C4.68135 1.92589 4.6412 2.13933 4.64313 2.35451C4.64507 2.5697 4.68907 2.78235 4.77257 2.98013C4.85607 3.17792 4.97741 3.35689 5.12955 3.50667C5.2817 3.65646 5.46162 3.77407 5.65887 3.85268C5.85613 3.93129 6.06679 3.96934 6.27864 3.96462H6.45779V15.6667C6.45894 16.6261 6.83476 17.5459 7.50281 18.2244C8.17086 18.9028 9.07661 19.2845 10.0214 19.2857C10.9662 19.2845 11.8719 18.9028 12.54 18.2244C13.208 17.5459 13.5838 16.6261 13.585 15.6667V3.96502H13.7716C13.9818 3.96305 14.1896 3.91905 14.383 3.83554C14.5764 3.75203 14.7518 3.63064 14.899 3.47832C15.0462 3.32599 15.1625 3.1457 15.2411 2.94775C15.3198 2.74979 15.3592 2.53805 15.3573 2.3246C15.3553 2.11116 15.312 1.90019 15.2298 1.70375C15.1475 1.50731 15.028 1.32924 14.878 1.17971C14.728 1.03018 14.5505 0.912118 14.3556 0.832263C14.1607 0.752408 13.9522 0.712325 13.742 0.714303ZM12.8015 4.89839H11.2513C11.2063 4.90142 11.1642 4.92202 11.1339 4.95587C11.1036 4.98972 11.0873 5.03418 11.0885 5.07994C11.0897 5.1257 11.1084 5.1692 11.1405 5.20132C11.1726 5.23343 11.2157 5.25168 11.2608 5.25222H12.8031V6.27073H11.2529C11.2294 6.27045 11.2061 6.27498 11.1844 6.28406C11.1627 6.29314 11.143 6.30657 11.1265 6.32356C11.1101 6.34055 11.0972 6.36074 11.0885 6.38292C11.0799 6.4051 11.0758 6.42882 11.0765 6.45266C11.0771 6.47649 11.0825 6.49994 11.0923 6.52162C11.102 6.54329 11.116 6.56274 11.1334 6.57879C11.1508 6.59484 11.1711 6.60717 11.1933 6.61503C11.2154 6.6229 11.2389 6.62614 11.2624 6.62456H12.8047V7.64387H11.2545C11.2095 7.64691 11.1674 7.66751 11.1371 7.70135C11.1067 7.7352 11.0905 7.77966 11.0917 7.82542C11.0929 7.87118 11.1115 7.91468 11.1436 7.9468C11.1758 7.97892 11.2189 7.99716 11.264 7.9977H12.8063V9.01621H11.256C11.2111 9.01924 11.169 9.03984 11.1386 9.07369C11.1083 9.10754 11.092 9.152 11.0933 9.19776C11.0945 9.24352 11.1131 9.28702 11.1452 9.31914C11.1773 9.35126 11.2205 9.3695 11.2655 9.37004H12.8079V10.3894H11.2576C11.2341 10.3891 11.2109 10.3936 11.1892 10.4027C11.1674 10.4118 11.1478 10.4252 11.1313 10.4422C11.1148 10.4592 11.1019 10.4794 11.0933 10.5015C11.0847 10.5237 11.0806 10.5474 11.0812 10.5713C11.0819 10.5951 11.0872 10.6186 11.097 10.6402C11.1068 10.6619 11.1208 10.6814 11.1381 10.6974C11.1555 10.7135 11.1759 10.7258 11.198 10.7337C11.2202 10.7415 11.2437 10.7448 11.2671 10.7432H12.8095V11.7629H11.2592C11.2357 11.7626 11.2124 11.7671 11.1907 11.7762C11.169 11.7853 11.1493 11.7987 11.1329 11.8157C11.1164 11.8327 11.1035 11.8529 11.0949 11.8751C11.0863 11.8973 11.0822 11.921 11.0828 11.9448C11.0834 11.9687 11.0888 11.9921 11.0986 12.0138C11.1084 12.0355 11.1224 12.0549 11.1397 12.071C11.1571 12.087 11.1775 12.0993 11.1996 12.1072C11.2218 12.1151 11.2453 12.1183 11.2687 12.1167H12.811V15.6675C12.811 16.4164 12.5181 17.1346 11.9966 17.6642C11.4752 18.1937 10.7679 18.4913 10.0305 18.4913C9.29303 18.4913 8.58578 18.1937 8.06432 17.6642C7.54287 17.1346 7.24991 16.4164 7.24991 15.6675V3.96502H12.8015V4.89839ZM13.742 3.17142H6.27824C6.06144 3.17142 5.85352 3.08396 5.70022 2.92828C5.54692 2.77259 5.4608 2.56144 5.4608 2.34127C5.4608 2.1211 5.54692 1.90995 5.70022 1.75426C5.85352 1.59858 6.06144 1.51112 6.27824 1.51112H13.742C13.9588 1.51112 14.1667 1.59858 14.32 1.75426C14.4733 1.90995 14.5594 2.1211 14.5594 2.34127C14.5594 2.56144 14.4733 2.77259 14.32 2.92828C14.1667 3.08396 13.9588 3.17142 13.742 3.17142Z" fill="white"/>
</svg>
