<svg width="78" height="78" viewBox="0 0 78 78" fill="none" xmlns="http://www.w3.org/2000/svg">
<mask id="mask0_2250_35172" style="mask-type:alpha" maskUnits="userSpaceOnUse" x="0" y="0" width="78" height="78">
<rect width="78" height="78" fill="#D9D9D9"/>
</mask>
<g mask="url(#mask0_2250_35172)">
<path fill-rule="evenodd" clip-rule="evenodd" d="M41.244 11.0789C40.1367 10.8887 37.897 10.8977 37.5489 12.8161C37.2355 14.5341 37.9051 15.5786 39.47 15.992C39.0425 18.006 38.6744 20.0419 38.374 22.0964C38.1501 20.6082 37.567 19.2071 36.6961 18.0078L36.6964 18.01C36.2279 17.3651 35.676 16.7789 35.0517 16.2694L35.052 16.269C34.0129 15.4201 32.7729 14.7848 31.382 14.4457C29.9701 14.102 28.5546 14.1011 27.225 14.3868L27.2246 14.3848C26.4274 14.557 25.6605 14.833 24.9425 15.2014L24.9543 15.0625L24.8907 15.2281C24.5866 15.3866 24.2914 15.5616 24.0066 15.7524L23.9619 15.7498L23.9928 15.7617C22.6878 16.6392 21.6011 17.8478 20.8712 19.3027L20.8708 19.3026V19.3008C20.5604 19.9163 20.3145 20.5768 20.144 21.2749C20.1289 21.3367 20.1144 21.3985 20.1007 21.4604C20.0867 21.5135 20.0731 21.5669 20.06 21.6206C19.5802 23.585 19.7654 25.554 20.4677 27.2941C20.213 27.8376 19.9218 28.4615 19.6428 29.0649C19.5218 29.1479 19.2358 29.3773 19.0801 29.7791C18.8989 30.2439 19.0586 30.4754 19.2291 30.427C19.3145 30.4022 19.3369 30.2713 19.3657 30.1029C19.3975 29.9174 19.4371 29.6862 19.5772 29.5009C19.5772 29.5009 19.4067 29.8383 19.4749 30.278C19.5288 30.6262 19.7854 30.6495 19.8482 30.5544C19.9124 30.4563 19.8885 30.3444 19.8569 30.1961C19.823 30.0378 19.7803 29.8379 19.8267 29.5691C19.8267 29.5691 19.7962 29.8258 19.981 30.0537C20.1677 30.2816 20.3507 30.2152 20.3974 30.0626C20.4228 29.9794 20.3595 29.8915 20.2766 29.7764C20.1728 29.6322 20.0381 29.4452 20.0085 29.1711C20.2293 28.6939 20.4566 28.2061 20.6666 27.757C21.68 29.9235 23.5156 31.684 25.8796 32.5512C25.7625 32.9521 25.6274 33.3956 25.4846 33.8267C25.3499 33.787 25.1311 33.7354 24.8726 33.7233C23.6147 33.4395 22.5993 33.2421 22.4814 33.2988C22.3085 33.3819 22.0062 34.2788 21.8362 35.1522C21.5485 36.1215 21.3184 37.5234 21.6482 37.7523C21.8686 37.9046 23.2875 38.2912 24.8243 38.667C24.8187 38.6851 24.8156 38.7044 24.8156 38.7245C24.8103 38.8519 24.9107 38.9578 25.0364 38.9632H25.0812L25.4805 38.9769C25.298 39.0441 25.1235 39.1323 24.9646 39.2495C24.8407 39.3446 24.7205 39.4559 24.6559 39.6103C24.6254 39.6856 24.6146 39.7789 24.6505 39.8561C24.6542 39.8645 24.6582 39.8725 24.6626 39.8802C24.6976 39.9763 24.7928 40.0425 24.9 40.0366H24.9161C25.0733 40.0276 25.2068 39.9987 25.3363 39.9706C25.3621 39.965 25.3876 39.9594 25.4132 39.9541C25.5248 39.9294 25.6307 39.9001 25.7364 39.8708L25.7364 39.8708L25.7365 39.8708C25.777 39.8596 25.8175 39.8484 25.8583 39.8374C26.1526 39.7549 26.4595 39.7208 26.7754 39.7208C26.7967 39.7209 26.8181 39.7212 26.8395 39.7216C26.6956 39.7814 26.5591 39.859 26.4344 39.9533C26.2083 40.1255 26.0145 40.3481 25.9158 40.6244C25.8925 40.6926 25.8763 40.7662 25.8763 40.8416C25.8745 40.917 25.8925 40.9977 25.9391 41.0623C25.9632 41.0979 25.9955 41.1248 26.0311 41.1442C26.0972 41.2005 26.1908 41.2201 26.2778 41.187L26.295 41.1803C26.3087 41.1784 26.3223 41.1761 26.3357 41.1736H26.3375L26.3156 41.1722L26.3191 41.1708C26.3908 41.1439 26.4465 41.1116 26.4985 41.0793C26.5389 41.0585 26.5736 41.0348 26.6074 41.0117L26.6075 41.0117C26.6203 41.003 26.6329 40.9943 26.6457 40.986C26.7272 40.9343 26.7964 40.8771 26.8664 40.8192L26.8969 40.794C27.0584 40.6612 27.2469 40.5535 27.4586 40.4673C27.6704 40.3812 27.9019 40.3166 28.1442 40.2645C28.1877 40.255 28.2315 40.2459 28.2755 40.2372C30.1376 41.3717 32.5837 41.3194 34.6878 40.8144C35.6617 40.5804 36.6666 40.1921 37.5789 39.6539C37.6385 40.6544 37.7168 41.6544 37.8142 42.6527C38.1157 45.7431 38.5984 48.8191 39.2588 51.8484C39.8444 54.5312 41.5293 56.6408 43.6951 57.7702C45.0131 61.5175 45.781 64.0948 46.0767 65.1283C44.6204 65.0647 42.2225 65.4147 42.5594 66.546C42.8167 67.4112 47.8869 66.8605 47.2244 65.5112C47.2254 65.464 47.2198 65.4159 47.2069 65.368C47.2001 65.3394 46.5009 62.742 44.9647 58.301C46.3206 58.7361 47.8005 58.8118 49.2818 58.4472C49.9062 58.2935 50.498 58.0696 51.0515 57.7853C52.3992 61.6137 53.611 65.0366 53.9286 65.9335L53.9937 66.1174C53.9397 67.3069 58.2523 68.357 58.6071 67.5977C59.1529 66.4301 56.2906 65.6719 54.901 65.6062C54.5861 64.6895 53.3723 61.1612 51.9906 57.2204C54.808 55.2592 56.3319 51.6031 55.5684 47.9307L55.563 47.9056C54.5957 43.2647 54.1848 38.5089 54.3122 33.7191C54.4378 28.9292 55.1 24.107 56.2019 19.3262V19.3172C56.2127 19.2704 56.2219 19.2236 56.2294 19.1769C56.3634 19.2198 56.4968 19.2632 56.6293 19.3073C57.7276 19.6716 59.2495 18.8909 59.5402 17.6742C59.831 16.4592 59.2064 15.2191 57.5823 14.5461C50.3419 11.8517 42.9173 11.2195 41.3703 11.0878L41.2458 11.0771L41.244 11.0789ZM34.8196 31.1522C35.4729 30.6427 36.0604 30.0451 36.5618 29.3715C36.6541 30.6604 36.9621 31.8858 37.4527 33.0229C37.4503 33.1371 37.4482 33.2513 37.4463 33.3655C37.4183 35.0279 37.4396 36.695 37.5122 38.3617C36.6503 38.9475 35.6529 39.368 34.7112 39.6496C33.0273 40.1544 30.7703 40.3215 29.1136 39.4546C29.3313 39.094 29.749 37.7617 29.9303 36.8669C30.1604 36.0382 30.3255 35.2086 30.1983 35.1114C30.1054 35.0404 29.1244 34.7662 27.8906 34.4511C27.6175 34.294 27.3492 34.2186 27.1927 34.1848C27.2675 33.7733 27.3535 33.3554 27.4359 32.9772C29.9599 33.4373 32.4565 32.8216 34.4311 31.4398C34.4116 31.9078 34.3899 32.4096 34.3673 32.9002C34.2154 33.1307 34.0094 33.2347 33.8504 33.315C33.724 33.3788 33.6274 33.4276 33.6112 33.513C33.5825 33.6691 33.7136 33.8109 33.9845 33.696C34.2555 33.5794 34.3453 33.3371 34.3453 33.3371C34.2636 33.597 34.1339 33.7546 34.031 33.8798C33.9348 33.9966 33.862 34.0851 33.8733 34.2021C33.884 34.3152 34.1227 34.4121 34.3309 34.1285C34.5947 33.7696 34.5983 33.3909 34.5983 33.3909C34.6359 33.621 34.5648 33.8442 34.5078 34.0232C34.4559 34.1863 34.4157 34.3128 34.4799 34.3744C34.6091 34.4964 34.8567 34.3636 34.9106 33.8683C34.9575 33.4435 34.8114 33.1098 34.7413 32.9781C34.7693 32.3598 34.7964 31.7211 34.8196 31.1522ZM37.6198 28.4746C37.6404 28.5324 37.6522 28.5973 37.6529 28.6694L37.6532 28.6969C37.6594 28.6108 37.6657 28.5247 37.6721 28.4386C37.6547 28.4508 37.6373 28.4628 37.6198 28.4746ZM26.8038 32.837C26.5916 32.7832 26.383 32.7224 26.178 32.655C26.0602 33.0575 25.9243 33.5017 25.7808 33.9331C26.1477 34.0197 26.5214 34.1098 26.8884 34.2001C26.9662 33.765 27.0573 33.3201 27.1445 32.9193C27.0596 32.9011 26.9747 32.8816 26.8898 32.8608C26.8731 32.8569 26.8574 32.8524 26.8419 32.848L26.8419 32.848C26.8292 32.8443 26.8166 32.8407 26.8037 32.8375L26.8038 32.837Z" fill="#D9D9D9"/>
</g>
</svg>
