<svg width="78" height="78" viewBox="0 0 78 78" fill="none" xmlns="http://www.w3.org/2000/svg">
<mask id="mask0_2250_36362" style="mask-type:alpha" maskUnits="userSpaceOnUse" x="0" y="0" width="78" height="78">
<rect width="78" height="78" fill="#D9D9D9"/>
</mask>
<g mask="url(#mask0_2250_36362)">
<path fill-rule="evenodd" clip-rule="evenodd" d="M41.108 10.3536C35.6921 9.85496 31.157 9.89992 29.7918 10.3863C27.1901 11.1119 27.4456 14.7293 29.2032 15.5754C29.5593 15.7998 30.2166 16.0395 31.1184 16.2782C30.4518 23.0839 30.1452 30.0996 30.1793 36.6669C28.8882 38.1073 27.6163 38.771 26.4385 38.601C24.3641 38.3027 22.821 35.5681 22.2917 33.8023C22.2762 33.7501 22.2539 33.7016 22.2261 33.6576C22.2519 33.5289 22.28 33.4025 22.3176 33.2895C22.3953 33.0525 22.4995 32.8542 22.6365 32.7112C22.7754 32.5742 22.9349 32.4598 23.1535 32.4025C23.2026 32.3821 23.2578 32.3699 23.317 32.3576C23.3743 32.3433 23.4294 32.3228 23.4867 32.2942L23.4929 32.2918C23.6096 32.2455 23.7342 32.1961 23.8648 32.0796L23.9097 32.0408C23.9322 32.0204 23.9506 31.9979 23.9669 31.9713C24.0551 31.827 24.0136 31.6394 23.8731 31.5474C26.3278 30.4083 27.974 27.873 27.8789 24.9842C27.7685 21.6672 25.3263 18.9715 22.1769 18.3727H22.1748L22.0741 15.3401L22.1486 15.3376C22.7025 15.3192 23.1378 14.8492 23.1194 14.2953C23.1133 14.0807 23.0397 13.8804 22.9089 13.7128C22.7127 13.4594 22.402 13.3143 22.0812 13.3245L19.0278 13.4267C18.7601 13.4349 18.5108 13.5473 18.3268 13.7414C18.1429 13.9397 18.0468 14.1952 18.055 14.4629C18.0632 14.6754 18.1347 14.8778 18.2676 15.0474L18.2696 15.0494C18.4658 15.3029 18.7744 15.448 19.0953 15.4378L19.1229 15.4368L19.2236 18.4707C16.1212 19.278 13.8936 22.129 14.0039 25.446C14.0843 27.848 15.3661 29.9259 17.2539 31.1173C17.2535 31.1781 17.2714 31.2383 17.306 31.2895C17.2261 31.3482 17.16 31.439 17.1535 31.5438C17.1488 31.6033 17.1586 31.6561 17.1754 31.7046C17.1855 31.7539 17.2075 31.8013 17.2415 31.8428L17.2457 31.8504L17.2536 31.8646C17.3098 31.9528 17.3777 32.0292 17.4497 32.0996L17.4519 32.1038H17.4539L17.4497 32.0996L17.4452 32.0912L17.4451 32.0911C17.4299 32.0626 17.4143 32.0335 17.3991 32.0041C17.6917 32.267 17.9857 32.3502 18.2898 32.4363L18.2899 32.4363L18.29 32.4364C18.3268 32.4468 18.3636 32.4572 18.4007 32.468C18.7829 32.5947 19.1569 32.748 19.5227 32.9319C19.8886 33.1159 20.2442 33.3284 20.5977 33.5573C20.7811 33.6778 20.9628 33.8044 21.1457 33.9339C21.1414 34.0014 21.1489 34.0709 21.1697 34.1396C21.7011 35.9053 23.4505 39.3552 26.275 39.7619C26.4589 39.7905 26.6428 39.8028 26.8268 39.8028L26.8227 39.8007C27.9511 39.8007 29.0781 39.3022 30.1951 38.3114C30.2763 44.0933 30.6269 49.475 31.2331 53.9905C31.6634 57.1972 33.6934 59.7971 36.4111 61.0946C35.9666 63.2478 35.8777 66.3802 36.6965 69.9679C35.0353 69.9016 32.3395 70.303 32.7209 71.5836C32.9581 72.3812 36.7861 72.1223 37.8366 71.1798C38.0599 71.0389 38.1768 70.7651 38.1055 70.4966C37.1494 66.8693 37.1754 63.7083 37.5844 61.5592C38.4512 61.8353 39.3684 61.9858 40.3114 61.9917C40.7385 61.9938 41.1697 61.9672 41.6051 61.9079C42.6989 61.761 43.7222 61.428 44.6473 60.9451C44.9322 61.7883 45.2493 62.7422 45.5757 63.7261L45.5972 63.7905L45.5972 63.7905L45.5972 63.7906L45.5972 63.7907L45.5972 63.7907L45.5973 63.7908L45.5973 63.7909L45.5973 63.7909L45.5973 63.791C46.3774 66.1374 47.1805 68.5528 47.6645 69.8124C47.6812 69.8563 47.7024 69.8972 47.7272 69.9349C47.8284 71.261 52.5827 72.4027 52.98 71.5525C53.5942 70.2386 50.4188 69.38 48.8165 69.2876C48.3542 68.0727 47.6052 65.8216 46.866 63.5997L46.866 63.5996L46.8659 63.5995L46.7754 63.3276L46.63 62.8906L46.6297 62.8898L46.6292 62.8882C46.3178 61.9525 46.0189 61.0547 45.7513 60.2656C48.4338 58.3408 49.9928 55.036 49.5225 51.5359C49.0744 48.1937 48.7766 44.2374 48.6635 39.9459C48.7295 39.9399 48.795 39.9253 48.8582 39.9018L49.0128 39.8452L50.2921 43.3416C49.9259 43.4975 49.9305 43.9811 50.5395 44.2517C50.5725 44.2664 50.6061 44.2801 50.6402 44.2929L50.8668 44.9122C50.3752 45.2562 50.4034 45.8931 51.1792 45.8774C51.1926 45.8772 51.2061 45.8768 51.2195 45.8763L52.0326 48.0984C52.1757 48.4867 52.4332 48.8014 52.7541 49.018L52.752 49.0201C53.2364 49.345 53.8679 49.4431 54.4585 49.2265C54.9327 49.0528 55.3128 48.7053 55.5254 48.2455C55.7379 47.7877 55.7624 47.2727 55.5867 46.7985L54.665 44.278C54.7942 43.9394 54.9072 43.5845 55.0123 43.2219C56.5003 41.0304 56.8588 38.8292 56.0215 37.0032C55.3328 35.501 53.5261 33.6167 48.8296 33.163C48.7641 33.1568 48.7 33.1608 48.6389 33.1737C48.7303 28.2029 49.0621 23.0025 49.679 17.9334C50.3403 17.8663 50.8615 17.7716 51.2613 17.6559C53.489 17.2983 53.7935 13.035 51.7579 12.2809C50.9731 11.5921 47.4804 10.9402 41.108 10.3536ZM21.4979 32.1655C21.6424 32.1544 21.7854 32.139 21.927 32.1193L21.9171 32.1328C21.8195 32.2626 21.7438 32.4022 21.6867 32.5453C21.6291 32.4174 21.5665 32.2906 21.4979 32.1655ZM52.5684 38.5442L53.7036 41.6486C53.9215 41.7305 54.1298 41.8434 54.302 41.9838C55.2514 40.3609 55.4565 38.7995 54.873 37.5284C54.0943 35.8342 51.9055 34.7285 48.707 34.4199C48.6777 34.417 48.649 34.4121 48.6211 34.4054C48.6071 35.7368 48.6104 37.0493 48.63 38.3357L52.1751 37.0385C52.4061 36.9547 52.6677 36.9854 52.8741 37.1243C53.011 37.2143 53.1112 37.343 53.1664 37.4983C53.3135 37.8989 53.1071 38.3465 52.7065 38.4936L52.5684 38.5442Z" fill="#D9D9D9"/>
</g>
</svg>
