<svg width="78" height="78" viewBox="0 0 78 78" fill="none" xmlns="http://www.w3.org/2000/svg">
<mask id="mask0_2250_35755" style="mask-type:alpha" maskUnits="userSpaceOnUse" x="0" y="0" width="78" height="78">
<rect width="78" height="78" fill="#D9D9D9"/>
</mask>
<g mask="url(#mask0_2250_35755)">
<path fill-rule="evenodd" clip-rule="evenodd" d="M43.7673 7.1403C42.9299 7.00916 42.0644 6.96607 41.1839 7.02789C41.1186 7.03244 41.0534 7.03754 40.9884 7.04317C40.9082 7.0471 40.8278 7.0519 40.7473 7.05755C38.1768 7.23845 35.8665 8.25602 34.0594 9.82524C34.0223 9.85503 33.9853 9.88632 33.9484 9.91917C32.2652 11.4163 31.0351 13.3989 30.4637 15.6281C30.3535 14.6112 30.2459 13.9055 30.1589 13.8138C29.9704 13.6153 28.6124 13.5949 27.352 13.7452C25.919 13.7771 23.9409 14.0713 23.7757 14.6139C23.5979 15.1963 23.9378 20.2039 24.2358 23.1821C24.1515 23.2185 24.0796 23.2856 24.032 23.3606C23.9665 23.458 23.9327 23.5648 23.9103 23.6715C23.8878 23.7783 23.8784 23.8832 23.8728 23.99L23.868 24.1186C23.811 24.1738 23.7586 24.2311 23.7103 24.2891C23.553 24.4802 23.4406 24.6825 23.3563 24.883C23.1839 25.2858 23.0921 25.6867 23.0453 26.0782C23.0191 26.2749 23.0078 26.4697 23.0022 26.6646C22.9966 26.8575 23.0022 27.0505 23.0134 27.2416C23.0345 27.6 23.0803 27.9535 23.157 28.3021C23.155 28.3216 23.1542 28.3384 23.1543 28.352H23.1562C23.2108 32.2388 24.1032 37.8508 25.3793 42.0914C25.3584 42.5104 25.3477 42.9301 25.3477 43.35C25.3477 47.8065 26.6691 52.2338 28.5547 55.993L28.5518 55.9923C29.4847 57.8526 30.5544 59.548 31.671 61.0036H31.6728L31.6759 61.0043C33.013 62.746 34.4167 64.1428 35.7296 65.062C35.2871 65.6654 34.9001 66.4275 34.8608 67.2761C34.8275 67.9773 35.0318 68.6407 35.4684 69.2579C34.7267 69.3962 33.8725 69.7133 33.3621 70.2067C31.7116 72.3799 36.5206 71.5762 36.9572 70.0437C37.0351 69.7302 37.0533 69.4336 36.8466 69.298C36.162 68.6834 35.8317 68.0186 35.8612 67.3267C35.8901 66.6835 36.213 66.0814 36.5803 65.5974C36.716 65.6728 36.8503 65.7423 36.983 65.8059C37.0165 65.8323 37.0338 65.8454 37.0338 65.8454L37.0168 65.8317L36.9883 65.8085C37.6454 66.1227 38.2624 66.2898 38.8155 66.2898C39.57 66.2898 40.387 66.0532 41.2329 65.6135C41.6536 66.1181 42.0201 66.7394 42.0606 67.3796C42.1037 68.0691 41.7814 68.7079 41.0752 69.3299L41.078 69.3331C40.9424 69.4871 40.9215 69.768 41.0884 70.006C41.9689 71.6321 46.7161 72.3608 44.7378 70.0191C44.2185 69.516 43.3231 69.2464 42.5566 69.1552C42.9326 68.5784 43.1019 67.964 43.061 67.3178C43.007 66.4616 42.583 65.6971 42.1049 65.0954C43.4838 64.1767 44.907 62.767 46.2362 61.0037L46.2366 61.0036C46.9572 60.0483 47.6495 58.9896 48.2918 57.8488C50.6085 53.7379 52.2815 48.5639 52.2815 43.35C52.2815 42.9325 52.2709 42.5152 52.2502 42.0987C53.5275 37.8572 54.4208 32.241 54.4755 28.352H54.4774C54.4776 28.3342 54.4761 28.3107 54.4723 28.2831C54.5079 28.0933 54.4484 27.8159 54.3854 27.6744C54.2036 27.2698 54.0313 26.8614 53.8739 26.4492C53.7971 26.2432 53.7222 26.0371 53.6529 25.831C53.5854 25.6231 53.5236 25.4151 53.4674 25.209C53.3587 24.795 53.2763 24.3772 53.2557 23.9782C53.2463 23.7778 53.2482 23.5848 53.2557 23.3975C53.2613 23.2101 53.2819 23.034 53.3044 22.8467L53.31 22.798C53.3269 22.6612 53.2726 22.517 53.1545 22.4252C53.0278 22.3249 52.8611 22.311 52.7246 22.3745C53.2626 20.9068 53.5072 19.3046 53.3903 17.6439C53.2656 15.8592 52.7342 14.1983 51.9008 12.744L51.9011 12.7438C51.4016 11.8749 50.792 11.08 50.0926 10.3769L50.2618 10.3386L50.0417 10.3261C49.7424 10.029 49.427 9.74852 49.0969 9.4861L49.0834 9.43372L49.0812 9.47361C47.5654 8.27264 45.7435 7.45146 43.7672 7.1411L43.7673 7.1403ZM52.1924 23.6009C52.0882 23.8067 51.978 24.009 51.862 24.2076L51.9636 24.3746C52.0142 24.4531 52.0628 24.5329 52.1114 24.6127C52.1672 24.7043 52.223 24.7959 52.2821 24.886L52.3279 24.9592C52.2606 24.6616 52.2133 24.3544 52.1935 24.0363C52.1841 23.8936 52.1822 23.7481 52.1924 23.6009ZM50.6032 25.9602C50.7819 25.7552 50.9533 25.5438 51.1171 25.3265C51.336 25.6448 51.5674 25.9417 51.8133 26.2206C51.9235 26.3509 52.0382 26.4737 52.1534 26.597L52.1955 26.6421L52.3903 26.8463L52.4593 26.9147L52.4576 26.914L52.186 26.796L51.9181 26.6723C51.7383 26.5899 51.5641 26.5 51.3899 26.4101L51.3898 26.41C51.2626 26.3464 51.1393 26.276 51.0165 26.2058L51.0164 26.2058L51.0163 26.2057C50.9691 26.1787 50.9219 26.1518 50.8746 26.1253L50.6217 25.9717L50.6032 25.9602ZM49.7859 26.8066C49.2261 27.3298 48.613 27.7981 47.9546 28.2021C49.7735 31.269 51.2396 34.9948 51.9009 38.9164C52.9121 34.7989 53.3405 30.5747 53.1475 28.0589C52.9669 28.0401 52.7879 28.0156 52.607 27.9863C52.4234 27.9582 52.2398 27.9226 52.0562 27.8814C51.8727 27.842 51.6891 27.7952 51.5073 27.7409C51.142 27.6322 50.7767 27.4992 50.4151 27.3025C50.2334 27.2051 50.0536 27.0889 49.8906 26.9241C49.8552 26.887 49.8199 26.847 49.7859 26.8066ZM24.2281 23.3599C24.2356 23.3518 24.2434 23.3439 24.2514 23.3364L24.2514 23.3361C24.2433 23.3436 24.2355 23.3516 24.2281 23.3599ZM25.7294 38.9104C24.738 34.8714 24.3074 30.7305 24.4741 28.201C24.6788 28.063 24.8738 27.9181 25.0687 27.7641C25.2148 27.6498 25.3572 27.5299 25.4977 27.4044C25.6382 27.2789 25.775 27.1496 25.908 27.0129C26.174 26.7412 26.4269 26.4452 26.6461 26.0968C26.7524 25.9293 26.8499 25.748 26.9106 25.5362C27.4915 25.5205 28.0864 25.4844 28.5768 25.4291C29.7879 25.3812 30.9652 25.2462 31.0412 25.0336C31.0833 24.9174 31.065 24.0881 31.0088 22.9281C31.2916 23.5967 31.6356 24.2314 32.0334 24.8258C29.1795 28.277 26.6599 33.4002 25.7294 38.9104ZM24.9609 25.4897C25.1217 25.5086 25.3205 25.5226 25.5449 25.5318C25.4976 25.6092 25.4493 25.6862 25.3982 25.7615C25.2895 25.9264 25.1809 26.0894 25.0647 26.2486L24.8924 26.4884L24.7125 26.7245L24.6574 26.7951L24.696 26.6617L24.7672 26.3882L24.7852 26.3147L24.7852 26.3147C24.8244 26.1556 24.8637 25.996 24.8946 25.8337C24.9186 25.7198 24.9407 25.6051 24.9609 25.4897Z" fill="#D9D9D9"/>
</g>
</svg>
