<svg width="20" height="20" viewBox="0 0 20 20" fill="none" xmlns="http://www.w3.org/2000/svg">
<path d="M9.99983 0.714233C8.87072 0.714233 7.43669 1.83883 6.25875 3.65228C5.01529 5.5488 4.33235 7.74518 4.28564 9.99828C4.34714 12.2629 5.0607 14.4645 6.3441 16.3496C7.53393 18.1329 8.97001 19.2857 9.99983 19.2857C12.3902 19.2857 15.7142 14.606 15.7142 9.99828C15.7142 5.39055 12.3898 0.714233 9.99983 0.714233ZM12.7356 16.6124H7.3584C7.01539 16.1648 6.70566 15.6936 6.43184 15.2025H13.6329C13.3707 15.6941 13.0707 16.1656 12.7356 16.6128V16.6124ZM7.1216 3.58364H12.8973C12.9953 3.72301 13.0942 3.86469 13.1906 4.01491C13.3957 4.3302 13.5804 4.65757 13.7519 4.99295H6.26296C6.51397 4.5035 6.80075 4.03256 7.1212 3.58364H7.1216ZM12.7639 5.53796C12.8331 5.75833 12.8971 5.98064 12.9556 6.20476C12.9521 6.22457 12.9521 6.24477 12.9556 6.26458C13.0249 6.5361 13.084 6.80967 13.1369 7.08239L12.9099 7.12985C12.8776 7.13499 12.8467 7.14621 12.819 7.16319C12.7912 7.18018 12.7671 7.20252 12.7482 7.2287C12.7294 7.25488 12.716 7.28448 12.709 7.31577C12.7019 7.34707 12.7015 7.37937 12.7074 7.41089C12.7219 7.46431 12.7543 7.51137 12.7993 7.54464C12.8444 7.57792 12.8995 7.5955 12.956 7.59446C12.9765 7.59431 12.9969 7.59224 13.0171 7.58838L13.2168 7.54837C13.2715 7.89647 13.3138 8.24597 13.3436 8.59702L13.1758 8.61996C13.1444 8.62162 13.1138 8.62922 13.0854 8.64252C13.0571 8.65581 13.0317 8.67453 13.0107 8.69743C12.9897 8.72033 12.9734 8.74705 12.963 8.77607C12.9526 8.80509 12.9481 8.83576 12.9498 8.86648C12.9515 8.89721 12.9592 8.92738 12.9728 8.95513C12.9864 8.98288 13.0055 9.00773 13.0289 9.02828C13.0523 9.04883 13.0796 9.06454 13.1092 9.07476C13.1389 9.08498 13.1702 9.08956 13.2016 9.0879C13.2153 9.08827 13.2291 9.08745 13.2427 9.08574L13.3737 9.06888C13.3905 9.44763 13.3958 9.83215 13.3827 10.2177C13.3827 10.2306 13.3827 10.2429 13.3827 10.2577L13.2685 10.255C13.2016 10.2509 13.1357 10.2725 13.0846 10.315C13.0335 10.3576 13.0011 10.4177 12.9945 10.4831C12.9939 10.5149 12.9999 10.5466 13.0121 10.576C13.0243 10.6055 13.0424 10.6322 13.0654 10.6547C13.0883 10.6772 13.1156 10.6949 13.1457 10.7069C13.1758 10.7188 13.2082 10.7247 13.2407 10.7241L13.3613 10.7276C13.3399 11.1594 13.3014 11.5852 13.2383 12.013L13.0856 11.9957C13.0206 11.987 12.9545 12.0029 12.9011 12.0403C12.8477 12.0776 12.8109 12.1335 12.7983 12.1966C12.7943 12.2273 12.7968 12.2586 12.8055 12.2884C12.8143 12.3181 12.8293 12.3458 12.8494 12.3697C12.8695 12.3937 12.8944 12.4134 12.9225 12.4276C12.9507 12.4418 12.9813 12.4503 13.0129 12.4525L13.1643 12.4698C13.1233 12.716 13.0745 13.014 13.0199 13.2566C13.0115 13.2911 13.0144 13.3273 13.0281 13.3601C12.9272 13.802 12.8061 14.2351 12.6647 14.6598H7.45396C6.49297 11.6979 6.45659 8.52281 7.34938 5.54051L12.7639 5.53796ZM13.0335 14.6575C13.1771 14.2634 13.3014 13.8589 13.4106 13.4472C13.4666 13.418 13.5095 13.3693 13.5308 13.3107C13.619 13.0555 13.6941 12.7961 13.7559 12.5335L13.8479 12.5441C13.8581 12.5448 13.8685 12.5448 13.8787 12.5441C13.9391 12.5458 13.9981 12.5265 14.0454 12.4898C14.0928 12.453 14.1254 12.4012 14.1376 12.3433C14.1415 12.3125 14.139 12.2811 14.1302 12.2513C14.1213 12.2215 14.1062 12.1937 14.0861 12.1697C14.0659 12.1457 14.041 12.1261 14.0128 12.1118C13.9846 12.0976 13.9539 12.0891 13.9222 12.0869L13.8525 12.0789C13.9362 11.6366 13.9961 11.1902 14.0318 10.7418L14.1298 10.7455H14.136C14.2019 10.7477 14.2663 10.7252 14.3161 10.6827C14.3658 10.6402 14.3971 10.5807 14.4038 10.5164C14.4042 10.4845 14.398 10.453 14.3856 10.4235C14.3732 10.3939 14.3548 10.3671 14.3317 10.3446C14.3086 10.3222 14.281 10.3045 14.2508 10.2927C14.2205 10.2808 14.1882 10.2748 14.1556 10.2754L14.06 10.2723C14.0785 9.84771 14.0777 9.4127 14.0522 8.97651L14.1248 8.9665C14.1575 8.96359 14.1894 8.95428 14.2185 8.93924C14.2476 8.92421 14.2733 8.90367 14.2942 8.87884C14.3152 8.854 14.3309 8.82551 14.3405 8.7947C14.3501 8.76389 14.3534 8.73143 14.3501 8.69939C14.338 8.63529 14.3005 8.57842 14.2458 8.54132C14.191 8.50421 14.1236 8.48983 14.058 8.50131L14.014 8.50661C13.9779 8.14037 13.9217 7.7764 13.8451 7.41619L13.8859 7.40775C13.9185 7.40263 13.9498 7.39114 13.9777 7.37402C14.0056 7.35691 14.0297 7.33453 14.0486 7.30813C14.0675 7.28172 14.0808 7.25179 14.0877 7.22026C14.0946 7.18874 14.0949 7.15623 14.0887 7.12456C14.0703 7.06178 14.028 7.00831 13.9703 6.97551C13.9126 6.94271 13.8442 6.93315 13.7794 6.94864L13.7347 6.95864C13.6602 6.67898 13.5689 6.40399 13.461 6.13495C13.4391 6.09058 13.4026 6.05461 13.3573 6.03316C13.3084 5.86688 13.255 5.70066 13.1984 5.53678H14.015C14.6965 6.96739 15.0409 8.52969 15.0231 10.1081C15.0052 11.6865 14.6256 13.2408 13.912 14.6563L13.0335 14.6575ZM12.4764 3.03824H11.9471C11.5683 2.4869 11.1251 1.98048 10.6267 1.5295C11.3559 1.88298 11.9898 2.40013 12.4764 3.03863V3.03824ZM10.4798 1.47576C10.9183 1.95795 11.3071 2.48134 11.6406 3.03824H8.46285C8.80623 2.46413 9.20983 1.92656 9.66707 1.43438C9.77588 1.40647 9.88776 1.39169 10.0002 1.39025C10.1638 1.39404 10.3257 1.42338 10.4798 1.47733V1.47576ZM9.56129 1.4636C9.03215 1.93048 8.56348 2.45943 8.16615 3.03824H7.54211C8.055 2.34219 8.75361 1.79737 9.56129 1.4636ZM5.99952 5.53796H6.91486C5.95589 8.51449 6.01346 11.7159 7.07893 14.6575H6.14236C5.40263 13.2094 5.0043 11.6171 4.977 9.99828C4.99963 8.45835 5.34783 6.9397 5.99952 5.53796ZM7.81096 17.1582H8.32823C8.61549 17.5934 8.93823 18.0052 9.29324 18.3896C9.30186 18.3984 9.3093 18.4053 9.31668 18.4137C8.74246 18.0857 8.23229 17.6606 7.80976 17.1582H7.81096ZM9.51201 18.5026C9.16626 18.0786 8.85449 17.6291 8.57945 17.1582H11.5372C11.2679 17.6164 10.964 18.0544 10.6283 18.4684C10.4306 18.556 10.2172 18.6044 10.0002 18.6106C9.8319 18.6057 9.66615 18.569 9.51201 18.5026ZM10.8326 18.3735C11.1825 17.9938 11.5011 17.5874 11.785 17.1582H12.2913C11.8837 17.6461 11.3894 18.0578 10.8322 18.3735H10.8326Z" fill="white"/>
</svg>
