<svg width="60" height="34" viewBox="0 0 60 34" fill="none" xmlns="http://www.w3.org/2000/svg">
<mask id="path-1-outside-1_1952_11770" maskUnits="userSpaceOnUse" x="14" y="0.66687" width="32" height="32" fill="black">
<rect fill="white" x="14" y="0.66687" width="32" height="32"/>
<path fill-rule="evenodd" clip-rule="evenodd" d="M36.3341 1.86687H23.2054C18.7841 1.86687 15.2 5.45102 15.2 9.87229V23.001C15.2 27.4222 18.7841 31.0064 23.2054 31.0064H36.3341C40.7554 31.0064 44.3395 27.4222 44.3395 23.001V9.87229C44.3395 5.45102 40.7554 1.86687 36.3341 1.86687ZM23.2054 1.66687C18.6737 1.66687 15 5.34056 15 9.87229V23.001C15 27.5327 18.6737 31.2064 23.2054 31.2064H36.3341C40.8658 31.2064 44.5395 27.5327 44.5395 23.001V9.87229C44.5395 5.34056 40.8658 1.66687 36.3341 1.66687H23.2054ZM44.1668 9.26669H15.8335V9.06669H44.1668V9.26669ZM29.8227 11.7449L29.8263 11.7448C29.9042 11.7443 29.9818 11.7674 30.0506 11.8129C30.1188 11.8579 30.1746 11.9233 30.21 12.0024L30.2107 12.0038L31.8539 15.589L31.8982 15.6857L32.0031 15.703L35.7693 16.3249L35.7704 16.3251C35.8476 16.3374 35.9209 16.3723 35.9819 16.4271C36.0429 16.482 36.0889 16.5546 36.1136 16.6375C36.1383 16.7204 36.1403 16.8091 36.1193 16.8932C36.0983 16.9774 36.0554 17.0524 35.9968 17.1104L35.9967 17.1105L33.2314 19.8462L33.159 19.9178L33.1743 20.0185L33.7712 23.9429C33.7842 24.0292 33.7739 24.1174 33.7416 24.1972C33.7094 24.277 33.6569 24.3444 33.5914 24.3927C33.526 24.4409 33.45 24.4682 33.3721 24.4728C33.2941 24.4773 33.216 24.459 33.1464 24.419L33.1452 24.4183L29.7932 22.5238L29.6978 22.4699L29.601 22.5213L26.2031 24.3245L26.2022 24.325C26.1317 24.3628 26.0534 24.3789 25.9757 24.3722C25.8979 24.3655 25.8226 24.336 25.7584 24.2861C25.6941 24.236 25.6434 24.1672 25.6131 24.0866C25.5828 24.0061 25.5745 23.9178 25.5895 23.8321L25.5896 23.8319L26.2819 19.9252L26.2996 19.8252L26.2293 19.7519L23.5334 16.9394C23.4763 16.8797 23.4354 16.8035 23.4166 16.7189C23.3978 16.6343 23.4021 16.5458 23.4288 16.4639C23.4554 16.382 23.5031 16.3108 23.5652 16.2577C23.6272 16.2047 23.7011 16.1718 23.7783 16.1614L23.7791 16.1613L27.5602 15.6407L27.6658 15.6261L27.7126 15.5304L29.4435 11.9908L29.4442 11.9895C29.4806 11.9135 29.536 11.8511 29.603 11.8084C29.6699 11.7657 29.746 11.744 29.8227 11.7449ZM27.5329 15.4425L29.2638 11.903C29.316 11.7943 29.3962 11.7031 29.4954 11.6398C29.5946 11.5765 29.7087 11.5436 29.8249 11.5448C29.9439 11.544 30.0601 11.5795 30.1608 11.6459C30.2615 11.7124 30.3419 11.8077 30.3925 11.9205L32.0357 15.5057L35.8019 16.1276C35.9179 16.1461 36.0266 16.1983 36.1156 16.2784C36.2046 16.3584 36.2703 16.4631 36.3053 16.5804C36.3403 16.6976 36.3431 16.8229 36.3134 16.9417C36.2837 17.0606 36.2227 17.1683 36.1374 17.2526L33.3721 19.9884L33.9689 23.913C33.9873 24.0345 33.9728 24.1589 33.9271 24.2721C33.8813 24.3854 33.8061 24.4829 33.7101 24.5537C33.614 24.6245 33.501 24.6656 33.3837 24.6725C33.2665 24.6793 33.1497 24.6516 33.0468 24.5924L29.6948 22.6979L26.2968 24.5012C26.1925 24.5572 26.0753 24.5816 25.9584 24.5715C25.8415 24.5613 25.7297 24.5172 25.6356 24.4439C25.5415 24.3707 25.4688 24.2713 25.4259 24.157C25.3829 24.0427 25.3714 23.9182 25.3926 23.7974L26.0849 19.8903L23.3889 17.0776C23.306 16.991 23.248 16.8818 23.2214 16.7623C23.1948 16.6429 23.2008 16.518 23.2386 16.402C23.2764 16.2859 23.3445 16.1832 23.4352 16.1057C23.5259 16.0281 23.6356 15.9788 23.7518 15.9632L27.5329 15.4425Z"/>
</mask>
<path fill-rule="evenodd" clip-rule="evenodd" d="M36.3341 1.86687H23.2054C18.7841 1.86687 15.2 5.45102 15.2 9.87229V23.001C15.2 27.4222 18.7841 31.0064 23.2054 31.0064H36.3341C40.7554 31.0064 44.3395 27.4222 44.3395 23.001V9.87229C44.3395 5.45102 40.7554 1.86687 36.3341 1.86687ZM23.2054 1.66687C18.6737 1.66687 15 5.34056 15 9.87229V23.001C15 27.5327 18.6737 31.2064 23.2054 31.2064H36.3341C40.8658 31.2064 44.5395 27.5327 44.5395 23.001V9.87229C44.5395 5.34056 40.8658 1.66687 36.3341 1.66687H23.2054ZM44.1668 9.26669H15.8335V9.06669H44.1668V9.26669ZM29.8227 11.7449L29.8263 11.7448C29.9042 11.7443 29.9818 11.7674 30.0506 11.8129C30.1188 11.8579 30.1746 11.9233 30.21 12.0024L30.2107 12.0038L31.8539 15.589L31.8982 15.6857L32.0031 15.703L35.7693 16.3249L35.7704 16.3251C35.8476 16.3374 35.9209 16.3723 35.9819 16.4271C36.0429 16.482 36.0889 16.5546 36.1136 16.6375C36.1383 16.7204 36.1403 16.8091 36.1193 16.8932C36.0983 16.9774 36.0554 17.0524 35.9968 17.1104L35.9967 17.1105L33.2314 19.8462L33.159 19.9178L33.1743 20.0185L33.7712 23.9429C33.7842 24.0292 33.7739 24.1174 33.7416 24.1972C33.7094 24.277 33.6569 24.3444 33.5914 24.3927C33.526 24.4409 33.45 24.4682 33.3721 24.4728C33.2941 24.4773 33.216 24.459 33.1464 24.419L33.1452 24.4183L29.7932 22.5238L29.6978 22.4699L29.601 22.5213L26.2031 24.3245L26.2022 24.325C26.1317 24.3628 26.0534 24.3789 25.9757 24.3722C25.8979 24.3655 25.8226 24.336 25.7584 24.2861C25.6941 24.236 25.6434 24.1672 25.6131 24.0866C25.5828 24.0061 25.5745 23.9178 25.5895 23.8321L25.5896 23.8319L26.2819 19.9252L26.2996 19.8252L26.2293 19.7519L23.5334 16.9394C23.4763 16.8797 23.4354 16.8035 23.4166 16.7189C23.3978 16.6343 23.4021 16.5458 23.4288 16.4639C23.4554 16.382 23.5031 16.3108 23.5652 16.2577C23.6272 16.2047 23.7011 16.1718 23.7783 16.1614L23.7791 16.1613L27.5602 15.6407L27.6658 15.6261L27.7126 15.5304L29.4435 11.9908L29.4442 11.9895C29.4806 11.9135 29.536 11.8511 29.603 11.8084C29.6699 11.7657 29.746 11.744 29.8227 11.7449ZM27.5329 15.4425L29.2638 11.903C29.316 11.7943 29.3962 11.7031 29.4954 11.6398C29.5946 11.5765 29.7087 11.5436 29.8249 11.5448C29.9439 11.544 30.0601 11.5795 30.1608 11.6459C30.2615 11.7124 30.3419 11.8077 30.3925 11.9205L32.0357 15.5057L35.8019 16.1276C35.9179 16.1461 36.0266 16.1983 36.1156 16.2784C36.2046 16.3584 36.2703 16.4631 36.3053 16.5804C36.3403 16.6976 36.3431 16.8229 36.3134 16.9417C36.2837 17.0606 36.2227 17.1683 36.1374 17.2526L33.3721 19.9884L33.9689 23.913C33.9873 24.0345 33.9728 24.1589 33.9271 24.2721C33.8813 24.3854 33.8061 24.4829 33.7101 24.5537C33.614 24.6245 33.501 24.6656 33.3837 24.6725C33.2665 24.6793 33.1497 24.6516 33.0468 24.5924L29.6948 22.6979L26.2968 24.5012C26.1925 24.5572 26.0753 24.5816 25.9584 24.5715C25.8415 24.5613 25.7297 24.5172 25.6356 24.4439C25.5415 24.3707 25.4688 24.2713 25.4259 24.157C25.3829 24.0427 25.3714 23.9182 25.3926 23.7974L26.0849 19.8903L23.3889 17.0776C23.306 16.991 23.248 16.8818 23.2214 16.7623C23.1948 16.6429 23.2008 16.518 23.2386 16.402C23.2764 16.2859 23.3445 16.1832 23.4352 16.1057C23.5259 16.0281 23.6356 15.9788 23.7518 15.9632L27.5329 15.4425Z" fill="black"/>
<path d="M15.8335 9.26669H15.1335V9.96669H15.8335V9.26669ZM44.1668 9.26669V9.96669H44.8668V9.26669H44.1668ZM15.8335 9.06669V8.36669H15.1335V9.06669H15.8335ZM44.1668 9.06669H44.8668V8.36669H44.1668V9.06669ZM29.8263 11.7448L29.8213 11.0448L29.8213 11.0448L29.8263 11.7448ZM29.8227 11.7449L29.8149 12.4449L29.8278 12.4448L29.8227 11.7449ZM30.0506 11.8129L29.665 12.3971H29.665L30.0506 11.8129ZM30.21 12.0024L29.5713 12.2889L29.5736 12.2938L30.21 12.0024ZM30.2107 12.0038L29.5743 12.2953L29.5744 12.2955L30.2107 12.0038ZM31.8539 15.589L31.2175 15.8807V15.8807L31.8539 15.589ZM31.8982 15.6857L31.2618 15.9773L31.4169 16.3157L31.7841 16.3763L31.8982 15.6857ZM32.0031 15.703L32.1171 15.0124L32.1171 15.0124L32.0031 15.703ZM35.7693 16.3249L35.6553 17.0156L35.659 17.0162L35.7693 16.3249ZM35.7704 16.3251L35.6601 17.0163L35.6602 17.0164L35.7704 16.3251ZM35.9819 16.4271L36.45 15.9067L36.45 15.9066L35.9819 16.4271ZM36.1136 16.6375L36.7845 16.4375V16.4375L36.1136 16.6375ZM36.1193 16.8932L35.4402 16.7236L35.4402 16.7236L36.1193 16.8932ZM35.9968 17.1104L36.4862 17.6109L36.4888 17.6083L35.9968 17.1104ZM35.9967 17.1105L35.5073 16.61L35.5044 16.6128L35.9967 17.1105ZM33.2314 19.8462L32.7391 19.3486L33.2314 19.8462ZM33.159 19.9178L32.6667 19.4202L32.4134 19.6708L32.467 20.0231L33.159 19.9178ZM33.1743 20.0185L32.4823 20.1237V20.1237L33.1743 20.0185ZM33.7712 23.9429L34.4633 23.8382L34.4632 23.8377L33.7712 23.9429ZM33.7416 24.1972L33.0926 23.935V23.935L33.7416 24.1972ZM33.5914 24.3927L33.1762 23.8291L33.1762 23.8291L33.5914 24.3927ZM33.3721 24.4728L33.3313 23.774H33.3313L33.3721 24.4728ZM33.1464 24.419L33.4951 23.812L33.4914 23.8099L33.1464 24.419ZM33.1452 24.4183L33.4902 23.8093L33.4896 23.8089L33.1452 24.4183ZM29.7932 22.5238L29.4488 23.1332L29.4488 23.1332L29.7932 22.5238ZM29.6978 22.4699L30.0422 21.8605L29.7084 21.6718L29.3697 21.8516L29.6978 22.4699ZM29.601 22.5213L29.2729 21.903L29.2729 21.903L29.601 22.5213ZM26.2031 24.3245L25.8749 23.7062L25.871 23.7083L26.2031 24.3245ZM26.2022 24.325L26.5335 24.9416L26.5342 24.9412L26.2022 24.325ZM25.9757 24.3722L25.9152 25.0696H25.9153L25.9757 24.3722ZM25.7584 24.2861L25.3285 24.8385L25.3285 24.8385L25.7584 24.2861ZM25.6131 24.0866L26.2683 23.8403L25.6131 24.0866ZM25.5895 23.8321L26.2791 23.9528L26.2794 23.9506L25.5895 23.8321ZM25.5896 23.8319L24.9003 23.7098L24.8997 23.7135L25.5896 23.8319ZM26.2819 19.9252L26.9711 20.0473L26.9711 20.0473L26.2819 19.9252ZM26.2996 19.8252L26.9888 19.9473L27.0509 19.5974L26.8049 19.3408L26.2996 19.8252ZM26.2293 19.7519L26.7347 19.2675L26.2293 19.7519ZM23.5334 16.9394L23.0276 17.4233L23.0281 17.4238L23.5334 16.9394ZM23.4166 16.7189L22.7333 16.8709L22.7333 16.8709L23.4166 16.7189ZM23.4288 16.4639L22.7632 16.2471L22.7632 16.2471L23.4288 16.4639ZM23.5652 16.2577L23.1103 15.7256L23.1103 15.7256L23.5652 16.2577ZM23.7783 16.1614L23.8712 16.8552L23.8738 16.8549L23.7783 16.1614ZM23.7791 16.1613L23.6836 15.4679L23.6836 15.4679L23.7791 16.1613ZM27.5602 15.6407L27.6557 16.3341L27.6557 16.3341L27.5602 15.6407ZM27.6658 15.6261L27.7613 16.3196L28.1308 16.2687L28.2946 15.9337L27.6658 15.6261ZM27.7126 15.5304L27.0838 15.2229L27.0838 15.2229L27.7126 15.5304ZM29.4435 11.9908L30.0724 12.2984L30.0747 12.2934L29.4435 11.9908ZM29.4442 11.9895L28.813 11.6867L28.8129 11.6869L29.4442 11.9895ZM29.603 11.8084L29.2264 11.2183H29.2264L29.603 11.8084ZM29.2638 11.903L29.8927 12.2105L29.8949 12.2058L29.2638 11.903ZM27.5329 15.4425L27.6284 16.136L27.9979 16.0851L28.1618 15.7501L27.5329 15.4425ZM29.8249 11.5448L29.8173 12.2449L29.8299 12.2448L29.8249 11.5448ZM30.3925 11.9205L29.7538 12.207L29.7562 12.2121L30.3925 11.9205ZM32.0357 15.5057L31.3993 15.7973L31.5544 16.1357L31.9216 16.1963L32.0357 15.5057ZM35.8019 16.1276L35.6879 16.8182L35.6917 16.8189L35.8019 16.1276ZM36.3053 16.5804L36.9761 16.3804L36.9761 16.3804L36.3053 16.5804ZM36.3134 16.9417L35.6342 16.7721V16.7721L36.3134 16.9417ZM36.1374 17.2526L35.6453 16.7547L35.645 16.755L36.1374 17.2526ZM33.3721 19.9884L32.8797 19.4908L32.6264 19.7414L32.68 20.0937L33.3721 19.9884ZM33.9689 23.913L34.661 23.8083L34.661 23.8078L33.9689 23.913ZM33.9271 24.2721L34.5761 24.5344L34.5761 24.5344L33.9271 24.2721ZM33.7101 24.5537L34.1253 25.1173L34.1253 25.1173L33.7101 24.5537ZM33.3837 24.6725L33.3429 23.9736H33.3429L33.3837 24.6725ZM33.0468 24.5924L33.3955 23.9854L33.3912 23.983L33.0468 24.5924ZM29.6948 22.6979L30.0392 22.0885L29.7054 21.8999L29.3666 22.0796L29.6948 22.6979ZM26.2968 24.5012L25.9687 23.8828L25.9655 23.8846L26.2968 24.5012ZM25.6356 24.4439L25.2056 24.9963L25.2057 24.9963L25.6356 24.4439ZM25.3926 23.7974L24.7033 23.6752L24.7031 23.6765L25.3926 23.7974ZM26.0849 19.8903L26.7742 20.0124L26.8362 19.6625L26.5903 19.4059L26.0849 19.8903ZM23.3889 17.0776L22.8831 17.5616L22.8836 17.562L23.3889 17.0776ZM23.2386 16.402L22.573 16.1852L22.573 16.1852L23.2386 16.402ZM23.7518 15.9632L23.8447 16.657L23.8473 16.6567L23.7518 15.9632ZM23.2054 2.56687H36.3341V1.16687H23.2054V2.56687ZM15.9 9.87229C15.9 5.83762 19.1707 2.56687 23.2054 2.56687V1.16687C18.3976 1.16687 14.5 5.06442 14.5 9.87229H15.9ZM15.9 23.001V9.87229H14.5V23.001H15.9ZM23.2054 30.3064C19.1707 30.3064 15.9 27.0356 15.9 23.001H14.5C14.5 27.8088 18.3976 31.7064 23.2054 31.7064V30.3064ZM36.3341 30.3064H23.2054V31.7064H36.3341V30.3064ZM43.6395 23.001C43.6395 27.0356 40.3688 30.3064 36.3341 30.3064V31.7064C41.142 31.7064 45.0395 27.8088 45.0395 23.001H43.6395ZM43.6395 9.87229V23.001H45.0395V9.87229H43.6395ZM36.3341 2.56687C40.3688 2.56687 43.6395 5.83762 43.6395 9.87229H45.0395C45.0395 5.06442 41.142 1.16687 36.3341 1.16687V2.56687ZM15.7 9.87229C15.7 5.72716 19.0603 2.36687 23.2054 2.36687V0.96687C18.2871 0.96687 14.3 4.95396 14.3 9.87229H15.7ZM15.7 23.001V9.87229H14.3V23.001H15.7ZM23.2054 30.5064C19.0603 30.5064 15.7 27.1461 15.7 23.001H14.3C14.3 27.9193 18.2871 31.9064 23.2054 31.9064V30.5064ZM36.3341 30.5064H23.2054V31.9064H36.3341V30.5064ZM43.8395 23.001C43.8395 27.1461 40.4792 30.5064 36.3341 30.5064V31.9064C41.2524 31.9064 45.2395 27.9193 45.2395 23.001H43.8395ZM43.8395 9.87229V23.001H45.2395V9.87229H43.8395ZM36.3341 2.36687C40.4792 2.36687 43.8395 5.72716 43.8395 9.87229H45.2395C45.2395 4.95396 41.2524 0.96687 36.3341 0.96687V2.36687ZM23.2054 2.36687H36.3341V0.96687H23.2054V2.36687ZM15.8335 9.96669H44.1668V8.56669H15.8335V9.96669ZM15.1335 9.06669V9.26669H16.5335V9.06669H15.1335ZM44.1668 8.36669H15.8335V9.76669H44.1668V8.36669ZM44.8668 9.26669V9.06669H43.4668V9.26669H44.8668ZM29.8213 11.0448L29.8177 11.0449L29.8278 12.4448L29.8313 12.4448L29.8213 11.0448ZM30.4362 11.2286C30.2558 11.1096 30.0431 11.0433 29.8213 11.0448L29.8313 12.4448C29.7654 12.4453 29.7077 12.4253 29.665 12.3971L30.4362 11.2286ZM30.8487 11.7158C30.7602 11.5186 30.6181 11.3487 30.4362 11.2286L29.665 12.3971C29.6195 12.367 29.5889 12.3279 29.5714 12.2889L30.8487 11.7158ZM30.8471 11.7124L30.8465 11.7109L29.5736 12.2938L29.5743 12.2953L30.8471 11.7124ZM32.4902 15.2974L30.8471 11.7122L29.5744 12.2955L31.2175 15.8807L32.4902 15.2974ZM32.5345 15.394L32.4902 15.2974L31.2175 15.8807L31.2618 15.9773L32.5345 15.394ZM32.1171 15.0124L32.0122 14.995L31.7841 16.3763L31.8891 16.3937L32.1171 15.0124ZM35.8834 15.6343L32.1171 15.0124L31.8891 16.3937L35.6553 17.0156L35.8834 15.6343ZM35.8808 15.6338L35.8797 15.6337L35.659 17.0162L35.6601 17.0163L35.8808 15.6338ZM36.45 15.9066C36.2907 15.7634 36.0937 15.6678 35.8806 15.6338L35.6602 17.0164C35.6014 17.007 35.5512 16.9812 35.5137 16.9475L36.45 15.9066ZM36.7845 16.4375C36.7238 16.2341 36.609 16.0497 36.45 15.9067L35.5137 16.9475C35.4767 16.9143 35.454 16.8752 35.4428 16.8375L36.7845 16.4375ZM36.7985 17.0629C36.8499 16.8572 36.8451 16.6408 36.7845 16.4375L35.4428 16.8375C35.4316 16.8 35.4308 16.7611 35.4402 16.7236L36.7985 17.0629ZM36.4888 17.6083C36.6408 17.4581 36.747 17.2687 36.7985 17.0629L35.4402 16.7236C35.4496 16.686 35.4701 16.6467 35.5048 16.6125L36.4888 17.6083ZM36.4861 17.611L36.4862 17.6109L35.5074 16.6099L35.5073 16.61L36.4861 17.611ZM33.7237 20.3439L36.489 17.6081L35.5044 16.6128L32.7391 19.3486L33.7237 20.3439ZM33.6513 20.4155L33.7237 20.3439L32.7391 19.3486L32.6667 19.4202L33.6513 20.4155ZM33.8664 19.9133L33.8511 19.8126L32.467 20.0231L32.4823 20.1237L33.8664 19.9133ZM34.4632 23.8377L33.8664 19.9132L32.4823 20.1237L33.0791 24.0482L34.4632 23.8377ZM34.3906 24.4594C34.4702 24.2626 34.495 24.0477 34.4633 23.8382L33.0791 24.0477C33.0735 24.0108 33.0776 23.9722 33.0926 23.935L34.3906 24.4594ZM34.0066 24.9563C34.179 24.8293 34.3111 24.6564 34.3906 24.4594L33.0926 23.935C33.1077 23.8976 33.1349 23.8596 33.1762 23.8291L34.0066 24.9563ZM33.4129 25.1716C33.6283 25.159 33.834 25.0835 34.0067 24.9562L33.1762 23.8291C33.2181 23.7983 33.2718 23.7775 33.3313 23.774L33.4129 25.1716ZM32.7977 25.026C32.9841 25.133 33.1974 25.1842 33.4129 25.1716L33.3313 23.774C33.3909 23.7705 33.4479 23.7849 33.4951 23.812L32.7977 25.026ZM32.8001 25.0274L32.8014 25.0281L33.4914 23.8099L33.4902 23.8093L32.8001 25.0274ZM29.4488 23.1332L32.8008 25.0277L33.4896 23.8089L30.1376 21.9144L29.4488 23.1332ZM29.3534 23.0793L29.4488 23.1332L30.1376 21.9144L30.0422 21.8605L29.3534 23.0793ZM29.9292 23.1396L30.0259 23.0883L29.3697 21.8516L29.2729 21.903L29.9292 23.1396ZM26.5312 24.9428L29.9292 23.1396L29.2729 21.903L25.8749 23.7062L26.5312 24.9428ZM26.5342 24.9412L26.5351 24.9407L25.871 23.7083L25.8701 23.7088L26.5342 24.9412ZM25.9153 25.0696C26.13 25.0882 26.3444 25.0433 26.5335 24.9416L25.8708 23.7084C25.9191 23.6824 25.9767 23.6697 26.036 23.6748L25.9153 25.0696ZM25.3285 24.8385C25.4974 24.97 25.7006 25.051 25.9152 25.0696L26.0361 23.6748C26.0952 23.68 26.1478 23.7021 26.1884 23.7337L25.3285 24.8385ZM24.9578 24.3329C25.0325 24.5315 25.1599 24.7072 25.3285 24.8385L26.1884 23.7337C26.2284 23.7648 26.2543 23.803 26.2683 23.8403L24.9578 24.3329ZM24.9 23.7115C24.8636 23.9197 24.8833 24.1347 24.9578 24.3329L26.2683 23.8403C26.2822 23.8774 26.2855 23.9159 26.279 23.9528L24.9 23.7115ZM24.8997 23.7135L24.8996 23.7137L26.2794 23.9506L26.2795 23.9504L24.8997 23.7135ZM25.5926 19.803L24.9003 23.7098L26.2788 23.9541L26.9711 20.0473L25.5926 19.803ZM25.6103 19.7031L25.5926 19.8031L26.9711 20.0473L26.9888 19.9473L25.6103 19.7031ZM25.724 20.2363L25.7942 20.3096L26.8049 19.3408L26.7347 19.2675L25.724 20.2363ZM23.0281 17.4238L25.724 20.2363L26.7347 19.2675L24.0387 16.455L23.0281 17.4238ZM22.7333 16.8709C22.7793 17.0776 22.8803 17.2693 23.0276 17.4233L24.0392 16.4555C24.0723 16.4901 24.0916 16.5293 24.0999 16.5669L22.7333 16.8709ZM22.7632 16.2471C22.6976 16.4485 22.6874 16.6643 22.7333 16.8709L24.0999 16.5669C24.1082 16.6043 24.1066 16.6432 24.0944 16.6806L22.7632 16.2471ZM23.1103 15.7256C22.948 15.8644 22.8288 16.0456 22.7632 16.2471L24.0944 16.6806C24.0821 16.7183 24.0582 16.7572 24.0201 16.7898L23.1103 15.7256ZM23.6854 15.4676C23.472 15.4962 23.2729 15.5866 23.1103 15.7256L24.0201 16.7898C23.9815 16.8228 23.9303 16.8473 23.8712 16.8552L23.6854 15.4676ZM23.6836 15.4679L23.6828 15.468L23.8738 16.8549L23.8746 16.8548L23.6836 15.4679ZM27.4647 14.9472L23.6836 15.4679L23.8746 16.8548L27.6557 16.3341L27.4647 14.9472ZM27.5703 14.9327L27.4647 14.9472L27.6557 16.3341L27.7613 16.3196L27.5703 14.9327ZM27.0838 15.2229L27.0369 15.3186L28.2946 15.9337L28.3414 15.8379L27.0838 15.2229ZM28.8147 11.6833L27.0838 15.2229L28.3414 15.8379L30.0723 12.2984L28.8147 11.6833ZM28.8129 11.6869L28.8123 11.6883L30.0747 12.2934L30.0754 12.2921L28.8129 11.6869ZM29.2264 11.2183C29.0467 11.333 28.9045 11.4961 28.813 11.6867L30.0753 12.2923C30.0567 12.3309 30.0254 12.3692 29.9797 12.3984L29.2264 11.2183ZM29.8306 11.0449C29.6158 11.0425 29.4063 11.1035 29.2264 11.2183L29.9797 12.3984C29.9334 12.4279 29.8762 12.4455 29.8149 12.4448L29.8306 11.0449ZM28.635 11.5955L26.9041 15.135L28.1618 15.7501L29.8927 12.2105L28.635 11.5955ZM29.1188 11.0498C28.9069 11.185 28.7398 11.3769 28.6327 11.6002L29.8949 12.2058C29.8921 12.2117 29.8856 12.2212 29.872 12.2298L29.1188 11.0498ZM29.8324 10.8449C29.5784 10.8421 29.331 10.9143 29.1188 11.0498L29.872 12.2298C29.8581 12.2387 29.8391 12.245 29.8173 12.2448L29.8324 10.8449ZM30.5464 11.0617C30.3342 10.9217 30.0828 10.843 29.8199 10.8449L29.8299 12.2448C29.805 12.245 29.786 12.2373 29.7752 12.2302L30.5464 11.0617ZM31.0312 11.6339C30.9276 11.4031 30.7608 11.2033 30.5464 11.0617L29.7752 12.2302C29.7621 12.2215 29.7562 12.2123 29.7539 12.207L31.0312 11.6339ZM32.672 15.214L31.0289 11.6288L29.7562 12.2121L31.3993 15.7973L32.672 15.214ZM35.916 15.4369L32.1497 14.815L31.9216 16.1963L35.6879 16.8182L35.916 15.4369ZM36.5837 15.7579C36.3964 15.5895 36.1641 15.4765 35.9122 15.4363L35.6917 16.8189C35.6717 16.8157 35.6568 16.8072 35.6475 16.7988L36.5837 15.7579ZM36.9761 16.3804C36.9052 16.1426 36.7708 15.9262 36.5837 15.7579L35.6475 16.7988C35.6385 16.7907 35.6354 16.7836 35.6345 16.7804L36.9761 16.3804ZM36.9925 17.1114C37.0526 16.8709 37.047 16.618 36.9761 16.3804L35.6345 16.7804C35.6336 16.7773 35.6336 16.7748 35.6342 16.7721L36.9925 17.1114ZM36.6294 17.7506C36.808 17.574 36.9324 17.3519 36.9925 17.1114L35.6342 16.7721C35.6349 16.7693 35.6373 16.7626 35.6453 16.7547L36.6294 17.7506ZM33.8644 20.486L36.6297 17.7503L35.645 16.755L32.8797 19.4908L33.8644 20.486ZM34.661 23.8078L34.0641 19.8832L32.68 20.0937L33.2769 24.0183L34.661 23.8078ZM34.5761 24.5344C34.6691 24.3041 34.6981 24.0529 34.661 23.8083L33.2768 24.0178C33.2765 24.016 33.2765 24.0137 33.278 24.0099L34.5761 24.5344ZM34.1253 25.1173C34.3282 24.9677 34.483 24.7648 34.5761 24.5344L33.278 24.0099C33.2796 24.006 33.284 23.9982 33.2949 23.9902L34.1253 25.1173ZM33.4245 25.3713C33.6793 25.3564 33.922 25.2671 34.1253 25.1173L33.2949 23.9901C33.3061 23.9819 33.3227 23.9748 33.3429 23.9736L33.4245 25.3713ZM32.6981 25.1994C32.9178 25.3256 33.1697 25.3861 33.4245 25.3713L33.3429 23.9736C33.3633 23.9725 33.3817 23.9775 33.3955 23.9855L32.6981 25.1994ZM29.3504 23.3074L32.7024 25.2018L33.3912 23.983L30.0392 22.0885L29.3504 23.3074ZM26.625 25.1195L30.0229 23.3163L29.3666 22.0796L25.9687 23.8828L26.625 25.1195ZM25.898 25.2689C26.1519 25.2908 26.4051 25.2376 26.6282 25.1178L25.9655 23.8846C25.9799 23.8768 25.9986 23.8723 26.0188 23.8741L25.898 25.2689ZM25.2057 24.9963C25.4045 25.1511 25.6442 25.2469 25.898 25.2689L26.0188 23.8741C26.0389 23.8758 26.0549 23.8833 26.0655 23.8915L25.2057 24.9963ZM24.7706 24.4033C24.8579 24.6355 25.0072 24.8418 25.2056 24.9963L26.0655 23.8915C26.0758 23.8995 26.0797 23.9071 26.0811 23.9107L24.7706 24.4033ZM24.7031 23.6765C24.6604 23.9199 24.6834 24.1713 24.7706 24.4033L26.0811 23.9107C26.0824 23.9142 26.0824 23.9164 26.082 23.9183L24.7031 23.6765ZM25.3957 19.7682L24.7033 23.6752L26.0818 23.9195L26.7742 20.0124L25.3957 19.7682ZM22.8836 17.562L25.5796 20.3747L26.5903 19.4059L23.8942 16.5933L22.8836 17.562ZM22.5381 16.9143C22.5918 17.1558 22.71 17.3806 22.8831 17.5616L23.8947 16.5937C23.902 16.6014 23.9041 16.6077 23.9047 16.6103L22.5381 16.9143ZM22.573 16.1852C22.4963 16.4207 22.4844 16.6729 22.5381 16.9143L23.9047 16.6103C23.9053 16.6128 23.9053 16.6153 23.9042 16.6187L22.573 16.1852ZM22.9804 15.5736C22.7894 15.7369 22.6497 15.9496 22.573 16.1852L23.9042 16.6187C23.903 16.6222 23.8996 16.6296 23.8901 16.6377L22.9804 15.5736ZM23.6589 15.2694C23.4064 15.3032 23.1716 15.4101 22.9804 15.5736L23.8901 16.6377C23.8803 16.6461 23.8648 16.6543 23.8447 16.657L23.6589 15.2694ZM27.4374 14.7491L23.6563 15.2697L23.8473 16.6567L27.6284 16.136L27.4374 14.7491Z" fill="black" mask="url(#path-1-outside-1_1952_11770)"/>
</svg>
