<svg width="78" height="78" viewBox="0 0 78 78" fill="none" xmlns="http://www.w3.org/2000/svg">
<mask id="mask0_2250_34480" style="mask-type:alpha" maskUnits="userSpaceOnUse" x="0" y="0" width="78" height="78">
<rect width="78" height="78" fill="#D9D9D9"/>
</mask>
<g mask="url(#mask0_2250_34480)">
<path d="M31.7235 68.5741C31.6554 68.5741 31.5873 68.5598 31.5228 68.5329C31.263 68.4219 31.1412 68.1209 31.2541 67.8611C31.9546 66.2253 33.2285 63.7474 35.3373 61.171C35.3624 61.1047 35.4036 61.0438 35.4573 60.99C35.7655 60.6908 36.0432 60.6496 36.2815 60.87C36.6398 61.2014 36.3245 61.5831 36.2206 61.7085C34.1333 64.2329 32.8791 66.6678 32.1947 68.266C32.1123 68.4613 31.9224 68.5777 31.7235 68.5777V68.5741Z" fill="#D9D9D9"/>
<path d="M28.3738 65.5213C28.3828 65.455 28.4168 65.3941 28.467 65.3493C28.6318 65.2024 29.0851 64.9408 30.0186 65.2705C31.2548 65.7058 32.8226 68.2948 31.9124 68.5851C31.0219 68.8699 28.1786 66.9654 28.3738 65.5213Z" fill="#D9D9D9"/>
<path d="M23.1813 44.5241C22.5453 44.5241 21.3054 43.6408 20.7429 43.0621C19.331 41.6127 18.1467 38.9503 20.5135 34.4926C20.6461 34.2418 20.9579 34.145 21.2105 34.2794C21.4613 34.412 21.5563 34.7255 21.4237 34.9763C20.1552 37.3628 19.8721 39.3946 20.5798 41.0125C21.2911 42.6411 22.8588 43.3918 23.2207 43.5065C23.4447 43.5333 23.6328 43.7071 23.6687 43.9401C23.7027 44.1604 23.588 44.3808 23.3873 44.4793C23.33 44.508 23.2619 44.5205 23.1831 44.5205L23.1813 44.5241Z" fill="#D9D9D9"/>
<path d="M43.8621 67.8469C43.8102 67.8469 43.7582 67.8397 43.7063 67.8218C43.4357 67.7358 43.287 67.4473 43.373 67.1786C44.5018 63.6365 45.9745 60.6354 46.1644 60.4437C46.3651 60.243 46.6894 60.243 46.8901 60.4437C47.0692 60.6229 47.0889 60.8988 46.9492 61.0995C46.7808 61.3879 45.4531 64.0288 44.3495 67.4903C44.2796 67.7089 44.0789 67.8469 43.8621 67.8469Z" fill="#D9D9D9"/>
<path d="M22.8584 44.3373C22.8584 54.7899 31.3312 63.2645 41.7856 63.2645C52.2399 63.2645 60.7127 54.7899 60.7127 44.3373C60.7127 33.8847 52.2381 25.4102 41.7856 25.4102C31.333 25.4102 22.8584 33.8847 22.8584 44.3373Z" fill="#D9D9D9"/>
<path d="M47.3512 67.9122C47.3512 68.3351 46.4984 68.4569 45.3105 68.3816C44.0241 68.2992 43.2178 67.6345 43.3612 67.2941C43.5045 66.9537 43.3432 66.7745 44.8375 66.7064C45.9358 66.6563 47.353 66.9573 47.353 67.914L47.3512 67.9122Z" fill="#D9D9D9"/>
<path d="M56.0297 57.7385C55.8039 57.7385 55.5961 57.5862 55.5352 57.3569C55.4617 57.0828 55.6248 56.8033 55.8989 56.7298C57.0438 56.4252 60.0556 55.2947 60.2293 53.7575C60.3476 52.7093 59.1042 51.4641 56.6335 50.1598C56.3827 50.0272 56.2877 49.7172 56.4203 49.4664C56.5528 49.2156 56.8628 49.1206 57.1137 49.2532C60.0717 50.8155 61.4244 52.3277 61.2488 53.8739C60.9639 56.3751 56.6532 57.5898 56.1623 57.7206C56.1175 57.7314 56.0745 57.7385 56.0297 57.7385Z" fill="#D9D9D9"/>
<path d="M55.7733 57.3572C55.6353 57.6582 55.5439 57.9879 55.5063 58.3354C55.4705 58.683 55.5009 59.0557 55.6192 59.4104C55.7356 59.767 55.9435 60.0949 56.1997 60.3582L56.2964 60.4568C56.3305 60.4872 56.3645 60.5159 56.3986 60.5464C56.4666 60.6055 56.5401 60.661 56.6225 60.6969C56.7838 60.7775 56.9683 60.8151 57.1797 60.7739C57.3159 60.747 57.4055 60.6162 57.3786 60.4801C57.3786 60.4747 57.3768 60.4711 57.375 60.4657L57.3679 60.4389C57.341 60.3349 57.3052 60.2561 57.2657 60.1862C57.2245 60.1199 57.1869 60.0536 57.1403 60.0017C57.0937 59.9497 57.049 59.8996 56.9988 59.8584C56.9737 59.8369 56.9486 59.8154 56.9235 59.7939L56.8572 59.724C56.6763 59.5394 56.5347 59.3334 56.4308 59.1041C56.3269 58.8747 56.2624 58.6167 56.2319 58.339C56.1997 58.0613 56.2033 57.7657 56.2087 57.4593V57.4557C56.2104 57.3303 56.1101 57.2264 55.9847 57.2246C55.8915 57.2246 55.8109 57.2784 55.7733 57.3572Z" fill="#D9D9D9"/>
<path d="M55.9007 56.7229C55.7448 56.7659 55.5692 56.954 55.4957 57.083C55.399 57.2568 55.3184 57.436 55.2449 57.6205C55.1087 57.9752 55.0209 58.3694 55.0371 58.7851C55.0496 59.1989 55.1786 59.6289 55.4026 59.9801C55.4617 60.0643 55.5172 60.1539 55.5817 60.2327C55.648 60.3098 55.7161 60.3868 55.7967 60.4459C55.8791 60.5033 55.9651 60.557 56.0619 60.5929C56.1586 60.6269 56.2626 60.6502 56.379 60.6502C56.5134 60.6502 56.6227 60.5409 56.6245 60.4065C56.6245 60.394 56.6245 60.3832 56.6227 60.3707L56.6191 60.3456C56.603 60.2327 56.5743 60.1432 56.5385 60.0643C56.5044 59.9837 56.4722 59.9102 56.4292 59.8457C56.388 59.7812 56.3522 59.7185 56.302 59.663C56.2572 59.6074 56.2214 59.5465 56.1784 59.4892C56.0261 59.2527 55.9401 58.9965 55.9024 58.7152C55.8666 58.4339 55.8881 58.1293 55.9437 57.814C55.9795 57.6115 56.0279 57.4127 56.0798 57.2138C56.1157 57.0758 56.2124 57.1511 56.2196 57.0059C56.2267 56.8465 56.0744 56.6619 56.2196 56.687C56.2375 56.6906 56.2608 56.6172 55.9007 56.7157V56.7229Z" fill="#D9D9D9"/>
<path d="M55.8271 56.8435C55.7071 57.1732 55.7124 57.5298 55.7698 57.8612C55.8307 58.1945 55.9543 58.5116 56.1227 58.8036C56.2929 59.0957 56.7749 59.6242 57.4683 59.8249C58.0488 59.9682 57.9807 59.6224 57.9216 59.5006C57.9216 59.5006 57.8678 59.2533 57.5041 58.99L57.3608 58.8825C57.1726 58.7302 57.0024 58.5403 56.8501 58.3342C56.6996 58.1264 56.5688 57.9006 56.4667 57.6641C56.3628 57.4258 56.2929 57.1786 56.2661 56.9224V56.9009C56.2517 56.7773 56.1407 56.6859 56.0152 56.6984C55.9257 56.7074 55.854 56.7683 55.8253 56.8471L55.8271 56.8435Z" fill="#D9D9D9"/>
<path d="M57.9228 59.4978C57.9228 59.4978 57.9426 59.539 57.9569 59.6214C57.9623 59.6609 57.9712 59.7182 57.939 59.7755C57.9085 59.8346 57.8333 59.8705 57.7562 59.8776C57.6003 59.892 57.423 59.8454 57.2384 59.7755C57.0539 59.7056 56.8568 59.6017 56.6794 59.4548C56.3157 59.161 56.1401 58.7614 56.0541 58.4819C56.0093 58.3404 55.9825 58.2239 55.961 58.1451C55.9395 58.0663 55.9287 58.0215 55.9287 58.0215C55.9287 58.0215 55.995 58.1917 56.1043 58.464C56.2154 58.7328 56.4071 59.0965 56.7475 59.3724C57.0861 59.6394 57.4749 59.8096 57.7526 59.8239C57.8207 59.8239 57.8798 59.8006 57.9085 59.7558C57.939 59.7128 57.939 59.6591 57.939 59.6214C57.9336 59.5408 57.921 59.496 57.921 59.496L57.9228 59.4978Z" fill="#D9D9D9"/>
<path d="M57.3037 60.2858C57.3037 60.2858 57.3091 60.2984 57.3216 60.3217C57.3341 60.345 57.3485 60.3808 57.3646 60.4292C57.3771 60.4776 57.3915 60.5421 57.3718 60.6173C57.3539 60.6926 57.284 60.766 57.189 60.7911C57.0081 60.8359 56.7698 60.809 56.5601 60.6764C56.3505 60.5474 56.1606 60.3486 56.0101 60.1138C55.7055 59.6444 55.5604 59.1535 55.512 58.7952C55.4852 58.616 55.4905 58.4673 55.4995 58.367C55.521 58.2684 55.5317 58.2129 55.5317 58.2129C55.5317 58.2129 55.5264 58.2684 55.5156 58.367C55.5156 58.4673 55.5246 58.6106 55.564 58.7844C55.6375 59.1302 55.8059 59.6014 56.0997 60.0529C56.2448 60.2787 56.4204 60.4704 56.6085 60.5976C56.7967 60.7266 57.0063 60.7642 57.1783 60.7356C57.2571 60.7194 57.3198 60.6657 57.3413 60.603C57.3646 60.5403 57.3574 60.4776 57.3503 60.4292C57.3395 60.3808 57.3288 60.3432 57.3198 60.3181C57.3109 60.293 57.3055 60.2805 57.3055 60.2805L57.3037 60.2858Z" fill="#D9D9D9"/>
<path d="M20.5363 35.3015C20.7459 34.5382 20.9877 33.8144 20.9806 33.1407C20.9806 32.8039 20.9233 32.4725 20.8265 32.1356C20.719 31.7988 20.5721 31.4799 20.685 30.9943V30.9854C20.7208 30.8385 20.8695 30.7453 21.0164 30.7811C21.0361 30.7865 21.0558 30.7937 21.0738 30.8008C21.536 31.023 21.7044 31.4315 21.8137 31.8561C21.8746 32.0657 21.9212 32.2861 21.9463 32.5119C21.9714 32.7358 21.9696 32.9652 21.9552 33.1909C21.9158 33.6442 21.785 34.0724 21.613 34.4558C21.441 34.841 21.2314 35.194 20.9913 35.5237C20.9089 35.6383 20.7477 35.6634 20.6348 35.5792C20.547 35.5147 20.5112 35.4036 20.538 35.3033L20.5363 35.3015Z" fill="#D9D9D9"/>
<path d="M20.5122 35.4114L20.3008 34.2324C20.2219 33.8508 20.136 33.4764 20.0159 33.1306C19.8977 32.7848 19.7454 32.4659 19.5519 32.2007C19.4515 32.0699 19.3369 31.9624 19.233 31.8316C19.1362 31.6919 19.0305 31.5557 18.9355 31.3228L18.923 31.2905C18.8675 31.1562 18.9337 31.0021 19.0681 30.9465C19.086 30.9394 19.104 30.934 19.1219 30.9304C19.387 30.8856 19.6397 30.9483 19.8511 31.0773C20.0697 31.201 20.2255 31.3998 20.3725 31.5897C20.6609 31.9821 20.8383 32.4229 20.9476 32.8547C21.0551 33.29 21.1017 33.7236 21.1088 34.15C21.1142 34.5764 21.082 34.9957 21.0121 35.4096C20.9888 35.5493 20.8562 35.6425 20.7183 35.6192C20.609 35.6013 20.5283 35.5153 20.5104 35.4132V35.4096L20.5122 35.4114Z" fill="#D9D9D9"/>
<path d="M20.5239 35.4888C20.3447 35.1896 20.1727 34.8993 19.9882 34.6216C19.8018 34.3457 19.603 34.0841 19.3916 33.8441C19.1801 33.6058 18.9526 33.3872 18.7179 33.2152C18.6014 33.1238 18.4742 33.0772 18.3739 32.9876C18.2682 32.9052 18.1911 32.8121 18.0514 32.6472L17.9958 32.5809C17.9045 32.4734 17.9188 32.3122 18.0263 32.2208C18.0281 32.219 18.0317 32.2154 18.0352 32.2136C18.252 32.0452 18.5226 32.0363 18.7466 32.0828C18.9687 32.1366 19.155 32.262 19.3199 32.3838C19.6567 32.6293 19.9273 32.9231 20.1548 33.2385C20.3806 33.5538 20.5705 33.8906 20.7102 34.2418C20.8518 34.593 20.9539 34.9567 21.0023 35.3276C21.0202 35.4673 20.9216 35.5963 20.7819 35.6142C20.678 35.6286 20.5794 35.5766 20.5293 35.4924L20.5257 35.4852L20.5239 35.4888Z" fill="#D9D9D9"/>
<path d="M18.4602 33.035C18.3025 32.9329 18.1556 32.8111 18.0427 32.6462C17.989 32.5638 17.9424 32.4617 17.9567 32.3416C17.9711 32.2198 18.0678 32.1159 18.1681 32.0729C18.3742 31.9833 18.5856 31.9994 18.7791 32.0442C18.9744 32.0908 19.1589 32.1714 19.3238 32.2789C19.6588 32.4903 19.9222 32.7985 20.1049 33.1407C20.2877 33.4847 20.3898 33.8628 20.4274 34.2408L20.3755 34.1817C20.5331 34.2408 20.6747 34.3214 20.7947 34.4361C20.8538 34.4934 20.9058 34.5597 20.9381 34.6368C20.9703 34.7138 20.9721 34.7998 20.9506 34.8751C20.9631 34.7138 20.8646 34.5812 20.7428 34.4988C20.6209 34.4146 20.474 34.3591 20.3343 34.3214L20.2931 34.3107L20.2823 34.2623C20.1999 33.9058 20.0816 33.56 19.8989 33.2536C19.7197 32.9454 19.4814 32.6749 19.1912 32.4778C19.0443 32.3828 18.8884 32.3004 18.7236 32.2521C18.5605 32.2055 18.3813 32.1804 18.2362 32.2306C18.1663 32.2556 18.1126 32.2986 18.0947 32.3649C18.0768 32.4312 18.0947 32.5154 18.1305 32.5943C18.2022 32.7555 18.3312 32.8953 18.4566 33.0314L18.4602 33.035Z" fill="#D9D9D9"/>
<path d="M21.0045 33.7843C20.9615 33.0802 20.7429 32.4244 20.3738 31.8582C20.1892 31.5769 19.9689 31.3154 19.7055 31.1183C19.5747 31.0215 19.426 30.9391 19.2737 30.9302C19.1984 30.9248 19.1214 30.9445 19.0623 30.9982C19.0032 31.052 18.9637 31.1308 18.9297 31.2114C18.9369 31.1237 18.9566 31.0323 19.0139 30.9534C19.0695 30.8746 19.168 30.8209 19.2665 30.8083C19.4672 30.7868 19.6535 30.8639 19.8112 30.9552C20.1319 31.1452 20.3792 31.4229 20.5816 31.7221C20.7769 32.0284 20.9238 32.3653 20.9991 32.7182C21.0797 33.0694 21.0797 33.4385 21.0062 33.7825L21.0045 33.7843Z" fill="#D9D9D9"/>
<mask id="mask1_2250_34480" style="mask-type:luminance" maskUnits="userSpaceOnUse" x="22" y="25" width="39" height="39">
<path d="M25.017 53.2027C29.8778 62.385 41.3283 65.8303 50.593 60.8961C59.8578 55.9618 63.4321 44.5167 58.5713 35.3344C53.7123 26.1521 42.2582 22.7085 32.9935 27.6428C23.727 32.577 20.1562 44.0204 25.017 53.2027Z" fill="white"/>
</mask>
<g mask="url(#mask1_2250_34480)">
<path d="M38.7317 26.8136C39.1151 27.0841 39.5075 27.7685 40.0217 27.6718C40.4589 27.5912 41.7363 28.4798 40.8835 29.347C40.5896 29.6462 39.8998 29.7107 39.0667 29.7286C39.0667 29.7286 39.5469 30.4937 40.8691 30.4919C42.1914 30.4919 41.55 29.3613 43.1678 29.2413C44.7857 29.1212 44.5241 27.7614 44.3324 27.3708C44.1407 26.9784 45.9019 27.3851 46.4054 26.3262C46.6007 25.9213 49.1269 26.9587 50.0478 26.5412C50.9706 26.1238 51.6209 25.9607 52.0348 25.3605C52.5132 24.6636 52.73 23.7265 52.3662 22.9633C52.8912 22.974 53.4377 22.9812 53.916 22.7626C54.3944 22.5422 54.7796 22.0245 54.6686 21.5102C54.5306 20.8688 53.7799 20.6037 53.1438 20.4514C53.6616 20.3098 53.2979 19.6057 53.2693 19.0682C53.6849 17.04 51.2536 15.0316 47.7563 15.5153C45.9915 15.759 45.2587 14.9528 43.4993 14.6661C41.5679 14.3508 38.8463 14.7306 37.0386 15.4813C36.0388 15.897 34.1325 16.198 33.251 16.8268C32.3444 17.4736 33.1327 18.3193 32.3175 19.5466C32.0667 19.9228 31.5346 20.2077 31.6815 20.6359C31.7854 20.9369 32.1186 21.0749 32.3999 21.2218C33.8243 21.9653 33.2617 22.4061 33.2116 23.8699C33.1614 25.382 34.7183 27.5123 36.4993 27.3099C37.6764 27.1755 38.1243 26.5878 38.5633 26.7312C38.6188 26.7491 38.6743 26.7795 38.7317 26.819V26.8136Z" fill="#D9D9D9"/>
<path d="M72.602 34.1106C72.4211 34.0479 72.2706 33.9243 72.1111 33.8168C71.2027 33.204 69.9235 33.2058 69.0151 33.8204C68.8772 33.9135 68.7428 34.021 68.5815 34.0515C68.3862 34.0891 68.1909 34.0103 68.0082 33.935C67.5459 33.7415 67.021 32.2974 64.9301 32.3763C64.3854 32.3709 62.687 32.6952 62.2856 33.9942C62.1512 34.1984 62.0402 34.4206 61.8753 34.6015C61.2805 35.2573 59.96 34.7216 59.1126 34.976C57.6309 35.4203 56.9877 35.5386 55.8697 36.644C55.3178 36.8393 53.2861 36.9755 52.2272 38.9786C51.0322 40.3725 50.6792 41.9223 50.8405 42.9847C50.9927 43.9863 51.3027 45.0756 52.263 45.3927C52.6447 45.5181 53.0603 45.5271 53.4402 45.6597C53.82 45.7923 54.1855 46.1166 54.1712 46.5197C54.164 46.7006 54.0834 46.8709 54.0726 47.0518C54.0314 47.7273 54.9541 48.3275 54.628 48.9205C54.5617 49.0406 54.4524 49.1284 54.3647 49.2341C54.0314 49.639 54.0672 50.2213 54.1192 50.7426C54.1694 51.2354 54.2213 51.7388 54.4309 52.1885C54.6406 52.6364 55.0741 53.5054 57.0271 53.3692C59.1161 53.4337 58.9997 52.8138 60.1517 52.3587C62.0867 51.8481 62.4092 52.21 63.3552 52.0864C64.7545 51.9054 65.4407 51.1296 66.5462 51.4181C67.2629 51.6044 68.1748 51.9664 68.6389 52.1634C70.1277 52.262 70.9161 51.5579 70.9591 51.4772C72.0072 50.6853 72.7597 49.725 72.6271 47.9817C73.1324 45.6955 70.9627 46.233 71.9911 43.3395C72.0574 43.2714 72.1219 43.2033 72.1846 43.1334C72.869 42.372 73.4083 41.2844 72.9962 40.3474C72.9138 40.1593 72.7955 39.9855 72.7382 39.7884C72.6862 39.6074 72.6862 39.4139 72.7113 39.2276C72.783 38.6668 73.0553 38.1347 73.4692 37.7513C76.2481 35.2322 72.9783 34.2378 72.6038 34.1088L72.602 34.1106Z" fill="#D9D9D9"/>
<path d="M27.7153 23.2433C27.5344 23.1806 27.3839 23.057 27.2244 22.9495C26.316 22.3367 25.0368 22.3385 24.1284 22.9531C23.9904 23.0462 23.8561 23.1537 23.6948 23.1842C23.4995 23.2218 23.3042 23.143 23.1215 23.0677C22.6592 22.8742 22.1343 21.4301 20.0434 21.509C19.4987 21.5036 17.8002 21.8279 17.3989 23.1268C17.2645 23.3311 17.1534 23.5533 16.9886 23.7342C16.3938 24.39 15.0733 23.8543 14.2258 24.1087C12.7441 24.553 12.1009 24.6713 10.9829 25.7767C10.4311 25.972 8.39936 26.1082 7.34049 28.1113C6.14545 29.5052 5.79249 31.055 5.95374 32.1174C6.10603 33.119 6.41598 34.2083 7.37631 34.5254C7.75794 34.6508 8.17362 34.6598 8.55345 34.7924C8.93328 34.925 9.29877 35.2493 9.28444 35.6524C9.27727 35.8333 9.19666 36.0035 9.18591 36.1845C9.1447 36.86 10.0674 37.4602 9.74132 38.0532C9.67503 38.1733 9.56573 38.261 9.47793 38.3668C9.14468 38.7717 9.18052 39.354 9.23248 39.8753C9.28264 40.368 9.33462 40.8715 9.54425 41.3212C9.75387 41.7691 10.1875 42.6381 12.1404 42.5019C14.2295 42.5664 14.113 41.9465 15.265 41.4914C17.2 40.9808 17.5225 41.3427 18.4685 41.2191C19.8678 41.0381 20.554 40.2623 21.6595 40.5508C22.3762 40.7371 23.2881 41.099 23.7521 41.2961C25.241 41.3947 26.0294 40.6905 26.0724 40.6099C27.1205 39.818 27.873 38.8577 27.7404 37.1144C28.2456 34.8282 26.0759 35.3657 27.1043 32.4722C27.1706 32.4041 27.2352 32.336 27.2979 32.2661C27.9823 31.5047 28.5216 30.4171 28.1095 29.4801C28.0271 29.292 27.9088 29.1182 27.8515 28.9211C27.7995 28.7401 27.7995 28.5466 27.8246 28.3603C27.8963 27.7995 28.1686 27.2674 28.5825 26.884C31.3613 24.3649 28.0916 23.3705 27.7171 23.2415L27.7153 23.2433Z" fill="#D9D9D9"/>
</g>
<path d="M57.0487 50.6952C57.416 50.765 57.7671 50.8976 58.1058 51.0517C58.4462 51.2058 58.7723 51.3921 59.0804 51.6071C59.3832 51.8275 59.6771 52.0765 59.9028 52.3883C60.1303 52.6893 60.2916 53.0852 60.2181 53.4597C60.1823 53.0852 59.9727 52.7824 59.738 52.5209C59.4979 52.2593 59.2166 52.0353 58.9228 51.8257C58.6307 51.6143 58.3208 51.4244 58.0072 51.2362C57.6919 51.0535 57.3765 50.8618 57.0469 50.6934L57.0487 50.6952Z" fill="#D9D9D9"/>
<path d="M38.0035 37.852C37.6775 37.852 37.389 37.6262 37.3371 37.3109C37.1794 36.3631 37.2475 34.6144 37.3317 33.6702C37.3639 33.3173 37.69 33.0575 38.0627 33.0861C38.4353 33.1166 38.7113 33.4248 38.679 33.7777C38.5823 34.8563 38.5536 36.3989 38.6736 37.112C38.731 37.4614 38.4801 37.7893 38.111 37.843C38.0752 37.8484 38.0394 37.8502 38.0053 37.8502L38.0035 37.852Z" fill="#D9D9D9"/>
<path d="M42.5612 37.8775C42.2065 37.8775 41.9091 37.6159 41.8876 37.2755C41.8858 37.2396 41.832 36.385 41.832 35.4121C41.832 34.3819 41.927 33.6742 41.9306 33.6437C41.9789 33.2944 42.3176 33.0435 42.6867 33.0919C43.0575 33.1367 43.3191 33.4574 43.2707 33.8068C43.2707 33.814 43.183 34.4697 43.183 35.4121C43.183 36.3545 43.2367 37.1895 43.2367 37.1984C43.26 37.5514 42.9751 37.8542 42.6024 37.8757C42.5881 37.8757 42.5756 37.8757 42.5612 37.8757V37.8775Z" fill="#D9D9D9"/>
<path d="M39.5052 30.0472C39.6664 30.2944 39.4299 30.805 38.8333 31.1992C38.2367 31.5916 37.5075 31.7206 37.3426 31.4733C37.1796 31.2279 37.5308 30.7083 38.1292 30.3123C38.724 29.92 39.3404 29.7999 39.5034 30.0454L39.5052 30.0472Z" fill="#D9D9D9"/>
<path d="M43.7005 31.3117C43.5662 31.5751 43.0251 31.5697 42.4894 31.2991C41.9555 31.0286 41.6294 30.595 41.762 30.3299C41.8963 30.0665 42.4374 30.0736 42.9731 30.3442C43.5088 30.6147 43.8349 31.0483 43.7005 31.3117Z" fill="#D9D9D9"/>
<path d="M35.1201 38.3686C36.8294 40.1531 42.5286 42.0236 47.3715 37.3867C47.3715 37.3867 40.4933 55.2084 35.1201 38.3686Z" fill="#D9D9D9"/>
<path d="M44.7685 42.3246C44.7596 42.3497 44.7345 42.3945 44.7004 42.45C44.2651 43.0771 43.7885 43.6719 43.2814 44.1736C43.2707 44.1844 43.2582 44.1969 43.2474 44.2076C42.2978 45.1375 41.2425 45.7306 40.146 45.5819C40.0493 44.7953 42.0022 41.5667 44.7685 42.3228V42.3246Z" fill="#D9D9D9"/>
<path d="M20.6939 35.1957C20.6796 35.1957 20.6635 35.2011 20.6509 35.2082C20.6366 35.2172 20.6276 35.2297 20.6366 35.2172L20.6599 35.1814L20.7172 35.09L20.8426 34.8929C20.9286 34.7603 21.0218 34.6277 21.1221 34.5005C21.321 34.2443 21.5557 34.006 21.8209 33.791C22.0771 33.5671 22.3817 33.3592 22.7293 33.2715C23.0733 33.1729 23.4549 33.2087 23.772 33.4112C23.8974 33.49 23.9333 33.6549 23.8544 33.7803C23.8347 33.8107 23.8114 33.834 23.7846 33.8537L23.7505 33.877C23.4656 34.0813 23.2327 34.1386 22.9944 34.2264C22.7615 34.3088 22.5017 34.3411 22.2563 34.4593C22.0144 34.5776 21.7886 34.7406 21.5736 34.927C21.4661 35.0201 21.3622 35.1205 21.2619 35.2262L21.1078 35.3892L21.0254 35.4788L20.9752 35.5307C20.9752 35.5307 20.9501 35.5576 20.9197 35.5791C20.891 35.5988 20.8606 35.615 20.8319 35.6275C20.7136 35.6651 20.5864 35.6006 20.5488 35.4806C20.5112 35.3623 20.5757 35.2351 20.6957 35.1975L20.6939 35.1957Z" fill="#D9D9D9"/>
<path d="M24.7834 33.2662C24.5648 33.4024 18.0073 33.1408 17.4734 32.9043C16.9395 32.6678 17.133 29.6596 17.4107 29.4518C17.6884 29.2457 24.7565 29.6327 25.0378 29.7725C25.3173 29.9122 25.0038 33.1283 24.7834 33.2644V33.2662Z" fill="#D9D9D9"/>
<path d="M24.7385 34.1785C24.5199 34.3147 17.9624 34.0531 17.4285 33.8166C16.8946 33.5801 17.088 30.5719 17.3658 30.3658C17.6435 30.1598 24.7116 30.5468 24.9911 30.6865C25.2706 30.8263 24.957 34.0423 24.7385 34.1785Z" fill="#D9D9D9"/>
<path d="M19.3442 31.1865L19.2627 33.0391L22.8981 33.1991L22.9796 31.3465L19.3442 31.1865Z" fill="#D9D9D9"/>
<path d="M14.1121 26.2487C14.1014 26.2487 14.0906 26.2469 14.0781 26.2433C13.9813 26.22 13.9222 26.1214 13.9455 26.0229C14.3594 24.3638 14.8342 22.5256 14.8377 22.5077C14.8628 22.4109 14.9632 22.3518 15.0581 22.3769C15.1549 22.4019 15.214 22.5005 15.1889 22.5972C15.1836 22.6152 14.7087 24.4516 14.2967 26.1089C14.2752 26.1949 14.1963 26.2504 14.1121 26.2451V26.2487Z" fill="#D9D9D9"/>
<path d="M14.0101 25.9152C14.0101 25.9152 13.6554 26.209 13.5604 26.7358C13.4744 27.2088 13.6661 27.3987 13.8184 27.3217C13.9779 27.2392 13.7915 26.7662 13.9797 26.3828C13.9797 26.3828 13.8793 26.734 14.0227 27.1371C14.1373 27.4578 14.3846 27.4327 14.4258 27.3306C14.5154 27.1138 14.2359 26.9096 14.2287 26.4025C14.2287 26.4025 14.2448 26.6498 14.4634 26.8325C14.682 27.0135 14.8414 26.9185 14.8576 26.7662C14.8773 26.571 14.4401 26.4402 14.3165 25.9457C14.1946 25.4601 14.0657 25.8489 14.0119 25.9134L14.0101 25.9152Z" fill="#D9D9D9"/>
<path d="M28.7674 27.2026C28.6832 27.199 28.6097 27.1345 28.599 27.0467C28.3571 25.3554 28.0704 23.4813 28.0668 23.4616C28.0507 23.3631 28.1188 23.2699 28.2173 23.2556C28.3159 23.2412 28.409 23.3093 28.4234 23.4079C28.427 23.4258 28.7136 25.3034 28.9555 26.9948C28.9698 27.0933 28.9 27.1865 28.8032 27.2008C28.7907 27.2026 28.7799 27.2026 28.7674 27.2008V27.2026Z" fill="#D9D9D9"/>
<path d="M28.9037 26.8845C28.9037 26.8845 29.2262 27.2142 29.2692 27.7463C29.3068 28.2247 29.0972 28.3949 28.9538 28.3035C28.8015 28.2067 29.0362 27.7534 28.8875 27.3521C28.8875 27.3521 28.952 27.7122 28.7675 28.0992C28.6224 28.4056 28.3787 28.3554 28.3465 28.2515C28.2802 28.0276 28.5776 27.852 28.6367 27.3485C28.6367 27.3485 28.5955 27.594 28.3608 27.7517C28.1261 27.9093 27.9756 27.7982 27.9756 27.6459C27.9756 27.4507 28.4253 27.3647 28.5973 26.8845C28.7675 26.4133 28.8571 26.8128 28.9037 26.8845Z" fill="#D9D9D9"/>
<path d="M20.6225 29.6419L20.3232 29.5989C20.5132 28.2408 20.6081 26.7018 20.6099 26.6857L20.9127 26.7036C20.9127 26.7197 20.816 28.2713 20.6243 29.6401L20.6225 29.6419Z" fill="#D9D9D9"/>
<path d="M20.4918 29.4303C20.4918 29.4303 19.9848 29.3282 19.4383 29.4895C18.8901 29.6507 18.6571 30.2384 19.3326 30.2867C20.0098 30.3351 20.5993 29.846 20.6262 29.6704C20.6531 29.4948 20.4918 29.4303 20.4918 29.4303Z" fill="#D9D9D9"/>
<path d="M21.7441 29.6265C21.7208 28.3133 21.8104 26.8405 21.8122 26.8262L22.0988 26.8441C22.0988 26.8584 22.0093 28.3222 22.0326 29.623L21.7459 29.6283L21.7441 29.6265Z" fill="#D9D9D9"/>
<path d="M21.8915 29.442C21.8915 29.442 22.3789 29.4043 22.8769 29.6211C23.375 29.8361 23.5273 30.4166 22.8841 30.3826C22.2409 30.3503 21.7428 29.82 21.7374 29.6516C21.7321 29.4832 21.8915 29.4402 21.8915 29.4402V29.442Z" fill="#D9D9D9"/>
<path d="M15.4915 19.4011C15.3876 21.4561 13.5045 22.8268 14.5939 24.3963C16.1222 26.6 18.618 28.0943 21.5026 28.2412C26.4422 28.492 28.1819 24.4966 28.4327 19.557C28.6835 14.6173 25.4281 13.4259 22.0723 13.5406C19.2952 13.6355 15.7441 14.4615 15.4933 19.4011H15.4915Z" fill="#D9D9D9"/>
<path d="M21.8729 19.2324L21.416 28.2355C21.4447 28.2355 21.4734 28.2409 21.5002 28.2409C24.3436 28.386 26.9433 27.1856 28.6866 25.1987L21.8729 19.2324Z" fill="#D9D9D9"/>
<path d="M28.6581 25.2288C29.9588 23.7614 30.7902 21.8605 30.8977 19.7481C30.9335 19.0368 30.8833 18.3398 30.7597 17.668L21.873 19.2285L28.6581 25.227V25.2288Z" fill="#D9D9D9"/>
<path d="M21.873 19.2314L30.7705 17.73C30.2885 14.9995 28.5613 12.6739 26.1713 11.3965L21.873 19.2314Z" fill="#D9D9D9"/>
<path d="M21.8694 19.2348L26.2088 11.416C25.0729 10.8014 23.7847 10.4234 22.4087 10.3535C21.0004 10.2818 19.6513 10.5416 18.4365 11.0594L21.8676 19.2348H21.8694Z" fill="#D9D9D9"/>
<path d="M13.3271 16.9022L21.8734 19.2349L18.4638 11.0488C15.9842 12.1005 14.0617 14.2416 13.3271 16.9022Z" fill="#D9D9D9"/>
<path d="M13.3431 16.8458C13.1622 17.4854 13.0475 18.1537 13.0117 18.8435C12.906 20.9308 13.5241 22.8855 14.6439 24.4658L21.8714 19.2323L13.3413 16.8458H13.3431Z" fill="#D9D9D9"/>
<path d="M15.5093 19.0591C15.4054 21.1142 13.5242 22.4848 14.6117 24.0525C16.14 26.2563 18.6358 27.7505 21.5204 27.8974C26.46 28.1483 28.1997 24.1528 28.4505 19.2132C28.7014 14.2736 25.4459 13.0821 22.0901 13.1968C19.313 13.2918 15.762 14.1177 15.5111 19.0573L15.5093 19.0591Z" fill="#D9D9D9"/>
<path d="M21.8914 18.8885L21.4346 27.8898C21.4632 27.8898 21.4901 27.8952 21.5188 27.8952C24.3621 28.0403 26.9619 26.8399 28.7051 24.853L21.8914 18.8867V18.8885Z" fill="#D9D9D9"/>
<path d="M28.6766 24.889C29.9774 23.4216 30.8087 21.5206 30.9162 19.4082C30.9521 18.6952 30.9019 18 30.7783 17.3281L21.8916 18.8887L28.6766 24.8872V24.889Z" fill="#D9D9D9"/>
<path d="M21.8916 18.8896L30.789 17.39C30.3071 14.6595 28.5799 12.3339 26.1898 11.0547L21.8916 18.8896Z" fill="#D9D9D9"/>
<path d="M21.8881 18.893L26.2293 11.0742C25.0934 10.4596 23.8051 10.0816 22.4291 10.0117C21.0209 9.94005 19.6718 10.1998 18.457 10.7194L21.8881 18.8948V18.893Z" fill="#D9D9D9"/>
<path d="M13.3447 16.5604L21.891 18.8932L18.4814 10.707C16.0018 11.7587 14.0793 13.8998 13.3447 16.5604Z" fill="#D9D9D9"/>
<path d="M13.3607 16.5039C13.1797 17.1435 13.0651 17.8118 13.0292 18.5016C12.9235 20.5889 13.5417 22.5418 14.6614 24.1239L21.8908 18.8904L13.3607 16.5039Z" fill="#D9D9D9"/>
<path d="M24.0737 13.898L22.3501 11.5724L20.304 13.7403C18.0752 14.4211 16.4035 16.4368 16.2799 18.8985C16.1205 22.0393 18.5356 24.7143 21.6764 24.8737C24.8172 25.0332 27.4922 22.6162 27.6516 19.4754C27.7788 16.9778 26.2738 14.7741 24.0737 13.898Z" fill="#D9D9D9"/>
<path d="M18.2437 15.4185C17.287 16.567 17.7958 17.4825 18.4695 16.601C19.1432 15.7213 20.0211 14.7287 21.114 14.6194C21.6891 14.5621 22.352 12.1953 22.352 12.1953L21.0656 13.9028C21.0656 13.9028 19.1575 14.3202 18.2437 15.4167V15.4185Z" fill="#D9D9D9"/>
<path d="M18.8975 14.937C19.7772 14.2222 20.5423 14.0484 21.5689 14.1003C21.5689 14.1003 19.4064 14.4927 18.6091 16.1231C18.4174 16.5137 17.7043 15.9063 18.8975 14.937Z" fill="#D9D9D9"/>
<path d="M26.8441 18.3129C26.7617 18.2519 26.6166 18.2717 26.3246 18.9722C26.0325 19.6709 25.1456 20.2264 25.1456 20.2264C25.1456 20.2264 24.4111 24.5909 20.1326 24.3741C19.9319 24.3633 19.7509 24.3579 19.5879 24.3597C20.2275 24.6536 20.9316 24.8345 21.677 24.8722C24.8178 25.0316 27.4927 22.6147 27.6522 19.4739C27.7507 17.5371 26.8674 15.7777 25.4413 14.6758C25.9662 15.749 26.4392 17.0282 26.2099 17.8219C26.2099 17.8219 26.9696 17.4887 27.1398 18.0979C27.31 18.707 26.9266 18.372 26.8441 18.3111V18.3129Z" fill="#D9D9D9"/>
<path d="M21.6673 25.0514C18.4352 24.8865 15.9376 22.1238 16.1024 18.8898C16.2261 16.4442 17.8744 14.3175 20.2071 13.5847L22.2192 11.4508C22.255 11.4132 22.3088 11.3899 22.3589 11.3953C22.4109 11.3989 22.4593 11.424 22.4915 11.467L24.1846 13.7513C26.4923 14.6938 27.9525 16.9907 27.8271 19.4847C27.6623 22.7168 24.8995 25.2144 21.6655 25.0496L21.6673 25.0514ZM22.3338 11.8486L20.4347 13.8624C20.4132 13.8857 20.3881 13.9018 20.3576 13.9108C18.1431 14.5863 16.5754 16.5947 16.459 18.9078C16.3049 21.9464 18.6502 24.5408 21.687 24.6966C24.7239 24.8507 27.3218 22.5054 27.4759 19.4685C27.596 17.1089 26.2021 14.9374 24.0091 14.0631C23.9786 14.0505 23.9517 14.0308 23.932 14.004L22.3338 11.8486Z" fill="#D9D9D9"/>
<path d="M20.739 14.2087C20.7838 14.3252 20.5993 14.5061 20.3269 14.6101C20.0546 14.714 19.7966 14.7032 19.7518 14.585C19.707 14.4667 19.8916 14.2876 20.1639 14.1819C20.4362 14.0779 20.6942 14.0905 20.739 14.2087Z" fill="#D9D9D9"/>
<path d="M23.6546 14.4003C23.5919 14.5096 23.746 14.7174 23.9986 14.8607C24.253 15.0059 24.5092 15.0327 24.5701 14.9234C24.6329 14.8142 24.4788 14.6081 24.2261 14.463C23.9735 14.3179 23.7155 14.2892 23.6546 14.3985V14.4003Z" fill="#D9D9D9"/>
<path d="M17.5732 17.4961C18.9439 21.04 24.8725 21.3571 26.5298 17.8992C25.1394 21.6205 18.6608 21.2711 17.5732 17.4961Z" fill="#D9D9D9"/>
<path d="M17.1512 17.7882C17.1512 17.7882 17.1512 17.7649 17.1619 17.7255C17.1727 17.686 17.1978 17.6287 17.2462 17.5714C17.273 17.5445 17.3035 17.5158 17.3411 17.4943C17.703 17.2811 18.151 17.6395 18.3427 17.9279C18.004 17.7577 17.4612 17.3492 17.1494 17.79L17.1512 17.7882Z" fill="#D9D9D9"/>
<path d="M27.044 18.2507C26.777 17.783 26.1965 18.1324 25.8418 18.2686C26.0622 17.998 26.5423 17.6881 26.881 17.9371C26.9186 17.9622 26.9455 17.9944 26.9688 18.0249C27.0118 18.0876 27.0279 18.1467 27.0368 18.1862C27.044 18.2274 27.0422 18.2507 27.0422 18.2507H27.044Z" fill="#D9D9D9"/>
<path d="M20.802 18.5294C20.7895 18.7694 20.5852 18.954 20.3451 18.9414C20.1051 18.9289 19.9223 18.7246 19.9331 18.4846L20.0298 16.5746C20.0423 16.3346 20.2466 16.1518 20.4849 16.1626C20.725 16.1751 20.9095 16.3776 20.897 16.6176L20.8002 18.5258L20.802 18.5294Z" fill="#D9D9D9"/>
<path d="M23.977 18.6916C23.9644 18.9317 23.7602 19.1162 23.5201 19.1037C23.28 19.0912 23.0955 18.8869 23.108 18.6468L23.2048 16.7387C23.2173 16.4986 23.4216 16.3159 23.6599 16.3266C23.8999 16.3392 24.0845 16.5416 24.0719 16.7817L23.9752 18.6898L23.977 18.6916Z" fill="#D9D9D9"/>
<g style="mix-blend-mode:multiply" opacity="0.3">
<path d="M30.7885 17.3901C30.7885 17.3901 30.7885 17.3829 30.7867 17.3793C30.7831 17.3632 30.7813 17.3453 30.7778 17.3292C30.4266 15.4192 29.4663 13.71 28.0956 12.4236C29.0614 15.3422 30.1399 20.8838 26.1069 24.3919C22.4931 27.5345 18.2505 26.4613 15.6113 25.2537C17.1271 26.7874 19.1982 27.78 21.5202 27.8982C21.6672 27.9054 21.8141 27.909 21.9592 27.909C21.9664 27.909 21.9735 27.909 21.9807 27.909C24.627 27.909 27.0296 26.748 28.6779 24.8882C28.6779 24.8882 28.6833 24.881 28.6869 24.8775C28.6941 24.8703 28.7012 24.8631 28.7066 24.856C29.9912 23.3922 30.8118 21.5037 30.9193 19.4075C30.9551 18.7159 30.9068 18.0422 30.7903 17.3883L30.7885 17.3901Z" fill="#D9D9D9"/>
</g>
<path d="M14.6309 14.1114C14.6309 14.1114 13.7691 15.3262 14.1203 15.9156C14.4714 16.5051 16.0266 12.8877 18.9416 11.7769L18.4937 10.8398C18.4937 10.8398 16.8149 11.6318 14.6309 14.1114Z" fill="#D9D9D9"/>
<path d="M16.5893 12.3439C15.1613 13.263 15.0162 14.0549 16.7613 12.695C18.5063 11.3351 18.4006 11.1775 16.5893 12.3439Z" fill="#D9D9D9"/>
<path d="M18.9416 11.7755L18.6299 11.1502C18.6299 11.1502 21.0379 10.0967 21.5091 10.7256C21.8656 11.2004 20.3051 11.1592 18.9398 11.7773L18.9416 11.7755Z" fill="#D9D9D9"/>
<path d="M18.6103 14.3789L18.6873 15.126L19.3933 15.2765L18.6766 15.3249L18.5261 16.1222L18.467 15.3285L17.7969 15.2084L18.4777 15.1189L18.6103 14.3789Z" fill="#D9D9D9"/>
<path d="M22.2068 11.1328L22.2821 11.8799L22.9898 12.0304L22.2713 12.0806L22.1208 12.8779L22.0617 12.0842L21.3916 11.9641L22.0724 11.8746L22.2068 11.1328Z" fill="#D9D9D9"/>
<path d="M16.457 11.7559L16.534 12.503L17.2399 12.6535L16.5233 12.7019L16.3728 13.4992L16.3136 12.7054L15.6436 12.5854L16.3244 12.4976L16.457 11.7559Z" fill="#D9D9D9"/>
<path d="M22.8602 12.2773L23.2292 13.3147L24.2863 13.2825L23.283 13.6014L23.3475 14.7875L22.9856 13.6802L21.9912 13.7411L22.93 13.3774L22.8602 12.2773Z" fill="#D9D9D9"/>
</g>
</svg>
