<svg width="194" height="14" viewBox="0 0 194 14" fill="none" xmlns="http://www.w3.org/2000/svg">
<path d="M4.45705 13.085C2.55305 13.085 0.887047 12.337 0.275047 11.878C0.207047 11.538 1.04005 9.362 1.22705 9.447C1.61805 9.685 2.89305 10.603 4.33805 10.603C5.34105 10.603 5.98705 10.297 5.98705 9.566C5.98705 9.022 5.57905 8.614 3.82805 8.257C1.60105 7.798 0.360047 6.761 0.360047 4.534C0.360047 2.596 1.94105 0.913 4.81405 0.913C6.61605 0.913 8.12905 1.389 8.79205 1.916C9.01305 2.086 7.99305 4.296 7.82305 4.279C7.56805 4.16 6.32705 3.531 4.88205 3.531C3.86205 3.531 3.38605 3.939 3.38605 4.5C3.38605 5.027 3.67505 5.299 5.32405 5.673C7.51705 6.183 9.21705 7.067 9.21705 9.396C9.21705 11.198 7.77205 13.085 4.45705 13.085ZM18.789 8.971H18.874C19.52 6.251 20.846 1.406 21.152 1.134C21.322 0.964 23.736 0.946999 24.076 1.032C24.195 1.1 25.861 12.133 25.861 12.762C25.657 13.085 23.039 13.306 23.005 13.17C22.92 12.745 22.342 7.951 22.104 5.758H22.036C21.543 7.73 20.421 11.861 20.013 13.034C19.741 13.136 17.667 13.136 17.565 13C17.361 12.541 16.069 7.475 15.661 5.724H15.593C15.321 7.645 14.777 12.116 14.539 13.102C13.995 13.153 11.717 12.898 11.7 12.711C11.768 11.827 13.485 1.848 13.706 1.151C13.808 0.861999 16.154 0.913 16.528 0.997999C16.834 1.474 18.245 6.523 18.789 8.971ZM36.6884 13.153C36.5524 12.847 35.9914 11.232 35.7874 10.603C35.3794 10.62 32.7784 10.603 32.1664 10.603C31.9624 11.266 31.4694 12.966 31.3674 13.119C31.2824 13.187 28.4094 12.983 28.2054 12.83C28.5284 11.606 31.8264 1.236 31.9794 1.134C32.1324 1.032 35.4474 0.929999 35.8724 1.015C35.9234 1.032 39.4764 10.926 39.8334 12.847C39.4764 13.068 36.7394 13.187 36.6884 13.153ZM34.0874 3.786C34.0534 3.786 34.0194 3.803 33.9854 3.803C33.7474 4.653 33.0164 7.169 32.6254 8.274C33.2034 8.257 34.7504 8.24 35.4474 8.24C35.0224 7.067 34.3084 4.602 34.0874 3.786ZM45.7657 13C45.5957 13.068 42.8757 13.153 42.8587 13.051C42.7737 12.252 42.8417 2.409 42.9947 1.236C43.8617 1.134 45.6977 1.049 47.0237 1.049C50.2877 1.049 52.1577 2.341 52.1577 5.18C52.1577 6.948 51.3247 7.985 49.9987 8.529C51.2907 10.093 52.6167 12.167 52.5657 12.235C52.3787 12.49 50.4237 13.306 49.9137 13.289C49.8627 13.289 48.3837 10.892 46.9727 9.039C46.9047 9.056 46.8197 9.056 46.7517 9.056C46.4627 9.056 46.0547 9.039 45.8507 9.022C45.8337 10.195 45.8337 12.507 45.7657 13ZM46.0207 6.659C46.3437 6.693 46.8537 6.71 47.2447 6.71C48.3497 6.71 49.1147 6.268 49.1147 5.248C49.1147 4.296 48.6217 3.684 47.1427 3.684C46.8197 3.684 46.3607 3.701 46.0207 3.735C46.0377 4.194 46.0207 6.064 46.0207 6.659ZM54.8508 3.735C54.6978 3.225 54.6978 1.338 54.7828 1.236C55.0038 1.117 62.9598 0.929999 63.7588 1.049C63.9968 1.117 63.9798 3.633 63.8608 3.65C63.5038 3.701 62.2798 3.735 60.8518 3.786C60.8688 7.067 60.9028 12.252 60.8348 12.932C60.7328 13.051 57.8768 13.153 57.8598 13C57.7918 12.065 57.7748 6.812 57.8088 3.752C56.7038 3.769 55.2928 3.786 54.8508 3.735ZM74.9501 10.501C75.0861 11.062 75.0521 12.762 74.9671 13.051C75.1031 13.136 68.3371 13.17 66.9771 13.034C66.8921 11.691 66.9771 3.429 67.0791 1.134C68.6601 1.032 74.9671 0.997999 75.1541 1.083C75.2731 1.389 75.2731 3.106 75.1881 3.667C74.7121 3.718 71.3121 3.735 69.9181 3.684L69.9521 5.758C71.4481 5.741 73.8111 5.775 73.9131 5.86C74.1001 6.013 73.9641 8.24 73.9641 8.308C73.9641 8.393 71.5671 8.393 69.9521 8.342C69.9521 9.107 69.9521 9.923 69.9351 10.518C71.4651 10.484 74.4741 10.467 74.9501 10.501ZM81.4956 13C81.3256 13.068 78.6056 13.153 78.5886 13.051C78.5036 12.252 78.5716 2.409 78.7246 1.236C79.5916 1.134 81.4276 1.049 82.7536 1.049C86.0176 1.049 87.8876 2.341 87.8876 5.18C87.8876 6.948 87.0546 7.985 85.7286 8.529C87.0206 10.093 88.3466 12.167 88.2956 12.235C88.1086 12.49 86.1536 13.306 85.6436 13.289C85.5926 13.289 84.1136 10.892 82.7026 9.039C82.6346 9.056 82.5496 9.056 82.4816 9.056C82.1926 9.056 81.7846 9.039 81.5806 9.022C81.5636 10.195 81.5636 12.507 81.4956 13ZM81.7506 6.659C82.0736 6.693 82.5836 6.71 82.9746 6.71C84.0796 6.71 84.8446 6.268 84.8446 5.248C84.8446 4.296 84.3516 3.684 82.8726 3.684C82.5496 3.684 82.0906 3.701 81.7506 3.735C81.7676 4.194 81.7506 6.064 81.7506 6.659ZM95.3353 3.735C95.1823 3.225 95.1823 1.338 95.2673 1.236C95.4883 1.117 103.444 0.929999 104.243 1.049C104.481 1.117 104.464 3.633 104.345 3.65C103.988 3.701 102.764 3.735 101.336 3.786C101.353 7.067 101.387 12.252 101.319 12.932C101.217 13.051 98.3613 13.153 98.3443 13C98.2763 12.065 98.2593 6.812 98.2933 3.752C97.1883 3.769 95.7773 3.786 95.3353 3.735ZM112.399 0.878999C115.969 0.878999 118.298 3.276 118.298 7.237C118.298 10.246 116.513 13.323 112.45 13.323C108.829 13.323 106.568 10.756 106.568 6.965C106.568 3.888 108.506 0.878999 112.399 0.878999ZM115.051 7.016C115.051 4.738 113.963 3.65 112.45 3.65C110.699 3.65 109.713 5.027 109.713 7.135C109.713 9.039 110.75 10.535 112.382 10.535C114.201 10.535 115.051 9.141 115.051 7.016ZM124.247 7.084C124.247 9.515 125.522 10.637 127.222 10.637C127.8 10.637 128.378 10.467 128.752 10.331C128.735 9.906 128.718 8.716 128.718 8.716C128.718 8.716 127.086 8.767 126.746 8.784C126.661 8.682 126.627 6.778 126.729 6.608C127.256 6.489 131.387 6.336 131.506 6.472C131.625 6.659 131.574 11.64 131.506 12.031C130.758 12.626 128.871 13.34 126.916 13.34C122.938 13.34 121.085 10.518 121.085 6.965C121.085 3.548 123.38 0.913 127.222 0.913C129.194 0.913 130.588 1.576 131.132 2.069C131.132 2.409 130.163 4.177 129.857 4.5C129.228 4.143 128.344 3.769 127.273 3.769C125.522 3.769 124.247 5.146 124.247 7.084ZM143.023 10.501C143.159 11.062 143.125 12.762 143.04 13.051C143.176 13.136 136.41 13.17 135.05 13.034C134.965 11.691 135.05 3.429 135.152 1.134C136.733 1.032 143.04 0.997999 143.227 1.083C143.346 1.389 143.346 3.106 143.261 3.667C142.785 3.718 139.385 3.735 137.991 3.684L138.025 5.758C139.521 5.741 141.884 5.775 141.986 5.86C142.173 6.013 142.037 8.24 142.037 8.308C142.037 8.393 139.64 8.393 138.025 8.342C138.025 9.107 138.025 9.923 138.008 10.518C139.538 10.484 142.547 10.467 143.023 10.501ZM145.914 3.735C145.761 3.225 145.761 1.338 145.846 1.236C146.067 1.117 154.023 0.929999 154.822 1.049C155.06 1.117 155.043 3.633 154.924 3.65C154.567 3.701 153.343 3.735 151.915 3.786C151.932 7.067 151.966 12.252 151.898 12.932C151.796 13.051 148.94 13.153 148.923 13C148.855 12.065 148.838 6.812 148.872 3.752C147.767 3.769 146.356 3.786 145.914 3.735ZM168.529 13.017C168.444 13.374 165.503 13.221 165.503 13.085C165.486 12.456 165.469 10.637 165.452 8.614C164.296 8.631 162.307 8.648 161.253 8.631C161.253 10.45 161.236 12.184 161.202 13.068C160.641 13.221 158.159 13.272 158.142 13.102C158.057 12.133 157.938 2.273 158.074 1.117C158.108 0.76 161.066 0.929999 161.117 1.049C161.151 1.61 161.202 3.599 161.219 5.86C162.273 5.843 164.313 5.826 165.452 5.826C165.469 3.769 165.486 1.882 165.537 1.253C166.115 1.1 168.461 1.117 168.563 1.219C168.682 1.321 168.699 11.861 168.529 13.017ZM180.546 10.501C180.682 11.062 180.648 12.762 180.563 13.051C180.699 13.136 173.933 13.17 172.573 13.034C172.488 11.691 172.573 3.429 172.675 1.134C174.256 1.032 180.563 0.997999 180.75 1.083C180.869 1.389 180.869 3.106 180.784 3.667C180.308 3.718 176.908 3.735 175.514 3.684L175.548 5.758C177.044 5.741 179.407 5.775 179.509 5.86C179.696 6.013 179.56 8.24 179.56 8.308C179.56 8.393 177.163 8.393 175.548 8.342C175.548 9.107 175.548 9.923 175.531 10.518C177.061 10.484 180.07 10.467 180.546 10.501ZM187.092 13C186.922 13.068 184.202 13.153 184.184 13.051C184.1 12.252 184.168 2.409 184.321 1.236C185.188 1.134 187.024 1.049 188.35 1.049C191.614 1.049 193.484 2.341 193.484 5.18C193.484 6.948 192.651 7.985 191.325 8.529C192.617 10.093 193.943 12.167 193.892 12.235C193.705 12.49 191.75 13.306 191.24 13.289C191.189 13.289 189.71 10.892 188.299 9.039C188.231 9.056 188.146 9.056 188.078 9.056C187.789 9.056 187.381 9.039 187.177 9.022C187.16 10.195 187.16 12.507 187.092 13ZM187.347 6.659C187.67 6.693 188.18 6.71 188.571 6.71C189.676 6.71 190.441 6.268 190.441 5.248C190.441 4.296 189.948 3.684 188.469 3.684C188.146 3.684 187.687 3.701 187.347 3.735C187.364 4.194 187.347 6.064 187.347 6.659Z" fill="white"/>
</svg>
