<svg width="232" height="62" viewBox="0 0 232 62" fill="none" xmlns="http://www.w3.org/2000/svg">
<g clip-path="url(#clip0_1682_9410)">
<path d="M14.535 61.5711C14.4088 60.9716 14.0521 55.0323 13.8436 52.1066C13.8436 52.1066 11.6324 53.52 11.3909 53.5035C11.2428 53.498 10.4197 51.2322 10.4691 51.1552C10.7709 50.7593 14.4362 48.6475 14.8477 48.4825C15.1824 48.4935 16.4499 48.6035 16.6694 48.807C16.6694 48.807 17.6625 60.5427 17.6351 61.2906C17.5089 61.3566 14.6612 61.747 14.535 61.5711Z" fill="white"/>
<path d="M22.7654 54.5978C22.4307 49.9013 24.1756 47.7236 27.1385 47.5091C30.0411 47.3001 32.2743 49.0874 32.62 53.9489C32.9218 58.2219 31.3964 60.6416 28.203 60.8726C24.8779 61.1091 23.0946 59.1623 22.7709 54.5978H22.7654ZM29.4485 54.3393C29.262 51.7436 28.6804 50.3248 27.3415 50.4183C26.0192 50.5118 25.5693 51.9526 25.7448 54.4768C25.9259 56.979 26.524 58.1779 27.8683 58.0844C29.1907 57.9909 29.6241 56.7756 29.4485 54.3448V54.3393Z" fill="white"/>
<path d="M39.5171 51.6776C39.5391 52.0241 39.7311 52.2386 40.0768 52.2276C40.4499 52.2056 40.7023 51.9306 40.845 51.9416C40.9766 51.9636 41.2729 52.9315 41.2949 53.157C41.2949 53.157 40.8779 53.7234 39.764 53.7784C38.5295 53.8554 37.893 53.223 37.8271 52.1726C37.8052 51.6666 37.7613 49.8133 37.7613 49.8023C37.7613 49.7913 37.0754 49.8463 37.0205 49.7913C36.9657 49.7419 36.8779 48.4935 36.9437 48.4825C36.9876 48.4715 37.7064 48.4605 37.7338 48.422C37.7613 48.378 37.6296 47.2616 37.7229 47.1626C37.8161 47.0582 39.2867 46.8712 39.3415 46.9262C39.3964 46.9757 39.3854 48.367 39.4074 48.367C39.4293 48.356 40.6035 48.2295 40.7188 48.367C40.834 48.51 40.8175 49.5989 40.8175 49.5989C40.7517 49.7309 39.4458 49.6924 39.4513 49.7803C39.4513 49.8353 39.4952 51.0617 39.5226 51.6831L39.5171 51.6776Z" fill="white"/>
<path d="M45.3937 45.2709C45.4431 45.5404 45.5364 48.2901 45.5144 48.565C45.7339 48.2296 46.1344 47.8831 46.8861 47.8446C48.3457 47.7676 49.1248 48.653 49.1962 50.0389C49.2346 50.7593 49.262 52.871 49.2071 53.08C49.1578 53.179 47.572 53.256 47.5501 53.234C47.5226 53.1185 47.4239 50.7098 47.4074 50.3193C47.3855 49.8684 47.1056 49.3569 46.5514 49.3844C45.9643 49.4174 45.6626 49.8959 45.6845 50.3138C45.7065 50.6768 45.8327 53.2945 45.8052 53.3275C45.7778 53.3715 44.1756 53.4375 44.1427 53.3715C44.1043 53.311 43.6818 45.9253 43.7037 45.3314C43.7641 45.2654 45.3443 45.0399 45.3992 45.2709H45.3937Z" fill="white"/>
<path d="M64.8779 55.9562C64.4389 55.9947 61.6186 56.0882 60.9547 56.1101C60.7626 56.8361 60.3017 58.7059 60.1975 58.8763C60.1097 58.9533 56.9876 58.8543 56.7626 58.7004C57.0589 57.3585 60.1865 45.9638 60.3456 45.8428C60.5048 45.7273 64.0932 45.4744 64.5541 45.5458C64.609 45.5623 68.8833 56.1486 69.3497 58.2164C68.9711 58.4694 66.0137 58.7169 65.9588 58.6839C65.7997 58.3594 65.1193 56.6271 64.8724 55.9562H64.8779ZM62.6337 48.653C62.4142 49.5879 61.7283 52.3486 61.3552 53.5639C61.9807 53.5199 63.6543 53.4375 64.4115 53.4045C63.9012 52.1506 63.0233 49.5054 62.7489 48.631C62.7105 48.631 62.6776 48.653 62.6392 48.653H62.6337Z" fill="white"/>
<path d="M82.4142 58.1284C82.0521 57.694 79.2867 53.4265 77.4321 50.7043C77.5034 53.3605 77.6954 56.6821 77.679 58.0679C77.059 58.2494 74.4965 58.3374 74.4746 58.1504C74.3539 57.1 74.0301 46.7117 74.1454 45.4524C74.2112 45.1169 77.0809 45.0454 77.1797 45.1719C77.3882 45.4799 80.6474 50.2148 82.2661 53.0195C82.2277 50.0498 82.0192 46.2498 82.0686 45.2874C82.6886 45.1059 85.1412 45.0784 85.251 45.1884C85.3662 45.2984 85.6022 56.5556 85.4485 57.815C85.3827 58.1504 82.6392 58.2769 82.4142 58.1339V58.1284Z" fill="white"/>
<path d="M99.6653 57.8259C99.3086 57.386 96.6035 53.08 94.7819 50.3358C94.8148 52.992 94.9684 56.3136 94.93 57.6994C94.3045 57.8754 91.7476 57.9249 91.7256 57.7379C91.6214 56.6876 91.4348 46.2937 91.5665 45.0344C91.6378 44.6989 94.5075 44.6659 94.6008 44.7924C94.8093 45.1059 97.9972 49.8793 99.583 52.706C99.583 49.7308 99.4238 45.9308 99.4842 44.9684C100.11 44.7924 102.557 44.7979 102.672 44.9079C102.782 45.0179 102.87 56.2806 102.705 57.5345C102.634 57.8699 99.8902 57.9579 99.6707 57.8149L99.6653 57.8259Z" fill="white"/>
<path d="M112.269 44.7924C112.401 45.5678 112.411 56.4621 112.285 57.639C112.176 57.9689 109.026 57.848 109.004 57.7215C108.927 56.4126 108.845 46.6072 108.988 44.8364C109.575 44.6109 112.154 44.6824 112.269 44.7924Z" fill="white"/>
<path d="M123.413 53.7564C123.737 52.2606 125.47 46.0518 125.926 44.6714C126.019 44.6 129.262 44.7319 129.333 45.0069C128.993 46.5577 125.547 57.573 125.377 57.683C125.191 57.793 121.97 57.881 121.492 57.7875C121.438 57.771 117.898 46.9812 117.547 44.9134C117.679 44.6 120.845 44.4735 120.938 44.6055C121.081 44.9189 123.04 52.2606 123.309 53.7784C123.347 53.7784 123.38 53.7619 123.418 53.7619L123.413 53.7564Z" fill="white"/>
<path d="M143.001 58.0019C143.149 58.0954 135.813 58.0019 134.343 57.8259C134.277 56.3686 134.535 47.3936 134.689 44.9079C136.406 44.8309 143.237 44.9189 143.44 45.0124C143.561 45.3478 143.528 47.2121 143.424 47.8171C142.908 47.8611 139.221 47.8171 137.712 47.7291V49.9838C139.331 49.9948 141.887 50.0773 141.997 50.1708C142.195 50.3413 142.008 52.7555 142.003 52.8325C142.003 52.926 139.402 52.8765 137.657 52.7885C137.641 53.6189 137.624 54.5043 137.597 55.1532C139.254 55.1477 142.513 55.1862 143.029 55.2357C143.166 55.8462 143.095 57.694 142.996 58.0074L143.001 58.0019Z" fill="white"/>
<path d="M148.719 58.1394C148.653 57.2705 149.048 46.5852 149.251 45.3149C150.195 45.2324 152.187 45.1994 153.624 45.2434C157.158 45.3479 159.144 46.8162 159.051 49.8958C158.99 51.8151 158.058 52.915 156.604 53.4594C157.953 55.1972 159.32 57.496 159.265 57.5675C159.056 57.8369 156.911 58.6619 156.357 58.6234C156.302 58.6234 154.776 55.9727 153.311 53.9159C153.235 53.9324 153.147 53.9269 153.07 53.9269C152.757 53.9159 152.313 53.8884 152.093 53.8609C152.038 55.1313 151.962 57.6445 151.874 58.1779C151.687 58.2439 148.741 58.2494 148.724 58.1394H148.719ZM153.679 51.3972C154.875 51.4357 155.72 50.9792 155.753 49.8683C155.786 48.8345 155.27 48.1525 153.668 48.1085C153.317 48.0975 152.823 48.103 152.45 48.125C152.45 48.6255 152.373 50.6548 152.357 51.2982C152.708 51.3477 153.256 51.3807 153.679 51.3917V51.3972Z" fill="white"/>
<path d="M163.89 57.353C163.83 56.9791 164.834 54.6583 165.032 54.7573C165.443 55.0323 166.782 56.0882 168.346 56.1542C169.432 56.1982 170.145 55.8957 170.178 55.1038C170.206 54.5154 169.778 54.0534 167.901 53.586C165.509 52.9865 164.214 51.8042 164.318 49.3844C164.406 47.2837 166.195 45.5294 169.306 45.6614C171.259 45.7438 172.872 46.3323 173.564 46.9317C173.794 47.1242 172.587 49.4779 172.406 49.4504C172.137 49.3074 170.82 48.5705 169.256 48.5045C168.154 48.455 167.616 48.8785 167.594 49.4889C167.572 50.0609 167.868 50.3688 169.641 50.8528C171.989 51.5072 173.789 52.5466 173.684 55.0708C173.602 57.0286 171.951 59.0083 168.362 58.8544C166.299 58.7664 164.532 57.881 163.89 57.353Z" fill="white"/>
<path d="M185.992 57.0396C185.547 57.0341 182.738 56.8581 182.074 56.8196C181.811 57.5235 181.174 59.3383 181.059 59.4978C180.96 59.5638 177.866 59.1678 177.657 58.9918C178.08 57.683 182.277 46.6402 182.447 46.5357C182.617 46.4368 186.211 46.5247 186.667 46.6457C186.722 46.6677 189.964 57.6115 190.233 59.7178C189.833 59.9377 186.864 59.8992 186.809 59.8607C186.683 59.5198 186.173 57.738 185.992 57.0396ZM184.455 49.5549C184.148 50.4623 183.204 53.146 182.711 54.3229C183.336 54.3394 185.01 54.4164 185.767 54.4548C185.377 53.157 184.757 50.4403 184.565 49.5439C184.527 49.5439 184.488 49.5604 184.455 49.5549Z" fill="white"/>
<path d="M195.281 60.2732C195.254 59.3988 196.082 48.7465 196.34 47.4871C197.284 47.4431 199.276 47.4926 200.708 47.5971C204.236 47.8501 206.156 49.3954 205.937 52.4696C205.8 54.3834 204.823 55.4447 203.347 55.9287C204.62 57.7215 205.898 60.0697 205.838 60.1412C205.619 60.4052 203.44 61.1366 202.892 61.0761C202.837 61.0761 201.421 58.3594 200.038 56.2477C199.962 56.2586 199.874 56.2531 199.797 56.2477C199.484 56.2257 199.045 56.1762 198.826 56.1432C198.716 57.4135 198.54 59.9157 198.425 60.4437C198.239 60.5042 195.292 60.3887 195.281 60.2732ZM200.51 53.7454C201.706 53.8334 202.568 53.41 202.645 52.3046C202.716 51.2762 202.233 50.5723 200.636 50.4568C200.285 50.4293 199.791 50.4128 199.418 50.4238C199.402 50.9243 199.237 52.948 199.193 53.5914C199.539 53.6519 200.088 53.7124 200.51 53.7399V53.7454Z" fill="white"/>
<path d="M217.147 56.9625C216.999 58.8928 216.812 61.2355 216.664 61.8845C216.527 62.2034 213.328 61.758 213.339 61.615C213.339 60.7626 213.597 58.6343 213.811 56.6326C213.328 55.5712 210.518 49.3954 210.557 49.1754C210.595 48.9554 213.416 48.389 213.63 48.4825C213.717 48.5485 215.237 52.1231 215.748 53.6739L215.857 53.6849C216.774 52.2991 218.914 48.9664 219.04 48.9609C219.243 48.9609 221.893 49.9343 221.893 50.1543C221.871 50.3908 217.75 56.1101 217.141 56.968L217.147 56.9625Z" fill="white"/>
<path d="M0.0493974 8.12263C0.598094 7.76517 21.2895 5.51042 23.3965 5.64241C24.0329 5.76889 24.5432 12.3407 24.236 12.4121C23.3196 12.6266 20.1372 12.9841 16.4225 13.435C17.1907 21.9976 18.4253 35.5315 18.3978 37.3243C18.1564 37.6598 10.738 38.5562 10.6612 38.1602C10.2771 35.735 9.06997 22.0196 8.48287 14.018C5.6077 14.3094 1.93691 14.6669 0.773677 14.6284C0.268876 13.336 -0.148134 8.4086 0.0493974 8.12263Z" fill="white"/>
<path d="M38.2771 21.0351C37.5529 20.9031 36.0714 20.6941 35.1441 20.7986C33.1084 20.9801 32.1372 22.4759 32 24.4447C31.9781 25.4291 33.0206 35.7625 32.8505 35.9109C32.7737 36.0924 25.5913 36.6643 25.4431 36.4059C25.3005 36.2354 23.9452 15.8767 24.0659 15.0188C24.4171 14.2819 30.524 13.6494 30.952 14.0234C31.0563 14.9528 31.1386 16.8226 31.155 17.0921C32.6036 14.0949 35.7147 13.303 38.7161 13.5505C39.4513 13.9024 38.974 20.1002 38.2771 21.0351Z" fill="white"/>
<path d="M44.3786 1.95235C46.7764 1.82036 48.5542 3.37669 48.7024 6.13188C48.8066 8.08966 47.2044 9.69548 44.8066 9.82196C42.4966 9.94845 40.8286 8.74408 40.6969 6.29686C40.5652 3.89363 41.1797 2.12283 44.3786 1.94685V1.95235ZM48.5378 12.9676C48.6804 13.1381 49.487 34.5087 49.3718 34.8276C49.2127 35.1466 42.8587 35.3611 42.76 35.2346C42.6612 35.1081 41.1084 13.864 41.3498 13.3581C41.5913 12.8961 48.3512 12.7971 48.5378 12.9676Z" fill="white"/>
<path d="M57.07 11.5102C57.4705 11.4937 62.107 25.0442 62.3594 25.7426C62.5953 25.0167 67.155 11.1032 67.4184 11.0427C67.6379 10.9877 74.2222 12.1041 74.1893 12.3736C73.6351 15.2058 66.1015 33.7057 65.893 33.9366C65.3772 34.4481 58.8258 34.1346 58.7764 34.0466C58.727 33.9586 50.6886 14.3974 50.6831 13.0995C50.6667 12.742 56.4938 11.5267 57.07 11.5047V11.5102Z" fill="white"/>
<path d="M78.8752 4.59421e-06C81.273 -0.065988 83.0069 1.53983 83.0837 4.30052C83.1386 6.2583 81.487 7.82012 79.0892 7.88611C76.7792 7.94661 75.1441 6.69825 75.0782 4.25102C75.0124 1.8478 75.6763 0.0879947 78.8807 0.00550397L78.8752 4.59421e-06ZM82.7325 11.1307C82.8697 11.3067 83.0892 32.6938 82.963 33.0128C82.7929 33.3262 76.4335 33.3647 76.3402 33.2383C76.2469 33.1063 75.2757 11.8237 75.5281 11.3287C75.7805 10.8778 82.546 10.9603 82.7271 11.1362L82.7325 11.1307Z" fill="white"/>
<path d="M85.4705 21.8051C85.3772 14.8539 90.8807 10.9493 95.6379 10.8393C99.594 10.7844 101.717 13.4296 102.08 14.007C102.08 13.6495 102.003 11.7357 102.091 11.4223C102.217 10.9328 107.907 10.7679 108.801 11.1968C108.889 11.2408 108.9 32.2264 108.774 32.7159C108.642 32.8534 103.802 33.3593 102.195 32.7599C102.195 32.4464 102.08 30.6206 102.03 30.3126C101.679 30.8516 99.1331 32.9359 95.3964 32.9853C90.0192 33.0568 85.5638 29.1963 85.465 21.7996L85.4705 21.8051ZM97.5364 26.5456C100.516 26.5071 101.909 24.4833 101.877 21.8106C101.838 18.8684 99.8134 17.2021 97.4156 17.2351C94.6173 17.2736 93.0864 19.2094 93.1194 21.9701C93.1578 25.0002 95.0947 26.5786 97.5364 26.5456Z" fill="white"/>
<path d="M135.16 26.2321C138.76 26.2761 141.229 24.3843 142.217 23.6858C143.232 24.4118 145.147 28.0414 145.838 29.5647C143.901 31.7259 139.385 33.8102 134.272 33.7552C123.868 33.6342 119.111 26.1386 119.215 16.8226C119.32 7.86963 125.712 1.0339 135.802 1.14939C140.916 1.20988 144.587 2.8542 145.948 4.20705C145.937 5.09795 144.016 9.88791 142.892 10.8118C141.3 9.85491 138.606 8.62305 135.802 8.59005C131.221 8.53506 127.627 12.1482 127.567 17.2296C127.495 23.6034 131.374 26.1881 135.155 26.2321H135.16Z" fill="white"/>
<path d="M161.685 19.0004C160.977 18.8024 159.523 18.4504 158.584 18.4669C156.538 18.4559 155.435 19.8473 155.111 21.7995C154.996 22.7784 155.062 33.1613 154.881 33.2932C154.787 33.4692 147.589 33.3537 147.462 33.0843C147.336 32.9028 147.907 12.5056 148.104 11.6642C148.527 10.9603 154.661 10.9108 155.051 11.3232C155.067 12.2581 154.974 14.1279 154.963 14.3974C156.686 11.5487 159.857 11.0593 162.826 11.5872C163.528 12.0052 162.464 18.126 161.685 19.0004Z" fill="white"/>
<path d="M162.93 22.256C163.237 15.3103 168.96 11.7302 173.717 11.9007C177.668 12.0767 179.638 14.8429 179.967 15.4368C179.984 15.0794 180.022 13.1656 180.126 12.8576C180.28 12.3737 185.97 12.5386 186.837 13.0226C186.925 13.0721 185.723 34.0247 185.569 34.5087C185.432 34.6352 180.571 34.8661 178.996 34.1677C179.007 33.8542 179.001 32.0284 178.974 31.715C178.595 32.2319 175.929 34.1677 172.198 33.9972C166.826 33.7553 162.601 29.6417 162.93 22.256ZM174.705 27.6894C177.679 27.8214 179.193 25.8856 179.309 23.2129C179.44 20.2763 177.514 18.4945 175.117 18.3845C172.318 18.258 170.678 20.1058 170.557 22.8665C170.42 25.8911 172.258 27.5794 174.705 27.6894Z" fill="white"/>
<path d="M200.302 29.7297C202.343 29.8617 204.56 28.6628 205.108 28.4318C205.558 28.3273 206.996 31.6325 207.49 32.9193C206.211 34.7561 203.051 36.1584 199.632 35.9385C191.292 35.3995 188.395 29.1852 188.757 23.5814C189.119 17.9775 193.778 12.7421 200.966 13.2095C205.668 13.512 208.428 15.6128 208.532 16.0637C208.631 16.6081 207.062 21.5961 206.244 21.8106C205.931 21.8326 203.753 19.6823 201.18 19.5173C198.03 19.3138 195.962 20.9637 195.742 24.3898C195.468 28.6573 198.392 29.6087 200.296 29.7297H200.302Z" fill="white"/>
<path d="M219.078 3.21713C219.331 3.41511 217.185 22.1075 217.185 22.1075C217.185 22.1075 226.667 14.6063 227.106 14.6448C227.506 14.6778 232.006 17.884 231.995 18.5109C231.984 19.1378 224.658 24.4502 224.658 24.4502C224.658 24.4502 231.309 36.3839 231.188 36.7303C231.073 37.0328 225.794 38.7706 224.307 38.4187C223.956 38.3417 219.248 27.6949 218.892 27.7114C218.535 27.7224 216.9 29.1027 216.9 29.1027L216.444 37.0218C216.444 37.0218 210.019 36.5104 209.734 36.2189C209.405 35.9219 211.451 3.27212 212.077 2.74968C212.697 2.26574 218.793 3.01365 219.084 3.22263L219.078 3.21713Z" fill="white"/>
</g>
<defs>
<clipPath id="clip0_1682_9410">
<rect width="232" height="62" fill="white"/>
</clipPath>
</defs>
</svg>
