<svg width="78" height="78" viewBox="0 0 78 78" fill="none" xmlns="http://www.w3.org/2000/svg">
<mask id="mask0_2250_36020" style="mask-type:alpha" maskUnits="userSpaceOnUse" x="0" y="0" width="78" height="78">
<rect width="78" height="78" fill="#D9D9D9"/>
</mask>
<g mask="url(#mask0_2250_36020)">
<path fill-rule="evenodd" clip-rule="evenodd" d="M32.2482 15.6447C34.734 14.5865 37.4717 13.9999 40.3498 13.9999L40.3518 14.0038C44.1995 14.0038 47.8012 15.0519 50.8797 16.8757C55.7988 19.6325 59.5361 24.2474 61.1408 29.7697C61.3249 30.339 61.4843 30.9191 61.6179 31.5089C62.6254 31.6153 63.684 31.8532 64.7866 32.2424C67.0668 33.0473 68.9092 34.3091 70.2563 35.8218C70.2963 35.8164 70.3362 35.8123 70.3759 35.8095C70.4652 35.804 70.5541 35.8046 70.6399 35.8116L70.7692 35.8228L70.8951 35.8434C71.0611 35.8777 71.2189 35.9296 71.367 36.0011C71.5161 36.0798 71.643 36.195 71.7363 36.3368C71.825 36.4839 71.8591 36.6703 71.83 36.8664C71.8036 37.0373 71.7368 37.2077 71.633 37.3629L71.6296 37.3697C71.6707 37.3861 71.7111 37.4038 71.7508 37.423C71.8999 37.5017 72.0267 37.6169 72.1201 37.7587C72.2088 37.9058 72.2429 38.0922 72.2138 38.2882C72.2042 38.3502 72.1893 38.412 72.1693 38.4731C72.2774 38.5126 72.3825 38.5595 72.484 38.6142C72.6408 38.7049 72.7785 38.8294 72.885 38.977C72.9873 39.1293 73.0384 39.3152 73.0269 39.5049C73.0151 39.6806 72.9577 39.8516 72.8567 40.0009C72.8696 39.9632 72.8802 39.9252 72.8884 39.8871C72.8575 39.996 72.8026 40.1104 72.7157 40.2292C72.6779 40.2108 72.6406 40.1937 72.6036 40.1778C73.0005 41.7684 72.9683 43.4161 72.4669 44.977C70.9117 49.8186 67.2207 50.2131 64.2 50.4011C61.9851 50.5395 60.9156 50.9286 60.602 52.1871C62.695 52.9364 64.1106 54.7967 63.948 56.8497C63.7852 58.9044 62.0928 60.5203 59.9055 60.9306C60.2662 62.1312 60.7319 63.0842 60.7319 63.0842C60.9179 63.0229 61.249 62.933 61.5269 62.9289C61.8744 62.9248 62.2177 63.2089 62.136 63.4868C62.0542 63.7648 61.4452 63.7341 61.1346 63.6932L61.0966 63.6882C60.8098 63.6507 60.645 63.629 60.3825 63.5154C60.0158 62.6682 59.7363 61.7612 59.5346 60.9879C59.1438 61.0356 58.7396 61.0452 58.3277 61.0128C58.1383 60.9978 57.9519 60.9744 57.769 60.9428C57.8676 61.6898 57.9547 62.6217 57.9295 63.4628C57.9295 63.4628 57.6311 63.5977 57.2142 63.6693C56.6971 63.7571 56.1187 63.7571 56.0697 63.3607C56.0288 63.0418 56.4151 62.9151 56.6378 62.9274C56.7725 62.9342 56.9026 62.9635 57.0273 62.9915C57.1655 63.0227 57.297 63.0523 57.4206 63.048C57.4206 63.048 57.4942 61.971 57.3645 60.8587C54.9545 60.2702 53.2534 58.2597 53.4309 56.0199C53.5872 54.0461 55.155 52.4772 57.2171 51.993C57.0832 51.5286 56.8963 50.7265 56.8883 49.847C54.2558 52.9676 50.7602 55.3363 46.7696 56.5852C47.1531 58.0107 47.4917 59.4335 47.8031 60.7424L47.8032 60.7425L47.8148 60.7913C47.8848 61.0873 47.9534 61.3759 48.0206 61.6558C48.6164 61.5339 49.3675 61.5569 49.9453 61.769H49.9433C52.0548 62.5276 50.9614 63.4349 50.3791 63.4685C48.2695 63.6329 47.5426 63.0902 47.3326 62.8981C47.113 62.6976 47.0207 62.5143 47.0247 62.3523C46.9643 62.1019 46.9026 61.8436 46.8392 61.5784L46.8387 61.5764L46.8373 61.5706L46.8367 61.5682L46.8363 61.5662C46.796 61.3978 46.7551 61.2266 46.7134 61.0528L46.7054 61.0191C46.3961 59.7199 46.0596 58.3066 45.6803 56.8949C43.9513 57.3378 42.1393 57.5732 40.2722 57.5732C38.5021 57.5732 36.7814 57.3616 35.1341 56.9622L36.5551 62.4645C36.6279 62.6572 36.5795 62.8266 36.409 62.9215C36.2287 63.0225 33.7389 63.894 32.1364 63.2859C31.5224 63.0522 31.4887 61.8776 32.6891 61.5032C32.9888 61.4091 34.2676 61.5194 35.1841 61.6873L33.8745 56.6161C30.0285 55.4329 26.6376 53.211 24.0292 50.2777C23.7825 50.3813 23.5374 50.48 23.2966 50.5758C20.9766 51.4969 20.1655 52.2575 20.6108 53.8756C22.5135 54.5278 23.856 56.1031 23.856 57.9445C23.856 59.8606 22.4 61.4907 20.3714 62.0895C20.5053 63.1212 20.6699 63.9344 20.6699 63.9344C20.753 63.9183 20.8376 63.8981 20.9245 63.8772C21.103 63.8345 21.2916 63.7894 21.4977 63.7729C21.7368 63.7525 22.1803 63.8914 22.1987 64.2675C22.2211 64.7355 21.5917 64.7498 21.0112 64.6599C20.5432 64.5863 20.1938 64.4371 20.1938 64.4371C20.0858 63.7089 20.0017 62.9196 19.938 62.1997C19.5275 62.2877 19.0975 62.3345 18.6546 62.3345C18.4104 62.3345 18.1701 62.3203 17.9348 62.2927C17.8505 63.0398 17.7413 63.8265 17.6029 64.5167C17.3467 64.6534 17.1734 64.6843 16.8865 64.7354L16.8181 64.7477C16.4891 64.8049 15.833 64.8662 15.692 64.5515C15.551 64.2367 15.8351 63.9077 16.254 63.8914C16.5831 63.8791 16.9326 63.9752 17.1451 64.0385C17.1451 64.0385 17.3265 63.2186 17.4824 62.2224C15.175 61.7735 13.4533 60.0282 13.4533 57.9445C13.4533 56.0029 14.9483 54.355 17.0192 53.7762C16.4694 52.9115 15.7252 51.3957 16.0944 49.9483C16.3823 48.82 17.4526 48.168 18.4574 47.556C19.4073 46.9773 20.2987 46.4344 20.4149 45.5584C20.4551 45.2577 20.453 44.9613 20.4133 44.6766C20.3042 44.4317 20.1995 44.1844 20.0993 43.9348C19.5268 44.0962 18.8388 44.2234 18.1668 44.178C16.9862 44.0994 16.0976 43.6818 15.4071 43.1455C15.1186 43.5071 14.9744 43.9388 14.9744 44.3832C14.9744 44.5687 15.0064 44.7946 15.0418 45.0444C15.2159 46.273 15.4723 48.083 12.4136 48.5381C8.73286 49.0859 6.41117 46.2655 7.13056 42.0309C7.41407 40.3668 8.15458 38.7513 9.34739 37.408C9.3452 37.396 9.34313 37.3841 9.34118 37.3721C9.32763 37.2837 9.32006 37.195 9.31925 37.109L9.31859 36.9792L9.32769 36.852C9.34668 36.6835 9.38409 36.5216 9.44178 36.3677C9.50656 36.212 9.60973 36.0752 9.74247 35.9693C9.88088 35.8676 10.0634 35.8166 10.2613 35.8278C10.4361 35.8387 10.6142 35.8908 10.78 35.9822C10.7925 35.9402 10.8063 35.8988 10.8217 35.8579C10.8864 35.7022 10.9896 35.5654 11.1224 35.4595C11.2608 35.3578 11.4432 35.3069 11.6411 35.318C11.7033 35.3219 11.7659 35.331 11.8282 35.3452C11.8577 35.2336 11.8949 35.1243 11.9403 35.0178C12.0164 34.8535 12.1278 34.705 12.2651 34.5855C12.4074 34.4698 12.5879 34.402 12.7779 34.3961C12.9539 34.3919 13.1294 34.4335 13.2873 34.5205C13.2422 34.5095 13.1969 34.5017 13.1517 34.4971C13.2688 34.5162 13.3946 34.5611 13.5286 34.6415L13.5241 34.6535C14.8482 34.1898 16.3724 33.9351 18.0952 33.956C18.2726 33.9581 18.4484 33.9633 18.6227 33.9714C19.3356 25.6204 24.7718 18.6172 32.2482 15.6447ZM13.2873 34.5205L13.2947 34.5223L13.2935 34.5239L13.2873 34.5205ZM72.8567 40.0009L72.8542 40.0081L72.8527 40.0067L72.8567 40.0009ZM71.3564 37.2815L71.3699 37.2861L71.3573 37.2829L71.3564 37.2815ZM61.566 40.6577C61.5967 40.529 61.6261 40.3999 61.6544 40.2702C61.9657 40.3723 62.2409 40.5267 62.4771 40.7212C62.1507 40.6929 61.844 40.6726 61.566 40.6577ZM61.187 42.029C61.8161 42.0641 62.5886 42.1157 63.3867 42.2123C63.5609 42.9316 63.4848 43.7446 63.1189 44.4926C62.7126 45.3229 61.6741 45.5707 60.5674 45.8347C60.1824 45.9265 59.7891 46.0203 59.4113 46.1414C59.6182 45.7575 59.814 45.3667 59.9981 44.9694C60.468 44.0281 60.8667 43.0457 61.187 42.029ZM19.4106 42.8041C18.9293 42.3943 18.3094 42.1568 17.615 42.1882C17.244 42.2046 16.9122 42.2627 16.6195 42.3546C17.4447 42.8709 18.4512 42.9679 19.4106 42.8041Z" fill="#D9D9D9"/>
</g>
</svg>
