<svg width="136" height="124" viewBox="0 0 136 124" fill="none" xmlns="http://www.w3.org/2000/svg">
<path d="M85.4317 116.841C85.4317 120.392 70.1927 123.273 51.3958 123.273C32.599 123.273 17.3639 120.392 17.3639 116.841C17.3639 113.291 32.599 110.41 51.3958 110.41C70.1927 110.41 85.4317 113.291 85.4317 116.841Z" fill="black" fill-opacity="0.1"/>
<path d="M16.0284 81.5205C16.1801 82.2315 16.2284 82.977 16.1387 83.7362C16.056 84.4955 15.8078 85.2755 15.3872 85.9795C14.9666 86.6836 14.3736 87.2841 13.7048 87.7258C13.0567 88.1814 12.2914 88.5196 11.4295 88.1469C11.1537 88.0296 11.0227 87.7051 11.1399 87.4221C11.1468 87.4014 11.1537 87.3876 11.1675 87.3738L11.1882 87.3393C11.6226 86.5593 12.1259 86.3523 12.6154 86.0555C13.0843 85.7448 13.4911 85.379 13.8151 84.9373C14.1461 84.4955 14.4012 83.9778 14.6012 83.398C14.7942 82.8182 14.9321 82.1901 15.0631 81.5343C15.1183 81.2583 15.3803 81.0788 15.6492 81.134C15.8492 81.1754 15.994 81.3273 16.0353 81.5136L16.0284 81.5205Z" fill="#95A2AB"/>
<path d="M16.1524 80.4093C16.249 81.1755 16.0766 81.9347 15.7939 82.6112C15.5043 83.2945 15.0906 83.9088 14.5942 84.4541C14.0908 84.9925 13.5048 85.4688 12.8222 85.8139L12.2982 86.0555C12.112 86.1176 11.9189 86.1728 11.7259 86.1935C11.326 86.2211 10.8985 86.1452 10.5262 85.8415C10.2986 85.6551 10.2572 85.3169 10.4434 85.0822L10.5124 84.9994C10.6503 84.8269 10.7744 84.7026 10.8916 84.6129C11.0088 84.4955 11.1191 84.4265 11.2294 84.3575C11.3398 84.2747 11.457 84.2332 11.5742 84.1849L11.9327 84.0262C12.4016 83.7846 12.8635 83.4671 13.2841 83.0943C14.1253 82.3489 14.8424 81.4239 15.194 80.3541L15.2078 80.3057C15.2975 80.0435 15.5733 79.9054 15.8353 79.9951C16.0214 80.0573 16.1455 80.216 16.1662 80.4024L16.1524 80.4093Z" fill="#95A2AB"/>
<path d="M16.3594 80.6926C16.6835 81.4173 16.9179 82.1904 17.0489 83.0118C17.173 83.8332 17.173 84.7167 16.9455 85.5933C16.7248 86.4699 16.2491 87.3258 15.601 87.9678C14.9804 88.6235 14.1944 89.1412 13.2084 88.941C12.9257 88.8789 12.7396 88.6028 12.7947 88.3129C12.8016 88.2784 12.8154 88.2439 12.8292 88.2093L12.843 88.1748C13.2222 87.3051 13.7324 86.9876 14.1875 86.5597C14.6219 86.1248 14.9322 85.6209 15.139 85.0411C15.3458 84.4613 15.4424 83.7987 15.47 83.1015C15.4975 82.4044 15.4493 81.6727 15.4148 80.9204V80.9065C15.401 80.6304 15.6079 80.4027 15.8837 80.3889C16.0905 80.3751 16.2767 80.4993 16.3594 80.6788V80.6926Z" fill="#95A2AB"/>
<path d="M12.305 82.5557C7.31992 82.5557 1.57643 81.1752 0.83178 77.931C0.183655 75.0941 3.38291 72.5264 10.6088 70.076C11.3121 69.8345 12.0774 70.2141 12.3188 70.9251C12.5601 71.636 12.1809 72.4022 11.4707 72.6369C3.2657 75.4186 3.45186 77.3098 3.45875 77.3305C3.77592 78.7248 9.45736 80.3883 14.9388 79.705C15.6835 79.6083 16.3523 80.1398 16.4419 80.8784C16.5316 81.617 16.0076 82.2934 15.2698 82.39C14.3459 82.5074 13.3392 82.5695 12.2981 82.5695L12.305 82.5557Z" fill="#95A2AB"/>
<path d="M14.3256 88.8445C14.0015 88.9618 13.6636 89.0722 13.2913 89.0239C13.112 89.0032 12.8845 88.879 12.8156 88.6581C12.7397 88.451 12.7742 88.244 12.8294 88.0645C13.0362 87.3466 13.5878 86.8013 14.0291 86.3182C14.4703 85.8212 14.8565 85.2759 15.0702 84.6685C15.2908 84.0611 15.3391 83.3915 15.3805 82.7082L15.415 82.8048C15.1943 82.4942 15.0013 82.1698 14.884 81.8109C14.7668 81.4588 14.691 81.0516 14.8496 80.7134C14.7806 81.0792 14.8909 81.4243 15.0564 81.7418C15.2219 82.0525 15.4287 82.3493 15.6563 82.6116L15.6908 82.6461V82.7082C15.739 83.3984 15.739 84.1232 15.5115 84.8203C15.2908 85.5175 14.8496 86.118 14.3738 86.6288C14.1256 86.8911 13.8705 87.1051 13.6636 87.3535C13.4499 87.602 13.2499 87.8643 13.1327 88.1542C13.0086 88.451 13.0293 88.7409 13.3465 88.8307C13.643 88.9273 14.0015 88.879 14.3393 88.8307L14.3256 88.8445Z" fill="#7A848B"/>
<path d="M14.8909 82.6254C14.9116 82.9912 14.9116 83.357 14.8702 83.7298C14.8289 84.1025 14.7048 84.4959 14.4634 84.8203C14.2152 85.1379 13.9118 85.3794 13.5947 85.5796C13.2844 85.7867 12.9534 85.9662 12.6225 86.118C12.0157 86.401 11.4021 86.8497 11.2642 87.4571C11.1952 87.7539 11.3607 88.0369 11.6848 88.1404C12.0019 88.2509 12.3743 88.2026 12.7259 88.1404C12.395 88.2923 12.0295 88.4027 11.6365 88.3475C11.4435 88.3199 11.2366 88.2233 11.0987 88.0438C10.9608 87.8712 10.9056 87.6365 10.9263 87.4226C10.9677 86.9946 11.2021 86.6357 11.471 86.3596C11.7468 86.0835 12.0709 85.8557 12.4156 85.697C13.0362 85.3656 13.6912 85.0343 14.1394 84.565C14.5875 84.0956 14.691 83.3363 14.8909 82.6323V82.6254Z" fill="#7A848B"/>
<path d="M118.826 21.6557C119.306 20.6153 119.787 19.5967 120.202 18.5734C120.304 18.316 120.408 18.0616 120.493 17.8031C120.592 17.5482 120.683 17.2928 120.762 17.0339L120.887 16.6473L120.993 16.2565L121.099 15.8685L121.188 15.4793C121.426 14.4405 121.557 13.3913 121.591 12.3378C121.602 12.0739 121.605 11.8094 121.604 11.5447C121.612 11.2806 121.637 11.015 121.651 10.7459C121.67 10.4771 121.72 10.2052 121.757 9.92947C121.799 9.65147 121.861 9.37215 121.971 9.07721L121.991 9.0214C122.129 8.65475 122.541 8.47165 122.914 8.60766C123.065 8.66222 123.188 8.76386 123.268 8.88965C123.623 9.43634 123.821 10.0264 123.933 10.6293C123.998 10.9286 124.014 11.2354 124.028 11.542C124.031 11.695 124.034 11.848 124.031 12.0006L123.998 12.4594C123.921 13.6844 123.675 14.9027 123.287 16.0589C123.191 16.3494 123.09 16.6368 122.967 16.9145L122.79 17.3355L122.594 17.7443C122.341 18.2936 122.045 18.818 121.726 19.3244C121.098 20.3405 120.373 21.2761 119.585 22.1388C119.416 22.3231 119.127 22.3377 118.936 22.1712C118.785 22.0375 118.745 21.8245 118.824 21.6501L118.826 21.6557Z" fill="#95A2AB"/>
<path d="M120.245 18.1348C120.245 18.1348 117.536 20.7064 118.139 22.9218C118.838 25.4933 122.091 24.5408 123.768 23.8621C127.274 24.1148 129.886 19.899 126.125 19.3634C128.313 16.1295 124.51 14.1037 120.244 18.1403L120.245 18.1348Z" fill="#95A2AB"/>
<path d="M123.85 17.06C123.432 17.5484 123.043 18.0579 122.751 18.6125C122.456 19.1616 122.23 19.7592 122.224 20.3508C122.219 20.6424 122.279 20.9332 122.427 21.1485C122.575 21.3639 122.808 21.4789 123.076 21.4873C123.345 21.493 123.629 21.3989 123.891 21.2622C124.156 21.1258 124.408 20.9475 124.641 20.746C125.106 20.3402 125.52 19.8625 125.892 19.3573C126.258 18.8625 126.54 18.2961 126.569 17.698C126.585 17.4017 126.534 17.1034 126.398 16.8371C126.262 16.5762 126.048 16.3453 125.782 16.1951C125.241 15.8806 124.557 15.8695 123.929 15.9989C124.537 15.7971 125.245 15.7499 125.865 16.0428C126.171 16.1849 126.442 16.4228 126.617 16.7219C126.793 17.021 126.873 17.3652 126.874 17.7063C126.871 18.3937 126.578 19.0329 126.212 19.5768C125.846 20.1152 125.439 20.6371 124.936 21.0783C124.685 21.2976 124.412 21.5017 124.104 21.6623C123.793 21.8172 123.446 21.9369 123.061 21.9255C122.871 21.9172 122.674 21.8731 122.498 21.7758C122.322 21.6812 122.177 21.5371 122.075 21.3769C121.868 21.051 121.823 20.6794 121.839 20.3395C121.891 19.6502 122.18 19.0352 122.541 18.491C122.912 17.9529 123.355 17.4718 123.853 17.0602L123.85 17.06Z" fill="#828E94"/>
<path d="M123.115 21.6021C122.923 21.9921 122.8 22.428 122.894 22.814C122.983 23.197 123.31 23.477 123.713 23.5742C124.113 23.6795 124.56 23.6407 124.976 23.5261C125.392 23.406 125.794 23.2221 126.171 22.9901C126.54 22.7574 126.9 22.4587 127.203 22.1449C127.497 21.8277 127.735 21.452 127.767 21.0531C127.809 20.6578 127.604 20.272 127.282 20.0059C126.96 19.7372 126.536 19.5757 126.117 19.5427L126.144 19.1736C126.648 19.2181 127.131 19.4057 127.521 19.7285C127.715 19.8898 127.883 20.0902 127.997 20.3221C128.11 20.5568 128.163 20.8225 128.142 21.0802C128.101 21.6039 127.809 22.0439 127.487 22.3945C127.321 22.5736 127.141 22.7244 126.972 22.8868C126.799 23.0462 126.608 23.1962 126.412 23.3349C126.018 23.6066 125.578 23.8341 125.095 23.9494C124.618 24.0651 124.102 24.1016 123.605 23.9567C123.358 23.8843 123.117 23.7605 122.923 23.5746C122.728 23.3914 122.593 23.1443 122.54 22.8867C122.433 22.3606 122.635 21.8758 122.861 21.4637L123.121 21.5997L123.115 21.6021Z" fill="#828E94"/>
<path d="M120.056 24.5285C121.564 24.9973 122.726 23.0701 121.78 21.9979C126.16 20.0651 124.664 15.9682 119.646 18.8973" fill="#95A2AB"/>
<path d="M120.056 24.5281C120.23 24.5406 120.396 24.5444 120.556 24.5177C120.713 24.4854 120.864 24.4363 120.999 24.3642C121.27 24.2227 121.491 24.0013 121.646 23.7477C121.803 23.4943 121.89 23.2032 121.897 22.9172C121.901 22.631 121.816 22.3493 121.638 22.1182L121.483 21.9188L121.707 21.823C122.428 21.5148 123.112 21.0975 123.625 20.5233C123.876 20.2358 124.086 19.9071 124.183 19.5512C124.284 19.1983 124.251 18.8085 124.033 18.5172C123.819 18.2234 123.454 18.0525 123.073 17.9923C122.689 17.9292 122.287 17.9603 121.896 18.0331C121.111 18.1894 120.364 18.5148 119.655 18.8948C120.337 18.4692 121.068 18.1016 121.867 17.9054C122.265 17.8113 122.682 17.7568 123.1 17.806C123.513 17.8521 123.952 18.0202 124.229 18.3731C124.512 18.7236 124.563 19.2075 124.461 19.6176C124.362 20.0361 124.141 20.4077 123.874 20.7268C123.331 21.3671 122.614 21.8229 121.868 22.1675L121.933 21.8721C122.202 22.1452 122.36 22.5358 122.354 22.9202C122.357 23.3051 122.222 23.6746 122.006 23.9783C121.787 24.2818 121.473 24.5211 121.113 24.6289C120.756 24.7396 120.363 24.6894 120.061 24.5285L120.056 24.5281Z" fill="#828E94"/>
<path d="M122.423 20.1984C122.423 20.1984 121.128 21.614 122.123 22.0185C122.032 22.2767 121.344 21.8533 121.444 21.9696C120.293 21.3847 122.423 20.1984 122.423 20.1984Z" fill="#828E94"/>
<path d="M32.7146 114.563C32.6319 114.563 32.556 114.556 32.4733 114.542C31.7631 114.411 31.2943 113.72 31.4253 113.01L35.6243 90.6387C35.7553 89.9277 36.4448 89.4515 37.155 89.5895C37.8651 89.7207 38.334 90.4109 38.203 91.1219L34.004 113.493C33.8868 114.121 33.3352 114.563 32.7146 114.563Z" fill="#95A2AB"/>
<path d="M70.679 113.534C70.6376 113.534 70.5893 113.534 70.548 113.534C69.8309 113.465 69.3 112.817 69.3758 112.099L71.5063 90.7564C71.5753 90.0316 72.2165 89.507 72.9405 89.576C73.6576 89.6451 74.1885 90.2939 74.1126 91.0118L71.9821 112.354C71.9131 113.031 71.3478 113.541 70.679 113.541V113.534Z" fill="#95A2AB"/>
<path d="M34.2589 111.706C34.2589 111.706 29.7634 111.43 25.9918 112.99C22.896 114.274 20.8275 117.104 22.896 117.877C32.4869 119.892 35.2931 115.047 34.2589 111.706Z" fill="#95A2AB"/>
<path d="M119.303 22.6382C118.8 22.5479 118.279 22.8034 118.022 23.3006C114.896 29.452 108.81 38.357 104.456 43.1561C104 43.6627 104.012 44.4539 104.49 44.9277C104.968 45.3952 105.727 45.3698 106.189 44.8642C110.667 39.9257 116.929 30.7676 120.141 24.4442C120.456 23.8282 120.232 23.0766 119.647 22.7581C119.534 22.699 119.417 22.6587 119.303 22.6382Z" fill="#95A2AB"/>
<path d="M69.8999 111.188C69.8999 111.188 72.4924 111.423 76.2571 112.99C79.3529 114.273 80.3182 117.821 78.0636 118.132C68.3141 120.127 68.652 112.099 69.893 111.188H69.8999Z" fill="#95A2AB"/>
<path d="M20.9999 60.116C22.7168 71.9677 13.567 81.9351 21.5102 89.6522C32.6526 100.475 48.4976 106.156 65.0389 103.692C93.3502 99.4746 98.7421 74.6805 94.6257 46.2072C90.5025 17.734 70.6929 14.6623 51.7727 19.1559C36.114 22.8695 16.8836 31.6496 20.9999 60.1229V60.116Z" fill="#8C45B5"/>
<path d="M57.0406 51.8538L64.5494 103.748C64.7149 103.727 64.8735 103.713 65.039 103.685C81.339 101.256 94.743 91.4333 102.41 78.1044L57.0406 51.8469V51.8538Z" fill="#F253AE"/>
<path d="M102.286 78.3248C108.016 68.461 110.609 56.6575 108.85 44.4882C108.257 40.3812 107.189 36.4674 105.734 32.7745L57.0406 51.8464L102.286 78.3248Z" fill="#F22732"/>
<path d="M57.0406 51.8537L105.858 33.1131C100.052 18.0861 87.648 6.77966 72.6442 2.21704L57.0406 51.8537Z" fill="#FF9300"/>
<path d="M57.0269 51.8741L72.8856 2.28586C65.7423 0.0770228 58.006 -0.606335 50.118 0.567107C42.0438 1.76816 34.6799 4.7915 28.3708 9.14704L57.02 51.8741H57.0269Z" fill="#F7DC41"/>
<path d="M5.91345 48.333L57.0406 51.8671L28.5018 9.05029C15.6149 17.8925 7.1063 32.3121 5.91345 48.333Z" fill="#20C768"/>
<path d="M5.94095 47.9879C5.63067 51.8465 5.7272 55.7879 6.30639 59.7707C8.04395 71.8019 13.7462 82.2455 21.8824 89.9902L57.0405 51.8534L5.94784 47.9879H5.94095Z" fill="#1675CD"/>
<path d="M39.6855 36.0882C46.1599 56.3262 74.1948 53.3374 78.249 35.819C75.691 54.8697 44.6085 58.0863 39.6855 36.0882Z" fill="#2E2F30"/>
<path d="M35.9002 38.0622C35.9002 38.0622 35.8864 37.9034 35.9277 37.6204C35.976 37.3443 36.0863 36.944 36.3897 36.523C36.5483 36.3228 36.7344 36.1019 36.9896 35.9362C39.2856 34.2728 42.6089 36.4194 44.1258 38.221C41.7126 37.3029 37.6997 34.8871 35.9071 38.0553L35.9002 38.0622Z" fill="#2E2F30"/>
<path d="M23.3511 114.819C23.8061 114.025 24.6542 113.59 25.4127 113.148C26.1987 112.721 27.0261 112.389 27.8673 112.099C28.7153 111.823 29.5772 111.595 30.4667 111.485C30.9148 111.437 31.363 111.402 31.8112 111.43C32.0387 111.457 32.2662 111.485 32.48 111.561C32.6937 111.63 32.9213 111.74 33.0316 111.941C32.6868 111.651 32.2249 111.678 31.8043 111.706C31.3768 111.733 30.9493 111.809 30.5287 111.913C29.6875 112.113 28.8532 112.348 28.0327 112.631C27.2053 112.9 26.3917 113.211 25.5919 113.535C25.192 113.701 24.7921 113.88 24.4129 114.08C24.0268 114.274 23.6407 114.488 23.3511 114.819Z" fill="#7A848B"/>
<path d="M69.9343 112.189C70.2722 111.83 70.7755 111.665 71.2582 111.582C71.7546 111.52 72.251 111.54 72.7406 111.596C73.7197 111.72 74.6574 112.037 75.5537 112.438C76.4363 112.859 77.2912 113.363 78.0152 114.046C78.3737 114.384 78.7116 114.757 78.9667 115.185C79.208 115.613 79.3735 116.13 79.277 116.614C79.2425 116.13 79.0426 115.696 78.7392 115.337C78.4565 114.971 78.1048 114.653 77.7394 114.37C76.9948 113.804 76.1743 113.335 75.3193 112.942C74.4643 112.548 73.5749 112.231 72.6647 112.017C72.2097 111.913 71.7408 111.844 71.2788 111.851C70.81 111.837 70.348 111.934 69.9343 112.189Z" fill="#7A848B"/>
<path d="M67.335 20.6256L55.3582 8.46326L45.1465 22.7516C32.6526 28.5153 24.5026 41.6165 25.7644 56.0567C27.3779 74.4866 43.6848 88.1262 62.1981 86.5179C80.7183 84.9096 94.412 68.6747 92.7985 50.2447C91.5161 35.5836 80.9252 23.9527 67.335 20.6256Z" fill="white"/>
<path d="M55.1098 19.3691C55.5028 20.0041 54.6409 21.2673 53.1792 22.1784C51.7105 23.0964 50.2075 23.3242 49.8075 22.6892C49.4076 22.0473 50.2764 20.791 51.745 19.873C53.2136 18.955 54.7167 18.7341 55.1167 19.376L55.1098 19.3691Z" fill="#2E2F30"/>
<path d="M65.4389 18.4235C65.1976 19.1344 66.3283 20.1629 67.9624 20.722C69.5965 21.2742 71.1203 21.1499 71.3616 20.4321C71.603 19.7211 70.4653 18.6927 68.8381 18.1405C67.204 17.5883 65.6733 17.7125 65.4389 18.4235Z" fill="#2E2F30"/>
<path d="M39.0099 37.2535C39.6305 38.351 40.3062 39.414 41.0715 40.4148C42.4781 42.244 44.0984 43.8867 45.9187 45.2465C49.5592 47.9799 54.0271 49.4846 58.5433 49.6089C60.8048 49.6986 63.0802 49.4501 65.2797 48.9048C67.486 48.3802 69.6097 47.5105 71.5747 46.3785C73.526 45.2258 75.3187 43.7625 76.7184 41.961C77.3251 41.181 77.9457 40.1594 77.9802 40.0007C78.0767 40.1249 77.7595 41.3052 77.2907 42.3682C75.9599 44.363 74.1672 46.0334 72.1608 47.3311C68.1342 49.9471 63.2939 51.1895 58.495 51.0515C56.0956 50.9549 53.7031 50.52 51.4484 49.6917C49.2007 48.8565 47.0701 47.6624 45.2292 46.1369C43.3744 44.6253 41.8024 42.8031 40.4992 40.8221C39.7959 39.6762 39.1685 38.4959 38.6307 37.2742C38.4721 36.9222 38.8238 36.9222 39.0099 37.2604V37.2535Z" fill="#2E2F30"/>
<path d="M36.1553 39.0965C36.1553 39.0965 36.1415 38.9585 36.1691 38.71C36.2105 38.4615 36.3001 38.1095 36.5414 37.7298C36.6724 37.5504 36.8241 37.3502 37.0448 37.1914C38.996 35.6384 41.9126 37.3847 43.2709 38.9309C41.1403 38.1992 37.6308 36.2389 36.1553 39.0896V39.0965Z" fill="#2E2F30"/>
<path d="M77.6079 40.8572C77.6079 40.8572 72.8366 64.7949 64.8798 68.0045C59.3639 70.4411 48.4009 70.4135 39.3547 38.0824C39.3547 38.0824 45.6981 52.3015 63.294 49.7544C75.3119 47.8425 77.6079 40.8641 77.6079 40.8641V40.8572Z" fill="#2E2F30"/>
<path d="M65.8866 67.4526V67.494C65.5694 67.6735 65.2384 67.846 64.8799 68.0048C61.4876 69.5026 55.1167 70.2619 48.9871 60.6882C50.6418 58.017 51.7313 56.6779 54.9029 56.526C60.4878 56.2499 65.4108 61.1438 65.8866 67.4457V67.4526Z" fill="#EC696B"/>
<path d="M72.913 40.2845C73.0302 41.6236 72.0442 42.8108 70.6997 42.9282C69.3621 43.0455 68.1761 42.0585 68.0589 40.7125C68.2106 36.7229 67.7486 33.2993 67.1074 30.0275C66.9902 28.6815 67.9762 27.5012 69.3138 27.3839C70.6583 27.2665 71.8373 28.2536 71.9546 29.5926C72.5682 32.9748 73.0578 36.4261 72.9061 40.2776L72.913 40.2845Z" fill="#343637"/>
<path d="M56.7232 41.4018C56.8336 42.7616 55.8269 43.9488 54.4686 44.0662C53.1172 44.1766 51.9244 43.1688 51.814 41.816C51.7451 38.413 51.3934 34.7685 50.9177 31.0067C50.8074 29.6469 51.814 28.4597 53.1654 28.3493C54.5237 28.2388 55.7166 29.2397 55.8269 30.5995C56.6474 33.961 57.0335 37.5226 56.7301 41.4087L56.7232 41.4018Z" fill="#343637"/>
</svg>
