<svg xmlns="http://www.w3.org/2000/svg" viewBox="0 0 307.92 62.04"><path d="M52.32 39c0-12.59 10.75-22.94 23.9-22.94S100.28 26.44 100.28 39c0 12.75-10.91 23-24.06 23s-23.9-10.22-23.9-23zm11.79 0c0 7.29 5.21 12.59 12.11 12.59S88.33 46.16 88.33 39a12.11 12.11 0 10-24.22 0zm39.95 0c0-12.59 10.75-22.94 23.9-22.94S152 26.44 152 39c0 12.75-10.9 23-24.06 23s-23.88-10.22-23.88-23zm11.79 0c0 7.29 5.22 12.59 12.11 12.59s12.11-5.43 12.11-12.59a12.11 12.11 0 10-24.22 0zm92.36 0c0-12.59 10.75-22.94 23.9-22.94S256.17 26.44 256.17 39c0 12.75-10.91 23-24.06 23s-23.9-10.22-23.9-23zM220 39c0 7.29 5.21 12.59 12.11 12.59s12.11-5.43 12.11-12.59A12.11 12.11 0 10220 39zm40 0c0-12.59 10.74-22.94 23.9-22.94S307.92 26.44 307.92 39c0 12.75-10.91 23-24.06 23S260 51.78 260 39zm11.79 0c0 7.29 5.21 12.59 12.11 12.59S296 46.16 296 39a12.11 12.11 0 10-24.22 0zM30.27 42.82L12.65 0H0l25.1 61.01h10.38L60.79 0H48.04L30.27 42.82zM192 1.85v17.48a24.59 24.59 0 00-12.23-3.24c-13.16 0-23.9 10.35-23.9 22.94 0 12.75 10.74 23 23.9 23A24.68 24.68 0 00192 58.81V61h11.87V1.85zm-12.2 49.77c-6.9 0-12.11-5.3-12.11-12.59a12.11 12.11 0 1124.22 0c.03 7.13-5.27 12.59-12.08 12.59z"/></svg>