<?xml version="1.0" encoding="utf-8"?>
<!-- Generator: Adobe Illustrator 16.0.0, SVG Export Plug-In . SVG Version: 6.00 Build 0)  -->
<!DOCTYPE svg PUBLIC "-//W3C//DTD SVG 1.1//EN" "http://www.w3.org/Graphics/SVG/1.1/DTD/svg11.dtd">
<svg version="1.1" id="Layer_3" xmlns="http://www.w3.org/2000/svg" xmlns:xlink="http://www.w3.org/1999/xlink" x="0px" y="0px"
	 width="563px" height="563px" viewBox="-237.274 -242.274 563 563" enable-background="new -237.274 -242.274 563 563"
	 xml:space="preserve">
<path fill="#61392E" d="M325.727,39.226c0,155.468-126.034,281.5-281.498,281.5c-155.47,0-281.502-126.032-281.502-281.5
	c0-155.467,126.032-281.499,281.502-281.499C199.692-242.273,325.727-116.242,325.727,39.226z"/>
<path fill="#FF6000" d="M306.729,39.226c0,144.966-117.538,262.504-262.501,262.504c-144.972,0-262.501-117.538-262.501-262.504
	c0-144.968,117.529-262.497,262.501-262.497C189.191-223.271,306.729-105.742,306.729,39.226z"/>
<rect x="30.166" y="-227.438" fill="#61392E" width="28.125" height="534.472"/>
<rect x="-223.579" y="27.299" fill="#61392E" width="534.475" height="24.999"/>
<path fill="#61392E" d="M-138.266-160.202l14.852-9.327c0,0,66.146,85.1,66.146,209.373c0,109.215-66.146,209.898-66.146,209.898
	l-14.852-9.946c0,0,60.932-90.384,60.932-200.444C-77.334-84.429-138.266-160.202-138.266-160.202z"/>
<path fill="#61392E" d="M225.581-161.083l-15.039-9.327c0,0-66.984,85.1-66.984,209.375c0,109.214,66.984,209.897,66.984,209.897
	l15.039-9.944c0,0-61.704-90.39-61.704-200.449C163.877-85.31,225.581-161.083,225.581-161.083z"/>
</svg>
