<?xml version="1.0" encoding="utf-8"?>
<!-- Generator: Adobe Illustrator 23.0.4, SVG Export Plug-In . SVG Version: 6.00 Build 0)  -->
<svg version="1.1" id="Layer_1" xmlns="http://www.w3.org/2000/svg" xmlns:xlink="http://www.w3.org/1999/xlink" x="0px" y="0px"
	 width="563px" height="563px" viewBox="0 0 563 563" style="enable-background:new 0 0 563 563;" xml:space="preserve">
<style type="text/css">
	.st0{opacity:0.5;fill-rule:evenodd;clip-rule:evenodd;fill:#998D9D;enable-background:new    ;}
	.st1{fill-rule:evenodd;clip-rule:evenodd;fill:#DEBC8A;}
	.st2{fill-rule:evenodd;clip-rule:evenodd;fill:#613B13;}
	.st3{fill-rule:evenodd;clip-rule:evenodd;fill:url(#SVGID_1_);}
	.st4{fill-rule:evenodd;clip-rule:evenodd;fill:#DBB885;}
	.st5{fill-rule:evenodd;clip-rule:evenodd;fill:url(#SVGID_2_);}
	.st6{fill-rule:evenodd;clip-rule:evenodd;fill:#90663C;}
	.st7{fill-rule:evenodd;clip-rule:evenodd;fill:#C5975A;}
	.st8{fill-rule:evenodd;clip-rule:evenodd;fill:#EBEBEB;}
	.st9{fill-rule:evenodd;clip-rule:evenodd;fill:#FFFFFF;}
	.st10{opacity:0.45;fill-rule:evenodd;clip-rule:evenodd;fill:#512F15;enable-background:new    ;}
	.st11{fill-rule:evenodd;clip-rule:evenodd;fill:#EACEA7;}
	.st12{fill-rule:evenodd;clip-rule:evenodd;fill:#D5AA70;}
	.st13{fill:#EACEA7;}
	.st14{opacity:0.25;fill-rule:evenodd;clip-rule:evenodd;fill:#512F15;enable-background:new    ;}
	.st15{fill-rule:evenodd;clip-rule:evenodd;fill:#3E2119;}
	.st16{fill-rule:evenodd;clip-rule:evenodd;fill:#61392F;}
	.st17{fill-rule:evenodd;clip-rule:evenodd;fill:#FF6000;}
	.st18{fill-rule:evenodd;clip-rule:evenodd;fill:#F5E1BB;}
	.st19{fill:#FBE7BC;}
	.st20{fill:#90683E;}
	.st21{opacity:0.75;fill:#9D7956;enable-background:new    ;}
	.st22{fill-rule:evenodd;clip-rule:evenodd;fill:#FBE7BC;}
</style>
<g>
	<path class="st0" d="M12.5,339.9l271.8-162.7c5.6-3.3,15.5-2.6,22.3,1.6l249.1,151.9c6.6,4.1,7.4,10,1.9,13.2L294.1,502.6
		c-5.3,3.1-15,2.5-21.6-1.4L15.1,352.8C8.3,348.9,7.1,343.1,12.5,339.9z"/>
	<path class="st1" d="M27.7,339.2L272.9,482c0,0,10.7,5.5,21.6-0.5s230.1-139.4,230.1-139.4s9.6-7.1,9.6-15.3s0-85.8,0-85.8
		s0.3-15.3-20-26.8s-108.4-65.3-108.4-65.3v-26.3L301,59.4c0,0-19.2-9.8-44.7,4.2S32.9,189.4,32.9,189.4s-21.1,9-20,42.1
		c1,33.2,4.7,88.9,4.7,88.9S17.4,331.2,27.7,339.2z"/>
	<path class="st2" d="M283.5,495.1c-8.3,0-14.4-2.9-15.5-3.5c-0.2-0.1-0.3-0.2-0.5-0.3L22.3,348.5c-0.4-0.2-0.8-0.5-1.2-0.8
		C8,337.6,6.8,324.2,6.7,320.9c-0.3-4.3-3.7-57.2-4.7-89c-1.2-36.7,21.2-49.8,25.8-52.1C36.5,174.9,226.2,67.6,251.1,54
		c10.7-5.9,21.8-8.8,32.8-8.8c12.8,0,21.1,4.1,22,4.5c0.2,0.1,0.4,0.2,0.7,0.4l104.8,63.2c3.3,2,5.2,5.5,5.2,9.3v20.2
		c19.2,11.7,85.8,52.3,102.9,61.9c24.6,13.9,25.5,33.3,25.5,36.2v85.8c0,13.1-11.7,22.3-14,24.1c-0.3,0.2-0.5,0.4-0.8,0.5
		c-9,5.4-219.5,133.5-230.5,139.6C294.7,493.7,289.2,495.1,283.5,495.1L283.5,495.1z"/>
	<path class="st1" d="M27.7,339.2L272.9,482c0,0,10.7,5.5,21.6-0.5s230.1-139.4,230.1-139.4s9.6-7.1,9.6-15.3s0-85.8,0-85.8
		s0.3-15.3-20-26.8s-108.4-65.3-108.4-65.3v-26.3L301,59.4c0,0-19.2-9.8-44.7,4.2S32.9,189.4,32.9,189.4s-21.1,9-20,42.1
		c1,33.2,4.7,88.9,4.7,88.9S17.4,331.2,27.7,339.2z"/>
	
		<linearGradient id="SVGID_1_" gradientUnits="userSpaceOnUse" x1="40.0469" y1="401.0288" x2="389.3453" y2="401.0288" gradientTransform="matrix(1 0 0 -1 0 563)">
		<stop  offset="6.503534e-02" style="stop-color:#DCB987"/>
		<stop  offset="0.2502" style="stop-color:#D9B481"/>
		<stop  offset="0.9511" style="stop-color:#CFA66E"/>
	</linearGradient>
	<path class="st3" d="M42.8,192.6l232.7-129c4.6-2.7,12.8-2.2,18.3,1.3l91,53.1c5.4,3.4,6.1,8.2,1.5,10.9L161.2,260.4
		c-4.4,2.6-12.3,2.1-17.8-1.1l-98.5-56C39.4,200,38.4,195.3,42.8,192.6z"/>
	<path class="st4" d="M172.8,291.9l223.5-133.8c4.6-2.7,12.8-2.2,18.3,1.3l98.7,61.3c5.4,3.4,6.1,8.2,1.5,10.9L292.3,362
		c-4.4,2.6-12.3,2.1-17.8-1.1L175,302.5C169.4,299.3,168.4,294.5,172.8,291.9z"/>
	
		<linearGradient id="SVGID_2_" gradientUnits="userSpaceOnUse" x1="196.8902" y1="282.8938" x2="550.4268" y2="331.0322" gradientTransform="matrix(1 0 0 -1 0 563)">
		<stop  offset="6.503534e-02" style="stop-color:#DCB987"/>
		<stop  offset="0.2502" style="stop-color:#D9B481"/>
		<stop  offset="0.9511" style="stop-color:#CFA66E"/>
	</linearGradient>
	<path class="st5" d="M172.8,291.9l223.5-133.8c4.6-2.7,12.8-2.2,18.3,1.3l98.7,61.3c5.4,3.4,6.1,8.2,1.5,10.9L292.3,362
		c-4.4,2.6-12.3,2.1-17.8-1.1L175,302.5C169.4,299.3,168.4,294.5,172.8,291.9z"/>
	<path class="st6" d="M155,274.4L405.9,123v25l-252,150.6L155,274.4z"/>
	<path class="st7" d="M294,367.8l228.3-131.6c4.7-2.9,8.5-0.7,8.4,4.8l-0.9,82.2c-0.1,5.5-3.9,12.3-8.7,15.2L293,477.3
		c-4.7,2.9-8.5,0.7-8.4-4.8l0.8-89.4C285.4,377.5,289.3,370.7,294,367.8z"/>
	<path class="st8" d="M237.2,313.4l76.7-44.5c5.6-3.2,15.5-2.9,22.1,0.8l35.3,22.4c6.6,3.6,7.5,9.2,1.9,12.4l-74.3,42.7
		c-5.6,3.2-15.5,2.9-22.1-0.8l-37.7-20.7C232.4,322.1,231.6,316.6,237.2,313.4z"/>
	<path class="st9" d="M237.2,310.1l76.7-44.5c5.6-3.2,15.5-2.9,22.1,0.8l35.3,22.4c6.6,3.6,7.5,9.2,1.9,12.4l-74.3,42.7
		c-5.6,3.2-15.5,2.9-22.1-0.8l-37.7-20.7C232.4,318.9,231.6,313.3,237.2,310.1z"/>
	<ellipse class="st10" cx="292.6" cy="199.4" rx="89.3" ry="61.2"/>
	<path class="st11" d="M268.7,479.4L32.9,342c-4.5-2.4-8.1-8.8-8-14.2l-5-97.4c0.1-5.4,3.9-7.8,8.4-5.4l242.5,142.9
		c4.5,2.4,8.1,8.8,8,14.2l-1.7,91.8C277,479.4,273.2,481.8,268.7,479.4z"/>
	<path class="st12" d="M63.9,268l196.5,109.7c2,1.1,3.7,3,3.7,4.3l-1.6,59.1c0,1.2-1.6,1.3-3.7,0.2L65,328.1c-2-1.1-3.7-3-3.7-4.3
		l-1.3-54C60,268.5,61.9,266.9,63.9,268z"/>
	<path class="st13" d="M19.1,218.4c0,0-0.9,13.4,0.6,14.8c1.5,1.4,133.7,67.5,133.7,67.5l1.1-26L26.6,201.1"/>
	<polygon class="st14" points="154.5,274.7 153.8,298.6 447,174 405.9,148 405.9,123.1 	"/>
	<g>
		
			<ellipse transform="matrix(4.955867e-02 -0.9988 0.9988 4.955867e-02 64.9818 468.6633)" class="st15" cx="278.7" cy="200.2" rx="56.7" ry="89.3"/>
		
			<rect x="272.6" y="102.8" transform="matrix(4.955863e-02 -0.9988 0.9988 4.955863e-02 73.4362 461.4723)" class="st15" width="13.1" height="178.7"/>
		<g>
			
				<ellipse transform="matrix(4.955867e-02 -0.9988 0.9988 4.955867e-02 80.2337 455.5266)" class="st16" cx="279.5" cy="185.6" rx="56.7" ry="89.3"/>
			
				<ellipse transform="matrix(4.955858e-02 -0.9988 0.9988 4.955858e-02 80.5036 455.8399)" class="st17" cx="279.8" cy="185.6" rx="49.9" ry="78.7"/>
			<path class="st16" d="M358.9,192.6c0.2-1.5,0.2-2.8,0.2-4.3c-17.3-2.1-35.4-7.5-48.9-16l31.6-17.9l-4.9-3.4l-31.6,17.9
				c-12.9-9.7-20.4-21.5-21.7-33.1c-2.4-0.1-4.1-0.3-6.5-0.3c1.4,12.7,8.7,25.9,22.9,36.4l-20.3,11.5l-53.7-37.9l-5.3,2.9l53.7,37.9
				l-21.8,12.3c-14.6-9.7-33.2-15.8-52.4-18c-0.2,1.5-0.2,3-0.1,4.6c17.3,2.2,34,7.7,47.2,16.5l-30.2,17.1l4.9,3.4l30.1-17
				c11.8,9,18.4,19.6,20.1,30.4c2.4,0.2,4.8,0.3,7.2,0.4c-1.7-11.9-9-23.8-22.1-33.7l21.8-12.3l53.7,37.9l5.3-2.9l-53.7-37.9
				l20.4-11.5C319.8,184.6,339.7,190.4,358.9,192.6z"/>
		</g>
	</g>
	<polygon class="st1" points="262.8,442.7 61.3,324.6 44,335.4 261.8,461.1 	"/>
	<path class="st18" d="M52.2,333.2L259,452.7c2.1,1.2,2.2,3.2,0.3,4.3c-2,1.2-5.3,1.1-7.4-0.1L45,337.5c-2.1-1.2-2.2-3.2-0.3-4.3
		C46.8,332,50.1,332,52.2,333.2z"/>
	<path class="st18" d="M166.5,298.7l109.6,63.7c2.2,1.2,2.2,3.1,0.2,4.2c-2.1,1.1-5.5,1-7.6-0.3l-109.6-63.7
		c-2.2-1.2-2.2-3.1-0.2-4.2C160.9,297.4,164.3,297.5,166.5,298.7z"/>
	<path class="st19" d="M309.7,64.8c0,0-19.2-9.8-44.7,4.2S41.6,194.9,41.6,194.9s-21.1,9-20,42.1c1,33.2,4.7,88.9,4.7,88.9
		s-0.2,9.7,8.6,17.5l-7.2-4.2c-10.3-7.9-10.1-18.7-10.1-18.7s-3.6-55.8-4.7-88.9c-1-33.2,20-42.1,20-42.1s197.8-112,223.4-126
		c25.5-14,44.7-4.2,44.7-4.2L309.7,64.8z"/>
	<path class="st20" d="M64.6,322.4l-1-54.2c0,0-4.4-2.4-4.4-1.1l1.1,57.5c0,1.2,1.6,3.1,3.7,4.3L257.8,442c2,1.1,3.7,1.1,3.7-0.2
		l0.1-2.3L68.2,326.6C66.2,325.5,64.6,323.6,64.6,322.4z"/>
	<path class="st21" d="M52.7,262l-0.5-16.2L152.6,300c0.3,0.1,0.5,0.2,0.8,0.2c0.6,0,1.1-0.3,1.4-0.9c0.4-0.8,0.1-1.8-0.7-2.2
		L38.5,234.5l5.2,99.4l18.6-9.8l9.8-21.2l155.8,55.7L52.7,262z"/>
	<path class="st22" d="M35.5,201.2l120,65.4c2.1,1.2,2.2,3.1,0.3,4.3c-2,1.2-5.3,1.3-7.4,0.1l-120-65.4c-2.1-1.2-2.2-3.1-0.3-4.3
		C30,200.1,33.4,200,35.5,201.2z"/>
</g>
</svg>
