<?xml version="1.0" encoding="utf-8"?>
<!-- Generator: Adobe Illustrator 23.0.4, SVG Export Plug-In . SVG Version: 6.00 Build 0)  -->
<svg version="1.1" id="Layer_1" xmlns="http://www.w3.org/2000/svg" xmlns:xlink="http://www.w3.org/1999/xlink" x="0px" y="0px"
	 width="600px" height="600px" viewBox="0 0 600 600" style="enable-background:new 0 0 600 600;" xml:space="preserve">
<style type="text/css">
	.st0{opacity:0.5;fill-rule:evenodd;clip-rule:evenodd;fill:#998D9D;enable-background:new    ;}
	.st1{fill:#613B13;}
	.st2{clip-path:url(#SVGID_2_);fill-rule:evenodd;clip-rule:evenodd;fill:#FF6000;}
	.st3{clip-path:url(#SVGID_2_);fill-rule:evenodd;clip-rule:evenodd;fill:#61392E;}
	.st4{clip-path:url(#SVGID_2_);fill-rule:evenodd;clip-rule:evenodd;fill:#E5C89B;}
	.st5{opacity:0.2;clip-path:url(#SVGID_2_);fill-rule:evenodd;clip-rule:evenodd;fill:#61392E;}
	.st6{opacity:0.25;clip-path:url(#SVGID_2_);}
	.st7{fill:#F1E5C8;}
	.st8{opacity:0.5;clip-path:url(#SVGID_2_);fill:#F5E1BB;}
	.st9{opacity:0.4;clip-path:url(#SVGID_2_);fill-rule:evenodd;clip-rule:evenodd;fill:#564D66;}
	.st10{fill-rule:evenodd;clip-rule:evenodd;fill:#9D7641;}
	.st11{fill-rule:evenodd;clip-rule:evenodd;fill:#DEBC8A;}
	.st12{fill:#F5E1BB;}
	.st13{fill-rule:evenodd;clip-rule:evenodd;fill:#F1E5C8;}
	.st14{fill-rule:evenodd;clip-rule:evenodd;fill:url(#SVGID_3_);}
	.st15{opacity:0.5;}
	.st16{fill:#8C6239;}
	.st17{opacity:0.75;fill-rule:evenodd;clip-rule:evenodd;fill:url(#SVGID_4_);}
	.st18{opacity:0.75;fill:#FFFFFF;}
	.st19{opacity:0.45;}
	.st20{opacity:0.5;fill:#758293;}
	.st21{opacity:0.25;fill:#61392E;}
	.st22{fill:#758293;}
	.st23{fill:#EBEBEB;}
	.st24{fill:#FFFFFF;}
	.st25{fill:#DDBB88;}
	.st26{fill:#D54200;}
	.st27{opacity:0.5;fill:#6F2005;}
	.st28{fill-rule:evenodd;clip-rule:evenodd;fill:#00808E;}
	.st29{fill-rule:evenodd;clip-rule:evenodd;fill:#61392F;}
	.st30{opacity:0.25;}
	.st31{fill-rule:evenodd;clip-rule:evenodd;fill:#61392E;}
	.st32{fill-rule:evenodd;clip-rule:evenodd;fill:#FF6000;}
	.st33{clip-path:url(#SVGID_6_);fill:#60392E;}
	.st34{clip-path:url(#SVGID_6_);fill:none;}
	.st35{clip-path:url(#SVGID_6_);fill:#FCA532;}
	.st36{opacity:0.25;fill:#FCAB7E;}
	.st37{opacity:0.5;fill:#F9BDA0;}
	.st38{fill:#FCAB7E;}
	.st39{opacity:0.25;fill:#564D66;}
	.st40{opacity:0.75;fill:#1DD8D8;}
</style>
<g>
	<path class="st0" d="M56.4,402.3l193.8-113.6c31.4-18.4,82.3-18.4,113.6,0.2l193,114.3c31.3,18.5,31.2,48.5-0.2,67L362.9,583.7
		c-31.4,18.4-82.3,18.4-113.6-0.2l-193-114.3C24.9,450.7,25,420.7,56.4,402.3z"/>
	<path class="st1" d="M305.1,582.2c-21.1,0-42.2-4.9-60.5-15.6c-9.1-5.3-18.1-10.7-27.2-16.1c-28.6-17-57.2-33.9-85.8-50.9
		c-5.3-3.1-11.7-8.7-17.6-10.4c-6.2-1.8-15.3,0-21.8,0c-9,0-17.3-2-23.2-9.5c-3.5-4.5-5.1-9.8-5.3-15.5c-0.2-6.1-0.5-4.9-5.4-9.2
		c-10.8-9.7-16.6-21.3-16.5-35.8c0.1-11.7,0-23.4,0-35.1c0-26.6-0.1-53.3-0.1-79.9c0-2,0.6-5.1,0-7c-1.2-3.5-7.3-7.3-9.8-10.4
		c-8.9-11-10.6-23-10.6-36.6c-0.1-12.4,0.3-24.7,0.4-37.1c0.1-11.9-0.5-24,0.2-35.8c1.1-19.5,14.1-33.4,30.2-43
		c19-11.4,38.2-22.4,57.3-33.6c30-17.6,60.1-35.3,90.1-52.9c16.3-9.6,32.4-20,49.2-28.7c39.2-20.4,88.8-16.3,126.1,5.8
		c23,13.6,46,27.3,69,40.9c29.1,17.2,58.2,34.5,87.3,51.7c18.9,11.2,45.1,22.4,55.3,42.9c6.2,12.5,4.3,28.2,4.4,41.9
		c0.1,15.3,0.2,30.6,0.2,45.9c0,9.3,0.6,18.6-3,27.4c-2.7,6.6-7,12.5-12.1,17.4c-3,2.9-7,4.6-8.1,8.2c-1.8,6.1,0,15.4,0,21.7
		c0,6.9,0,13.8,0,20.8c0.1,25-0.7,50.2-0.1,75.2c0.8,31.4-26.6,44.2-49.9,57.8c-49.2,28.9-98.8,57-147.5,86.6
		C350.2,575.3,328.7,582.2,305.1,582.2z"/>
	<g>
		<defs>
			<path id="SVGID_1_" d="M557.3,234.2L53.2,231l0.3,188c-1.5,12.1,5.6,24.6,21.4,33.9l177.7,105.3c28.8,17.1,75.7,17.2,104.6,0.2
				l178.4-104.7c15.9-9.3,23.1-21.9,21.5-34.2L557.3,234.2z"/>
		</defs>
		<clipPath id="SVGID_2_">
			<use xlink:href="#SVGID_1_"  style="overflow:visible;"/>
		</clipPath>
		<path class="st2" d="M557.3,234.2L53.2,231l0.3,188c-1.5,12.1,5.6,24.6,21.4,33.9l177.7,105.3c28.8,17.1,75.7,17.2,104.6,0.2
			l178.4-104.7c15.9-9.3,23.1-21.9,21.5-34.2L557.3,234.2z"/>
		<path class="st3" d="M557.3,176.7l-504.1-3.2l0.3,188c-1.5,12.1,5.6,24.6,21.4,33.9l177.7,105.3c28.8,17.1,75.7,17.2,104.6,0.2
			l178.4-104.7c15.9-9.3,23.1-21.9,21.5-34.2L557.3,176.7z"/>
		<path class="st4" d="M557.3,158.5l-504.1-3.2l0.3,188c-1.5,12.1,5.6,24.6,21.4,33.9l177.7,105.3c28.8,17.1,75.7,17.2,104.6,0.2
			l178.4-104.7c15.9-9.3,23.1-21.9,21.5-34.2L557.3,158.5z"/>
		<path class="st5" d="M545.4,438.8L358.9,549.7c-10.7,5.7-20.9,0.9-20.9-10.7l-0.2-137.7c-0.4-5.8,10.5-5.9,14.5-8.2l191.6-110.7
			c4-2.3,7.6,0.6,7.9,6.4L552,424C552.2,427.5,550.1,435.9,545.4,438.8z"/>
		<g class="st6">
			<path class="st7" d="M331.4,544.3c0-14,0-96.3-0.1-111.1c-0.3-8.5,4.5-16.6,12.8-19.1c0,0-0.1-0.8,0.2-1.9
				c-20.9,6.4-44.7,6.4-65.7,0.2c0,0,0,2.8,0.1,2.9l-0.1,0.7c8.4,2.3,14,7,14,17.8c0.3,15.1,0.4,95.6,0.2,111.5
				c0,18.8-33.4,16-33.9,16.4c34.5,14.8,74.8,12.5,104.5-6.8C363.4,554.7,331.8,569.8,331.4,544.3z"/>
		</g>
		<path class="st8" d="M53.7,280.4l-0.3,139.3c-0.5,10.3,4.7,20.7,15.5,29.4c-6-7.1-8.8-14.8-8.4-22.5l0.3-139.3"/>
		<path class="st9" d="M33.5,217.1l188.3-67.3c30.6-17,83.6-15.8,118.6,2.7l215.4,108.7c34.9,18.5,38.5,47.4,7.9,64.4L375.4,436
			c-30.6,17-83.6,15.8-118.6-2.7L41.5,281.4C6.5,262.9,3,234.1,33.5,217.1z"/>
	</g>
	<g>
		<path class="st10" d="M56.8,225.8l193.7-113.7c31.4-18.5,82.3-18.4,113.6,0.2l193,114.4c31.3,18.6,31.2,48.6-0.2,67L363.1,407.4
			c-31.4,18.5-82.3,18.4-113.6-0.2l-193-114.4C25.2,274.3,25.3,244.3,56.8,225.8z"/>
		<path class="st11" d="M580.1,251.2l-0.2-72.7l-92-0.3l-124.1-73.6c-31.3-18.6-82.2-18.6-113.6-0.2L126.6,177l-92.9-0.4l-0.8,73.8
			c-0.6,12.5,7.2,25.2,23.4,34.8l193,114.4c31.3,18.6,82.2,18.6,113.6,0.2L556.5,286C572.8,276.5,580.7,263.8,580.1,251.2z"/>
		<path class="st12" d="M33.4,176.9l-0.4,73.7c-0.5,10.3,4.7,20.7,15.5,29.4c-6-7.1-8.8-14.8-8.4-22.5l0.4-73.7"/>
		<path class="st12" d="M580,177.2l0.4,73.7c0.5,10.3-4.7,20.7-15.5,29.4c6-7.1,8.8-14.8,8.4-22.5l-0.4-73.7"/>
		<path class="st13" d="M57.2,144.3L250.7,30.7c31.4-18.4,82.2-18.3,113.4,0.2l192.7,114.2c31.3,18.5,31.2,48.5-0.2,66.9
			L363.2,325.5c-31.4,18.4-82.2,18.3-113.4-0.2L57,211.2C25.7,192.6,25.8,162.7,57.2,144.3z"/>
		<linearGradient id="SVGID_3_" gradientUnits="userSpaceOnUse" x1="46.7954" y1="175.8362" x2="567.0295" y2="175.8362">
			<stop  offset="2.123607e-02" style="stop-color:#F9E3B8"/>
			<stop  offset="9.150303e-02" style="stop-color:#F5DEB2"/>
			<stop  offset="0.6681" style="stop-color:#DAB580"/>
			<stop  offset="0.9532" style="stop-color:#D0A56D"/>
		</linearGradient>
		<path class="st14" d="M69.3,143.6L253.4,35.6c29.9-17.5,78.2-17.5,108,0.2l183.4,108.7c29.8,17.6,29.7,46.1-0.2,63.7L360.4,316.1
			c-29.9,17.5-78.2,17.5-108-0.2L69.1,207.3C39.3,189.7,39.4,161.1,69.3,143.6z"/>
		<g class="st15">
			<path class="st16" d="M156.1,343.6c-4.5,0.2-8.4-3.2-8.9-7.8c-4.3-44.6,14.1-76.1,30.3-94.6c17.4-19.9,35.8-29.4,36.6-29.8
				c4.2-2.1,9.4-0.4,11.5,3.8c2.1,4.2,0.5,9.4-3.8,11.5l0,0c-0.2,0.1-16.6,8.6-31.8,26.2c-20,23.2-28.7,50.5-25.8,81.2
				c0.4,4.7-3,8.9-7.7,9.4C156.4,343.6,156.2,343.6,156.1,343.6z"/>
		</g>
		<linearGradient id="SVGID_4_" gradientUnits="userSpaceOnUse" x1="347.7377" y1="369.9557" x2="548.1289" y2="255.4754">
			<stop  offset="2.123607e-02" style="stop-color:#DEBC8A"/>
			<stop  offset="0.6263" style="stop-color:#C7995C"/>
			<stop  offset="0.9467" style="stop-color:#BD8B49"/>
		</linearGradient>
		<path class="st17" d="M559.8,278.3l-216,126.4c-4,2.3-7.6-0.6-7.9-6.4l-0.2-42.4c-0.4-5.8,2.6-12.5,6.6-14.8l216-124
			c4-2.3,7.6,0.6,7.9,6.4l0.2,40C566.8,269.3,563.8,276,559.8,278.3z"/>
		<ellipse class="st18" cx="40.4" cy="176.3" rx="6" ry="13.3"/>
		<g class="st19">
			<path class="st7" d="M330.4,390.1c0-14,0-22-0.1-36.9c-0.3-8.5,4.5-16.6,12.8-19.1c0,0-0.1-0.8,0.2-1.9
				c-20.9,6.4-44.7,6.4-65.7,0.2c0,0,0,2.8,0.1,2.9l-0.1,0.7c8.4,2.3,14,7,14,17.8c0.3,15.1,0.4,21.3,0.2,37.2
				c0,18.8-33.6,13.3-33.6,13.3c34.5,14.8,73.1,12,104.4-4C362.5,400.3,330.4,408.3,330.4,390.1z"/>
		</g>
		<path class="st20" d="M135.6,325.5c1.9-1.1,4.1-1.8,6.5-1.8c4.2,0,8,2,10.4,5.2c2.1-9.1,5.2-17.5,9.3-25.3l-19,0.1
			C139.9,310.4,137.4,317.6,135.6,325.5z"/>
	</g>
	<path class="st21" d="M227.9,353.9l-41.4-38.6l-49.4,0.5l-27.2,38c-0.7,0.7-3.7,6.1-2.7,10.8l22.4,111c1.5,7.6,8.5,13.7,15.7,13.7
		l101.1-0.5c7.1,0,11.6-6.2,10.1-13.8l-22.4-111C233.3,360,230.9,356.4,227.9,353.9z M171.3,365.1c-6.3,0-12.6-5.5-14-12.4
		s2.6-12.5,9-12.5c6.3,0,12.6,5.5,14,12.4C181.7,359.5,177.7,365.1,171.3,365.1z"/>
	<g>
		<g>
			<path class="st22" d="M209.6,340l-35.7-38.8l-52.7,0.3l-37.1,37.8c-0.9,0.7-5.2,6.1-5.2,10.8V461c0,7.6,6.1,13.7,13.7,13.7h107.6
				c7.6,0,13.7-6.1,13.7-13.7V350.1C214,346.1,212.3,342.5,209.6,340z M147.1,348.2c-7.3,0-13.2-6-13.2-13.4
				c0-7.4,5.9-13.4,13.2-13.4c7.3,0,13.2,6,13.2,13.4C160.2,342.2,154.3,348.2,147.1,348.2z"/>
			<path class="st23" d="M206.1,343.4l-35.7-38.8l-52.7,0.3l-37.1,37.8c-0.9,0.7-5.2,6.1-5.2,10.8v110.9c0,7.6,6.1,13.7,13.7,13.7
				h107.6c7.6,0,13.7-6.1,13.7-13.7V353.5C210.6,349.5,208.9,345.9,206.1,343.4z M143.6,351.6c-7.3,0-13.2-6-13.2-13.4
				c0-7.4,5.9-13.4,13.2-13.4c7.3,0,13.2,6,13.2,13.4C156.8,345.7,150.9,351.6,143.6,351.6z"/>
			<path class="st24" d="M117.6,304.9l-37.1,37.8c-0.9,0.7-5.2,6.1-5.2,10.8v110.9c0,7.6,6.1,13.7,13.7,13.7h4.2
				c-5.6-1.8-9.6-7-9.6-13.1V354.2c0-4.7,4.3-10,5.2-10.8l37.6-38.5"/>
			<path class="st25" d="M143.7,311c-14.8,0-26.8,12.2-26.8,27.2c0,15,12,27.2,26.8,27.2c14.8,0,26.8-12.2,26.8-27.2
				C170.4,323.2,158.4,311,143.7,311z M143.7,353.2c-8.1,0-14.7-6.7-14.7-14.9c0-8.3,6.6-14.9,14.7-14.9c8.1,0,14.7,6.7,14.7,14.9
				C158.4,346.5,151.8,353.2,143.7,353.2z"/>
		</g>
		<g>
			<path class="st26" d="M144,343.6c-4.5,0-8.3-3.5-8.6-8.1c-2.5-44.8,17.1-75.5,34-93.4c18.2-19.2,36.9-28,37.7-28.3
				c4.3-2,9.4-0.1,11.4,4.2c2,4.3,0.1,9.4-4.2,11.4l0,0c-0.2,0.1-16.9,8-32.8,25c-20.9,22.4-30.6,49.3-28.9,80.2
				c0.3,4.7-3.4,8.8-8.1,9C144.4,343.6,144.2,343.6,144,343.6z"/>
		</g>
		<path class="st27" d="M213,220c-2.3-4.2-7.5-5.8-11.7-3.5c-0.5,0.2-7,3.9-15.8,11.1c1.3-0.8,2.1-1.3,2.3-1.4
			c4.2-2.3,9.5-0.7,11.7,3.5c1.7,3.2,0.8,7-1.2,9.6c6.3-5,15.4-9.7,15.5-9.8C218,227.3,215.3,224.2,213,220z"/>
		<g>
			<g>
				<g>
					
						<ellipse transform="matrix(0.9997 -2.272405e-02 2.272405e-02 0.9997 -3.5858 6.9942)" class="st28" cx="306" cy="161.3" rx="141.9" ry="88.6"/>
				</g>
				
					<ellipse transform="matrix(0.9998 -2.052539e-02 2.052539e-02 0.9998 -3.0886 6.3008)" class="st29" cx="305.4" cy="153.6" rx="131.4" ry="80.6"/>
				<g class="st30">
					
						<ellipse transform="matrix(0.9997 -2.272405e-02 2.272405e-02 0.9997 -3.8451 8.0482)" class="st31" cx="352.2" cy="173.2" rx="141.9" ry="88.6"/>
				</g>
				
					<ellipse transform="matrix(0.9995 -3.307748e-02 3.307748e-02 0.9995 -4.3356 10.2018)" class="st32" cx="306.2" cy="136.1" rx="115.9" ry="74.7"/>
				
					<ellipse transform="matrix(0.9995 -3.307748e-02 3.307748e-02 0.9995 -4.3356 10.2018)" class="st32" cx="306.2" cy="136.1" rx="115.9" ry="74.7"/>
				<g>
					<defs>
						
							<ellipse id="SVGID_5_" transform="matrix(0.9997 -2.299427e-02 2.299427e-02 0.9997 -3.0534 7.0693)" cx="305.9" cy="136.3" rx="115.8" ry="74.6"/>
					</defs>
					<clipPath id="SVGID_6_">
						<use xlink:href="#SVGID_5_"  style="overflow:visible;"/>
					</clipPath>
					<path class="st33" d="M378.2,198.6l7.6-7.4c0,0-0.2-0.6-0.6-1.6c-2.8,1.7-5.7,3.4-8.8,4.9C377,195.9,377.6,197.3,378.2,198.6z"
						/>
					<path class="st34" d="M311.4,61.7c-20.6-0.4-40.3,2.8-57.5,8.6c81.7-10,125.9,104.5,131.3,119.3c21.1-13.1,34.9-31.2,36.4-51.3
						C424.6,97.1,375.3,62.8,311.4,61.7z"/>
					<path class="st35" d="M225.2,192.7c0,0,45.7-158.4,166-112.9c0,0-120.3-62.5-175,107.9L225.2,192.7z"/>
					<path class="st35" d="M191.4,136.3c0,0,86-57,114.1,81.4l10.6-0.4c0,0-15.9-144-124.8-88V136.3z"/>
					<path class="st35" d="M335.5,56.4c0,0-30.7-3.8,97,67.5l0.7,7c0,0-130.9-69.9-104-75L335.5,56.4z"/>
					<path class="st33" d="M187.4,136.3c0,0,86-57,114.1,81.4l10.6-0.4c0,0-15.9-144-124.8-88V136.3z"/>
					<path class="st33" d="M331.5,56.4c0,0-30.7-3.8,97,67.5l0.7,7c0,0-130.9-69.9-104-75L331.5,56.4z"/>
					<path class="st35" d="M257.9,70.3c-4.1,1.4-8.1,2.9-11.9,4.6c28.5-5.1,83.9,3.5,134.4,119.7c3-1.5,6-3.2,8.8-4.9
						C383.8,174.8,339.6,60.2,257.9,70.3z"/>
					<path class="st33" d="M221.2,192.7c0,0,45.7-158.4,166-112.9c0,0-120.3-62.5-175,107.9L221.2,192.7z"/>
					<path class="st33" d="M253.9,70.3c-4.1,1.4-8.1,2.9-11.9,4.6c28.5-5.1,83.9,3.5,134.4,119.7c3-1.5,6-3.2,8.8-4.9
						C379.8,174.8,335.6,60.2,253.9,70.3z"/>
				</g>
			</g>
			
				<ellipse transform="matrix(0.8875 -0.4608 0.4608 0.8875 -21.7008 124.1058)" class="st36" cx="243.3" cy="106.5" rx="37.1" ry="22"/>
			
				<ellipse transform="matrix(0.8875 -0.4608 0.4608 0.8875 -20.7065 122.7103)" class="st37" cx="241" cy="103.8" rx="27.8" ry="16.2"/>
			<path class="st38" d="M192.6,139.1c3.2-41.3,57.6-74.1,121.5-73.3c48.3,0.6,88.2,20.3,103.4,47.7
				c-13.2-29.8-54.8-51.6-105.7-52.3c-63.9-0.8-118.3,32-121.5,73.3c-0.8,10.1,1.6,19.8,6.5,28.6
				C193.4,155.6,191.9,147.5,192.6,139.1z"/>
		</g>
	</g>
	<path class="st39" d="M353,66.5c27.6,14,44.5,36.2,42.6,60.9c-3.2,41.3-57.6,74.1-121.5,73.3c-14.5-0.2-28.2-2.1-40.7-5.4
		c18.5,9.3,41.7,15,67.3,15.4c63.9,0.8,118.3-32,121.5-73.3C424.7,105.5,395.8,77.8,353,66.5z"/>
</g>
<ellipse transform="matrix(0.9647 -0.2633 0.2633 0.9647 -40.0189 51.375)" class="st40" cx="171.7" cy="175" rx="5.4" ry="12.1"/>
</svg>
