<?xml version="1.0" encoding="utf-8"?>
<!-- Generator: Adobe Illustrator 23.0.4, SVG Export Plug-In . SVG Version: 6.00 Build 0)  -->
<svg version="1.1" id="Layer_1" xmlns="http://www.w3.org/2000/svg" xmlns:xlink="http://www.w3.org/1999/xlink" x="0px" y="0px"
	 width="563px" height="563px" viewBox="0 0 563 563" style="enable-background:new 0 0 563 563;" xml:space="preserve">
<style type="text/css">
	.st0{opacity:0.5;fill-rule:evenodd;clip-rule:evenodd;fill:#998D9D;enable-background:new    ;}
	.st1{fill-rule:evenodd;clip-rule:evenodd;fill:#613B13;}
	.st2{clip-path:url(#SVGID_2_);fill-rule:evenodd;clip-rule:evenodd;fill:#E8CDA1;}
	.st3{opacity:0.25;clip-path:url(#SVGID_2_);fill-rule:evenodd;clip-rule:evenodd;fill:none;stroke:#A38265;stroke-miterlimit:10;}
	.st4{clip-path:url(#SVGID_2_);fill-rule:evenodd;clip-rule:evenodd;fill:url(#SVGID_3_);}
	.st5{clip-path:url(#SVGID_2_);fill-rule:evenodd;clip-rule:evenodd;fill:#BD8B49;}
	.st6{clip-path:url(#SVGID_2_);fill-rule:evenodd;clip-rule:evenodd;fill:url(#SVGID_4_);}
	.st7{clip-path:url(#SVGID_2_);}
	.st8{fill-rule:evenodd;clip-rule:evenodd;fill:#00808E;}
	.st9{fill-rule:evenodd;clip-rule:evenodd;fill:#61392F;}
	.st10{fill-rule:evenodd;clip-rule:evenodd;fill:#FF6000;}
	.st11{clip-path:url(#SVGID_2_);fill-rule:evenodd;clip-rule:evenodd;fill:#008190;}
	.st12{clip-path:url(#SVGID_2_);fill-rule:evenodd;clip-rule:evenodd;fill:#FFFFFF;}
	.st13{clip-path:url(#SVGID_2_);fill:#E0A96C;}
	.st14{opacity:0.75;clip-path:url(#SVGID_2_);fill:#A06624;}
	.st15{clip-path:url(#SVGID_2_);fill:#F5E1BB;}
	.st16{opacity:0.5;clip-path:url(#SVGID_2_);fill:#A06624;}
	.st17{clip-path:url(#SVGID_2_);fill-rule:evenodd;clip-rule:evenodd;fill:#F5E1BB;}
	.st18{opacity:0.5;clip-path:url(#SVGID_2_);fill-rule:evenodd;clip-rule:evenodd;fill:#A06624;}
	.st19{opacity:0.25;clip-path:url(#SVGID_2_);fill:#B37D3E;}
	.st20{clip-path:url(#SVGID_2_);fill-rule:evenodd;clip-rule:evenodd;fill:url(#SVGID_5_);}
	.st21{opacity:0.5;clip-path:url(#SVGID_2_);fill-rule:evenodd;clip-rule:evenodd;fill:url(#SVGID_6_);}
	.st22{opacity:0.5;fill-rule:evenodd;clip-rule:evenodd;fill:url(#SVGID_7_);}
</style>
<path class="st0" d="M9,367.9l273.8-158.5c5.6-3.2,15.5-2.4,22.2,1.9l246.6,155.3c6.5,4.2,7.2,10.1,1.7,13.2L287.8,534.5
	c-5.3,3-15,2.3-21.6-1.7L11.4,380.9C4.7,376.9,3.5,371.1,9,367.9z"/>
<g>
	<path class="st1" d="M274.5,526.3c-5.3,0-10.4-1.3-14.4-3.7L21.8,379.7c-4.5-2.7-7.4-6.7-8.2-11.2c-0.2-0.7-0.2-1.4-0.2-2.2V183.1
		c0-0.6,0.1-1.2,0.2-1.8c0.7-4.8,3.8-9.1,8.7-11.9l245-141.2c4-2.3,9-3.6,14.2-3.6c5.3,0,10.4,1.3,14.4,3.7l238.3,142.8
		c5.2,3.1,8.3,8.1,8.4,13.3c0,0.4,0.1,0.7,0.1,1.1v182.8c0,1.4-0.3,2.8-0.9,4c-1.3,3.7-4.1,6.9-8,9.1l-245,141.2
		C284.8,525,279.7,526.3,274.5,526.3z"/>
	<g>
		<defs>
			<path id="SVGID_1_" d="M534,185.8l-0.1,0c0.4-2.2-0.9-4.6-3.8-6.3L291.7,36.7c-5.2-3.1-13.7-3.1-19.1-0.1l-245,141.2
				c-2.6,1.5-4,3.5-4.1,5.5l0,0v183.2l0,0c0.1,1.9,1.4,3.8,3.8,5.2l238.3,142.8c5.2,3.1,13.7,3.1,19.1,0.1l245-141.2
				c2.4-1.4,3.7-3.1,4-4.9l0.1,0V185.8z"/>
		</defs>
		<clipPath id="SVGID_2_">
			<use xlink:href="#SVGID_1_"  style="overflow:visible;"/>
		</clipPath>
		<path class="st2" d="M534,185.8l-0.1,0c0.4-2.2-0.9-4.6-3.8-6.3L291.7,36.7c-5.2-3.1-13.7-3.1-19.1-0.1l-245,141.2
			c-2.6,1.5-4,3.5-4.1,5.5l0,0v183.2l0,0c0.1,1.9,1.4,3.8,3.8,5.2l238.3,142.8c5.2,3.1,13.7,3.1,19.1,0.1l245-141.2
			c2.4-1.4,3.7-3.1,4-4.9l0.1,0V185.8z"/>
		<path class="st3" d="M31.8,180.5L278.2,38.3c2.1-1.2,5.4-1.2,7.4,0l237.2,140.7c2,1.2,1.9,3.1-0.1,4.2L281.1,324.2
			c-2,1.2-5.3,1.2-7.3,0.1L31.8,184.8C29.7,183.6,29.7,181.7,31.8,180.5z"/>
		<path class="st3" d="M31.8,180.5L278.2,38.3c2.1-1.2,5.4-1.2,7.4,0l237.2,140.7c2,1.2,1.9,3.1-0.1,4.2L281.1,324.2
			c-2,1.2-5.3,1.2-7.3,0.1L31.8,184.8C29.7,183.6,29.7,181.7,31.8,180.5z"/>
		<linearGradient id="SVGID_3_" gradientUnits="userSpaceOnUse" x1="151.9305" y1="458.3388" x2="151.9305" y2="226.5375">
			<stop  offset="6.503534e-02" style="stop-color:#DCB987"/>
			<stop  offset="0.2737" style="stop-color:#DFBE8E"/>
			<stop  offset="0.9511" style="stop-color:#E8CDA1"/>
		</linearGradient>
		<path class="st4" d="M42.6,201l218.7,129.5c3.6,2.1,6.5,7.7,6.5,12.4v158c0,4.7-2.9,6.8-6.5,4.7L42.6,376.1
			c-3.6-2.1-6.5-7.7-6.5-12.4v-158C36,200.9,39,198.8,42.6,201z"/>
		<path class="st5" d="M528.4,198.7l0.6,160.5c0,4.8-3,10.4-6.8,12.6L292.4,504c-3.8,2.2-6.9,0.1-6.9-4.7l-0.6-160.5
			c0-4.8,3-10.4,6.8-12.6L521.5,194C525.3,191.8,528.4,193.9,528.4,198.7z"/>
		<linearGradient id="SVGID_4_" gradientUnits="userSpaceOnUse" x1="30.2576" y1="181.2754" x2="524.2866" y2="181.2754">
			<stop  offset="6.503534e-02" style="stop-color:#DCB987"/>
			<stop  offset="0.521" style="stop-color:#D0A66E"/>
			<stop  offset="0.9511" style="stop-color:#C6985B"/>
		</linearGradient>
		<path class="st6" d="M31.8,180.5L278.2,38.3c2.1-1.2,5.4-1.2,7.4,0l237.2,140.7c2,1.2,1.9,3.1-0.1,4.2L281.1,324.2
			c-2,1.2-5.3,1.2-7.3,0.1L31.8,184.8C29.7,183.6,29.7,181.7,31.8,180.5z"/>
		<g class="st7">
			<g>
				
					<ellipse transform="matrix(3.894449e-02 -0.9992 0.9992 3.894449e-02 94.1319 448.3166)" class="st8" cx="280.1" cy="175.2" rx="74.5" ry="115.4"/>
			</g>
			<g>
				
					<ellipse transform="matrix(3.894449e-02 -0.9992 0.9992 3.894449e-02 94.3527 447.1889)" class="st9" cx="279.7" cy="174.5" rx="67.8" ry="106.9"/>
				
					<ellipse transform="matrix(3.894449e-02 -0.9992 0.9992 3.894449e-02 94.7042 447.5841)" class="st10" cx="280" cy="174.6" rx="59.7" ry="94.2"/>
				<path class="st9" d="M374.7,181.8c0.2-1.8,0.2-3.3,0.2-5.2c-20.7-2.2-42.4-8.5-58.6-18.6l37.6-21.8l-5.9-4.1L310.3,154
					c-15.6-11.4-24.6-25.5-26.4-39.3c-2.9-0.2-4.9-0.3-7.8-0.3c1.8,15.2,10.8,30.8,27.9,43.2l-24.1,14l-64.7-44.7l-6.2,3.6
					l64.7,44.7l-25.9,15.1c-17.6-11.4-39.8-18.4-62.9-20.9c-0.1,1.8-0.2,3.6-0.1,5.5c20.8,2.4,40.8,8.8,56.8,19.1l-35.8,20.8
					l5.9,4.1l35.8-20.8c14.2,10.7,22.3,23.3,24.4,36.2c-0.3,5,7.8,5.9,8.6,0.3c-2.2-14.3-11.1-28.3-26.8-40.1l26-15.1l64.7,44.7
					l6.2-3.6l-64.7-44.7l24.2-14.1C327.9,172.7,351.8,179.4,374.7,181.8z"/>
			</g>
		</g>
		<path class="st11" d="M50.5,220.9l115.5,67c1.9,1.1,3.5,4,3.5,6.4v72c0,2.4-1.5,3.5-3.5,2.4l-115.5-67c-1.9-1.1-3.5-4-3.5-6.4v-72
			C47,220.8,48.6,219.8,50.5,220.9z"/>
		<path class="st12" d="M47.3,221.8l115.5,67c1.9,1.1,3.5,4,3.5,6.4v72c0,2.4-1.5,3.5-3.5,2.4l-115.5-67c-1.9-1.1-3.5-4-3.5-6.4v-72
			C43.9,221.7,45.4,220.7,47.3,221.8z"/>
		<path class="st13" d="M534.2,185c0.4-2.2-0.9-4.6-3.8-6.3L292.2,35.9c-4-2.4-9.8-2.9-14.8-1.7c1.6,0.4,3.1,1,4.4,1.7l238.3,142.8
			c2.9,1.7,4.1,4,3.8,6.3l0.1,0v182.8l-0.1,0c-0.3,1.8-1.6,3.6-4,4.9l-245,141.2c-1.3,0.7-2.8,1.3-4.3,1.7
			c4.9,1.2,10.7,0.6,14.7-1.7l245-141.2c2.4-1.4,3.7-3.1,4-4.9l0.1,0V185L534.2,185z"/>
		<path class="st14" d="M529.9,363.2l-245,141.2c-5.3,3.1-13.9,3.1-19.1-0.1L27.5,361.5c-2.4-1.5-3.7-3.3-3.8-5.2l0,0v10.4l0,0
			c0.1,1.9,1.4,3.8,3.8,5.2l238.3,142.8c5.2,3.1,13.7,3.1,19.1,0.1l245-141.2c2.4-1.4,4.1-4,4.4-5.8l0-9.6
			C534.1,360,532.3,361.8,529.9,363.2z"/>
		<path class="st15" d="M291.7,36.6c-5.2-3.1-13.7-3.1-19.1-0.1l-245,141.2c-2.6,1.5-4,3.5-4.1,5.5l0,0l0,183.2
			c0.1,1.9,1.4,3.8,3.8,5.2l9.4,5.7c-2.4-1.5-3.7-3.4-3.8-5.3l0-183.2l0,0c0.1-2,1.4-4,4.1-5.5L282,42.2c5.3-3.1,13.9-3.1,19.1,0.1"
			/>
		<polygon class="st16" points="292,326 345.8,375.4 295.7,497.4 337.8,377.7 		"/>
		<path class="st17" d="M21.4,181.6c2-1.1,4.9-1.2,6.5-0.3l244.5,144.6c1.6,0.9,1.2,2.5-0.8,3.6s-4.9,1.2-6.5,0.3L20.6,185.2
			C19,184.3,19.4,182.6,21.4,181.6z"/>
		<polygon class="st18" points="483.4,322.2 523.8,192.8 523.8,192.8 523.8,192.8 523.8,192.8 523.7,192.8 455.6,375.8 386.8,412.3 
			459.1,379.2 479.8,328.9 519.6,369.3 		"/>
		<polygon class="st19" points="455.6,375.8 386.8,412.3 346,375.3 292.9,504 521.9,371.6 475,323.5 		"/>
		<linearGradient id="SVGID_5_" gradientUnits="userSpaceOnUse" x1="441.4387" y1="376.7345" x2="377.6222" y2="153.8909">
			<stop  offset="0" style="stop-color:#A36E3A;stop-opacity:0.5"/>
			<stop  offset="0.4889" style="stop-color:#CAA474;stop-opacity:0.7712"/>
			<stop  offset="0.9014" style="stop-color:#E8CDA1"/>
		</linearGradient>
		<path class="st20" d="M292,326.2l94.8,86.2l68.8-36.6l68.2-183L292,326.2z"/>
		<linearGradient id="SVGID_6_" gradientUnits="userSpaceOnUse" x1="386.7782" y1="302.5496" x2="523.7587" y2="302.5496">
			<stop  offset="6.503534e-02" style="stop-color:#DCB987"/>
			<stop  offset="0.2737" style="stop-color:#DFBE8E"/>
			<stop  offset="0.9511" style="stop-color:#E8CDA1"/>
		</linearGradient>
		<polygon class="st21" points="386.8,412.3 451.9,373.8 523.8,192.8 455.6,375.8 		"/>
	</g>
	<linearGradient id="SVGID_7_" gradientUnits="userSpaceOnUse" x1="477.9131" y1="348.859" x2="518.9766" y2="348.859">
		<stop  offset="6.503534e-02" style="stop-color:#DCB987"/>
		<stop  offset="0.2737" style="stop-color:#DFBE8E"/>
		<stop  offset="0.9511" style="stop-color:#E8CDA1"/>
	</linearGradient>
	<polygon class="st22" points="519,368.9 479.8,328.9 477.9,333.2 	"/>
</g>
</svg>
