{"asset":{"generator":"glTF-Transform v3.5.1","version":"2.0"},"accessors":[{"type":"SCALAR","componentType":5123,"count":6,"normalized":false,"byteOffset":0,"bufferView":0},{"type":"VEC3","componentType":5120,"count":4,"normalized":true,"byteOffset":0,"bufferView":1},{"type":"VEC2","componentType":5126,"count":4,"normalized":false,"byteOffset":0,"bufferView":2},{"type":"SCALAR","componentType":5123,"count":228,"normalized":false,"byteOffset":12,"bufferView":0},{"type":"VEC3","componentType":5120,"count":73,"normalized":true,"byteOffset":16,"bufferView":1},{"type":"SCALAR","componentType":5123,"count":288,"normalized":false,"byteOffset":468,"bufferView":0},{"type":"VEC3","componentType":5120,"count":69,"normalized":true,"byteOffset":308,"bufferView":1},{"type":"VEC3","componentType":5120,"count":69,"normalized":true,"byteOffset":584,"bufferView":1},{"type":"SCALAR","componentType":5123,"count":84,"normalized":false,"byteOffset":1044,"bufferView":0},{"type":"VEC3","componentType":5120,"count":34,"normalized":true,"byteOffset":860,"bufferView":1},{"type":"SCALAR","componentType":5123,"count":5529,"normalized":false,"byteOffset":1212,"bufferView":0},{"type":"VEC3","componentType":5120,"count":1855,"normalized":true,"byteOffset":996,"bufferView":1},{"type":"SCALAR","componentType":5123,"count":1524,"normalized":false,"byteOffset":12270,"bufferView":0},{"type":"VEC3","componentType":5120,"count":469,"normalized":true,"byteOffset":8416,"bufferView":1},{"type":"VEC3","componentType":5122,"count":4,"max":[32767,0,32767],"min":[-32767,0,-32767],"normalized":true,"byteOffset":32,"bufferView":2},{"type":"VEC2","componentType":5123,"count":4,"normalized":true,"byteOffset":0,"bufferView":3},{"type":"VEC3","componentType":5122,"count":73,"max":[30455,8237,32767],"min":[-30455,-8237,-32767],"normalized":true,"byteOffset":64,"bufferView":2},{"type":"VEC2","componentType":5123,"count":73,"normalized":true,"byteOffset":16,"bufferView":3},{"type":"VEC3","componentType":5122,"count":69,"max":[32767,32767,16386],"min":[-32767,-32767,-16386],"normalized":true,"byteOffset":648,"bufferView":2},{"type":"VEC2","componentType":5123,"count":69,"normalized":true,"byteOffset":308,"bufferView":3},{"type":"VEC3","componentType":5122,"count":34,"max":[22766,12765,22766],"min":[-22766,-32767,-22766],"normalized":true,"byteOffset":1200,"bufferView":2},{"type":"VEC2","componentType":5123,"count":34,"normalized":true,"byteOffset":584,"bufferView":3},{"type":"VEC3","componentType":5122,"count":69,"max":[20802,32767,20802],"min":[-20802,11965,-20802],"normalized":true,"byteOffset":1472,"bufferView":2},{"type":"VEC2","componentType":5123,"count":69,"normalized":true,"byteOffset":720,"bufferView":3},{"type":"VEC3","componentType":5122,"count":1855,"max":[32767,0,5312],"min":[-32767,0,-5312],"normalized":true,"byteOffset":2024,"bufferView":2},{"type":"VEC2","componentType":5123,"count":1855,"normalized":true,"byteOffset":996,"bufferView":3},{"type":"VEC2","componentType":5123,"count":34,"normalized":true,"byteOffset":8416,"bufferView":3},{"type":"VEC2","componentType":5123,"count":69,"normalized":true,"byteOffset":8552,"bufferView":3},{"type":"VEC3","componentType":5122,"count":469,"max":[32039,11029,32767],"min":[-32039,-11029,-32767],"normalized":true,"byteOffset":16864,"bufferView":2},{"type":"VEC2","componentType":5123,"count":469,"normalized":true,"byteOffset":8828,"bufferView":3}],"bufferViews":[{"buffer":1,"byteOffset":0,"byteLength":15318,"target":34963,"extensions":{"EXT_meshopt_compression":{"buffer":0,"byteOffset":0,"byteLength":2699,"mode":"TRIANGLES","byteStride":2,"count":7659}}},{"buffer":1,"byteOffset":15320,"byteLength":10292,"target":34962,"byteStride":4,"extensions":{"EXT_meshopt_compression":{"buffer":0,"byteOffset":2700,"byteLength":1349,"mode":"ATTRIBUTES","filter":"OCTAHEDRAL","byteStride":4,"count":2573}}},{"buffer":1,"byteOffset":25612,"byteLength":20616,"target":34962,"byteStride":8,"extensions":{"EXT_meshopt_compression":{"buffer":0,"byteOffset":4052,"byteLength":9623,"mode":"ATTRIBUTES","byteStride":8,"count":2577}}},{"buffer":1,"byteOffset":46228,"byteLength":10704,"target":34962,"byteStride":4,"extensions":{"EXT_meshopt_compression":{"buffer":0,"byteOffset":13676,"byteLength":6527,"mode":"ATTRIBUTES","byteStride":4,"count":2676}}}],"samplers":[{"magFilter":9729,"minFilter":9987,"wrapS":10497,"wrapT":10497}],"textures":[{"source":0,"sampler":0},{"source":1,"sampler":0},{"source":2,"sampler":0},{"source":3,"sampler":0},{"source":4,"sampler":0}],"images":[{"name":"alien","mimeType":"image/png","uri":"textures/alien.png"},{"name":"red_white","mimeType":"image/png","uri":"textures/red_white.png"},{"name":"green","mimeType":"image/jpeg","uri":"textures/green.jpg"},{"name":"scan","mimeType":"image/png","uri":"textures/scan.png"},{"name":"yellow","mimeType":"image/jpeg","uri":"textures/yellow.jpg"}],"buffers":[{"uri":"scanner.bin","byteLength":20204},{"byteLength":56932,"extensions":{"EXT_meshopt_compression":{"fallback":true}}}],"materials":[{"name":"Material.004","alphaMode":"BLEND","doubleSided":true,"pbrMetallicRoughness":{"roughnessFactor":0.5,"metallicFactor":0,"baseColorTexture":{"index":0}}},{"name":"Material.001","doubleSided":true,"pbrMetallicRoughness":{"roughnessFactor":0.5,"metallicFactor":0,"baseColorTexture":{"index":1}}},{"name":"Material.003","doubleSided":true,"pbrMetallicRoughness":{"baseColorFactor":[0.028426002711057663,0.02842601388692856,0.027320878580212593,1],"metallicFactor":0}},{"name":"green","doubleSided":true,"pbrMetallicRoughness":{"roughnessFactor":0.5,"metallicFactor":0,"baseColorTexture":{"index":2}}},{"name":"Material.002","doubleSided":true,"pbrMetallicRoughness":{"baseColorFactor":[0,0.7991027235984802,0.0595114529132843,1],"roughnessFactor":0.5,"metallicFactor":0}},{"name":"scan","alphaMode":"BLEND","doubleSided":true,"pbrMetallicRoughness":{"roughnessFactor":0.5,"metallicFactor":0,"baseColorTexture":{"index":3}},"emissiveFactor":[0.008602816611528397,0.01959453523159027,0.010291347280144691]},{"name":"yellow","doubleSided":true,"pbrMetallicRoughness":{"roughnessFactor":0.5,"metallicFactor":0,"baseColorTexture":{"index":4}}}],"meshes":[{"name":"Plane.002","primitives":[{"attributes":{"NORMAL":1,"POSITION":14,"TEXCOORD_0":15},"mode":4,"material":0,"indices":0}]},{"name":"Cylinder.004","primitives":[{"attributes":{"NORMAL":4,"POSITION":16,"TEXCOORD_0":17},"mode":4,"material":1,"indices":3}]},{"name":"Cube.005","primitives":[{"attributes":{"NORMAL":6,"POSITION":18,"TEXCOORD_0":19},"mode":4,"material":1,"indices":5}]},{"name":"Plane","primitives":[{"attributes":{"NORMAL":1,"POSITION":14,"TEXCOORD_0":15},"mode":4,"material":2,"indices":0}]},{"name":"Cylinder","primitives":[{"attributes":{"NORMAL":9,"POSITION":20,"TEXCOORD_0":21},"mode":4,"material":1,"indices":8},{"attributes":{"NORMAL":7,"POSITION":22,"TEXCOORD_0":23},"mode":4,"material":3,"indices":5}]},{"name":"Text","primitives":[{"attributes":{"NORMAL":11,"POSITION":24,"TEXCOORD_0":25},"mode":4,"material":4,"indices":10}]},{"name":"Plane.001","primitives":[{"attributes":{"TEXCOORD_0":2,"NORMAL":1,"POSITION":14},"mode":4,"material":5,"indices":0}]},{"name":"Cylinder.001","primitives":[{"attributes":{"TEXCOORD_0":26,"NORMAL":9,"POSITION":20},"mode":4,"material":1,"indices":8},{"attributes":{"TEXCOORD_0":27,"NORMAL":7,"POSITION":22},"mode":4,"material":6,"indices":5}]},{"name":"Scanner Body Less Backface","primitives":[{"attributes":{"NORMAL":13,"POSITION":28,"TEXCOORD_0":29},"mode":4,"material":1,"indices":12}]}],"nodes":[{"name":"alien01","translation":[-1.275899887084961,0.7152693867683411,-3.3059935569763184],"rotation":[0,-0.0011195077125609658,0,0.9999993733510444],"scale":[0.3943484425557128,0.37855756282806396,0.4810587167754981],"mesh":0},{"name":"alien02","translation":[0.024100184440612793,0.7152693867683411,-3.3059935569763184],"rotation":[0,-0.0011195077125609658,0,0.9999993733510444],"scale":[0.3943484425557128,0.37855756282806396,0.4810587167754981],"mesh":0},{"name":"alien03","translation":[1.2241002321243286,0.7152693867683411,-3.3059935569763184],"rotation":[0,-0.0011195077125609658,0,0.9999993733510444],"scale":[0.3943484425557128,0.37855756282806396,0.4810587167754981],"mesh":0},{"name":"Cylinder","translation":[-2.099752293594618,0.00041133807956202713,-4.547596911098102],"rotation":[-0.6945214285062121,0.1328158277025498,0.13281585301975385,0.694521340964093],"scale":[1.0446746095406607,16.427880214651736,1.044674644818753],"mesh":1},{"name":"Cylinder.001","translation":[2.322229472300799,0.0004111647462103411,-4.66266664994864],"rotation":[-0.6924804436360652,-0.14307598355964712,-0.14307597253265775,0.6924805858126128],"scale":[1.0446744724925074,16.427880188050292,1.04467457605221],"mesh":1},{"name":"anten","translation":[0,0,-4.980000019073486],"scale":[0.1929573118686676,0.1929573118686676,0.1929573118686676],"children":[3,4,14]},{"name":"close","translation":[0,0.7000007033348083,-3.6999998092651367],"scale":[2.174135684967041,1.0671871900558472,1.1783263683319092],"mesh":3},{"name":"green_light01","translation":[-1.399999976158142,4.4256979729012744e-8,-5.181958690598984],"rotation":[-0.7071065902709897,0,0,0.707106972102054],"scale":[0.26852767481339157,0.2685276656221028,0.2685276656221028],"mesh":4},{"name":"green_light02","translation":[1.399999976158142,4.4256979729012744e-8,-5.181958690598984],"rotation":[-0.7071065902709897,0,0,0.707106972102054],"scale":[0.26852767481339157,0.2685276656221028,0.2685276656221028],"mesh":4},{"name":"jammed","translation":[0.016528901080732794,0.7170506119728088,-4.199508204216869],"scale":[1.796880204438935,1.796880204438935,1.796880204438935],"mesh":5},{"name":"scan","translation":[0,0.7000007033348083,-3.6999998092651367],"scale":[2.174135684967041,1.0671871900558472,1.1783263683319092],"mesh":6},{"name":"yellow_light01","translation":[-0.699999988079071,4.4256979729012744e-8,-5.181958690598984],"rotation":[-0.7071065902709897,0,0,0.707106972102054],"scale":[0.26852767481339157,0.2685276656221028,0.2685276656221028],"mesh":7},{"name":"yellow_light02","translation":[0.699999988079071,4.4256979729012744e-8,-5.181958690598984],"rotation":[-0.7071065902709897,0,0,0.707106972102054],"scale":[0.26852767481339157,0.2685276656221028,0.2685276656221028],"mesh":7},{"name":"Scanner","rotation":[0.7071066498756409,0,0,0.70710688829422],"children":[0,1,2,5,6,7,8,9,10,11,12,15]},{"translation":[0,0,-0.8660252690315247],"scale":[1.7320505380630493,1.7320505380630493,1.7320505380630493],"mesh":2},{"translation":[0,0.13643866777420044,-2.5449159145355225],"scale":[2.522343873977661,2.522343873977661,2.522343873977661],"mesh":8}],"scenes":[{"name":"Scene","nodes":[13]}],"scene":0,"extensionsUsed":["KHR_mesh_quantization","EXT_meshopt_compression"],"extensionsRequired":["KHR_mesh_quantization","EXT_meshopt_compression"]}